<?xml version="1.0" encoding="UTF-8"?>
<!-- Generated by Pixelmator Pro 3.4.3 -->
<svg width="512" height="512" viewBox="0 0 512 512" xmlns="http://www.w3.org/2000/svg">
    <path id="Path" d="M 448.799988 0 L 111.400002 0 C 76.552002 0 48.200001 28.35199 48.200001 63.200012 L 48.200001 448.800995 C 48.200001 483.64801 76.551003 512 111.399002 512 L 448.799011 512 C 457.083008 512 463.799011 505.28299 463.799011 497 L 463.799011 400.600006 L 463.799011 15 C 463.799988 6.716003 457.084991 0 448.799988 0 Z M 159.600006 96.398987 L 352.401001 96.398987 C 360.684998 96.398987 367.401001 103.11499 367.401001 111.398987 C 367.401001 119.682983 360.684998 126.398987 352.401001 126.398987 L 159.600006 126.398987 C 151.315994 126.398987 144.600006 119.682983 144.600006 111.398987 C 144.600006 103.11499 151.315002 96.398987 159.600006 96.398987 Z M 111.401001 482 C 93.094002 482 78.200996 467.105988 78.200996 448.800995 C 78.200996 448.229004 78.216003 447.658997 78.244003 447.095001 C 79.135002 429.576996 93.667 415.600006 111.400002 415.600006 L 433.799988 415.600006 L 433.799988 482 L 111.401001 482 Z"/>
</svg>
