<?xml version="1.0" encoding="UTF-8"?>
<!-- Generated by Pixelmator Pro 3.4.3 -->
<svg width="512" height="512" viewBox="0 0 512 512" xmlns="http://www.w3.org/2000/svg">
    <path id="Path" fill="#000000" stroke="none" d="M 320 224 C 320 135.776001 248.223999 64 160 64 C 71.776001 64 0 135.776001 0 224 C 0.015417 258.463165 11.144151 292.002625 31.733999 319.639008 L 16.872 362.790009 C 14.870852 368.600891 16.374969 375.044464 20.741985 379.368835 C 25.109001 383.693237 31.567017 385.134064 37.358002 383.075989 L 85.900002 365.825989 C 108.773605 377.769348 134.19603 384.004517 160 384 C 248.223999 384 320 312.223999 320 224 Z M 160 328 C 151.163437 328 144 320.836548 144 312 C 144 303.163452 151.163437 296 160 296 C 168.836563 296 176 303.163452 176 312 C 176 320.836548 168.836563 328 160 328 Z M 176 245.976013 L 176 264 L 144 264 L 144 232 C 144 223.163452 151.163437 216 160 216 C 177.673111 216 192 201.673096 192 184 C 192 166.326904 177.673111 152 160 152 C 142.326889 152 128 166.326904 128 184 L 128 200 L 96 200 L 96 184 C 96.004295 150.742065 121.481071 123.029724 154.621353 120.23468 C 187.761627 117.439636 217.520004 140.493469 223.094559 173.280884 C 228.669098 206.068298 208.201859 237.661499 176 245.976013 Z"/>
    <path id="path1" fill="#000000" stroke="none" d="M 480.265015 447.638 C 500.855591 420.002319 511.984711 386.463043 512 352 C 512 263.776001 440.223999 192 352 192 C 345.744598 192.002502 339.494659 192.369812 333.282013 193.100006 C 335.093567 203.300232 336.003082 213.640167 336 224 C 336 307.966003 276.893005 378.373993 198.100006 395.833008 C 217.210007 462.81601 278.968994 512 352 512 C 377.805847 512.00592 403.230316 505.770325 426.105011 493.825012 L 474.641998 511.075989 C 480.432983 513.134033 486.890991 511.693237 491.258026 507.368835 C 495.625031 503.044464 497.12915 496.600891 495.127991 490.790009 Z M 368 432 L 336 432 L 336 336 L 368 336 Z M 352 304 C 343.163452 304 336 296.836548 336 288 C 336 279.163452 343.163452 272 352 272 C 360.836548 272 368 279.163452 368 288 C 368 296.836548 360.836548 304 352 304 Z"/>
</svg>
