<?xml version="1.0" encoding="UTF-8"?>
<!-- Generated by Pixelmator Pro 3.4.3 -->
<svg width="512" height="512" viewBox="0 0 512 512" xmlns="http://www.w3.org/2000/svg">
    <path id="Path" fill="#000000" stroke="none" d="M 374.031006 241.75 C 367.359985 187.320007 324.402008 144.470001 269.954987 137.937012 C 265.266998 137.401978 260.553009 137.134003 255.834 137.132996 C 207.716003 137.207001 164.389999 166.286987 146.091995 210.789978 C 127.793999 255.292999 138.134995 306.438995 172.285004 340.338013 C 190.445007 357.729004 200.845001 381.695007 201.141998 406.838013 L 201.141998 420.571014 L 310.855988 420.571014 L 310.855988 406.766998 C 310.938995 382.100006 320.973999 358.510986 338.687012 341.342987 C 365.44101 315.529999 378.527008 278.657013 374.029999 241.753998 L 374.029999 241.75 Z"/>
    <path id="path1" fill="#000000" stroke="none" d="M 256 512 C 267.619995 511.987 277.975006 504.665009 281.862 493.713989 L 230.139008 493.713989 C 234.024994 504.665009 244.380005 511.987 256 512 Z"/>
    <path id="path2" fill="#000000" stroke="none" d="M 210.285995 466.286011 C 210.292999 471.333008 214.382004 475.421997 219.429001 475.428986 L 292.571991 475.428986 C 297.618988 475.421997 301.708008 471.333008 301.714996 466.286011 L 301.714996 438.856995 L 210.285995 438.856995 L 210.285995 466.286011 Z"/>
    <path id="path3" fill="#000000" stroke="none" d="M 256 82.286011 C 266.098999 82.286011 274.286011 74.098999 274.286011 64 L 274.286011 18.286011 C 274.286011 8.187012 266.098999 0 256 0 C 245.901001 0 237.714005 8.187012 237.714005 18.286011 L 237.714005 64 C 237.714005 74.098999 245.901001 82.286011 256 82.286011 Z"/>
    <path id="path4" fill="#000000" stroke="none" d="M 101.679001 127.540009 C 108.915001 134.450989 120.305 134.450989 127.541 127.540009 C 130.970993 124.110992 132.897995 119.458984 132.897995 114.609009 C 132.897995 109.759003 130.970993 105.106995 127.541 101.678009 L 95.213997 69.356995 C 91.786003 65.927002 87.135002 64 82.286003 64 C 77.436996 64 72.786003 65.927002 69.357002 69.356995 C 65.927002 72.785004 64 77.436005 64 82.286011 C 64 87.135986 65.927002 91.786011 69.357002 95.214996 L 101.679001 127.540009 Z"/>
    <path id="path5" fill="#000000" stroke="none" d="M 82.286003 256 C 82.286003 245.901001 74.098999 237.713989 64 237.713989 L 18.285999 237.713989 C 8.191 237.723999 0.01 245.904999 0 256 C 0.01 266.095001 8.191 274.276001 18.285999 274.286011 L 64 274.286011 C 74.098999 274.286011 82.286003 266.098999 82.286003 256 Z"/>
    <path id="path6" fill="#000000" stroke="none" d="M 119.356003 379.699005 C 113.036003 378.01001 106.295998 379.825012 101.679001 384.459991 L 69.358002 416.786011 C 65.928001 420.213989 64.000999 424.86499 64.000999 429.714996 C 64.000999 434.565002 65.928001 439.214996 69.358002 442.644012 C 76.592003 449.554993 87.981003 449.554993 95.214996 442.644012 L 127.541 410.322998 C 132.175003 405.705994 133.990997 398.966003 132.302002 392.645996 C 130.613007 386.325989 125.676003 381.388 119.356003 379.699005 Z"/>
    <path id="path7" fill="#000000" stroke="none" d="M 410.321014 384.459991 C 405.70401 379.825989 398.963989 378.01001 392.644012 379.699005 C 386.324005 381.388 381.388 386.324005 379.699005 392.644012 C 378.01001 398.963989 379.825012 405.70401 384.459991 410.321014 L 416.786011 442.641998 C 424.019989 449.553009 435.408997 449.553009 442.643005 442.641998 C 446.072998 439.213989 448 434.562988 448 429.713013 C 448 424.863007 446.072998 420.213013 442.643005 416.783997 L 410.321014 384.459991 Z"/>
    <path id="path8" fill="#000000" stroke="none" d="M 493.713989 237.713989 L 448 237.713989 C 437.901001 237.713989 429.713989 245.901001 429.713989 256 C 429.713989 266.098999 437.901001 274.286011 448 274.286011 L 493.713989 274.286011 C 503.812988 274.286011 512 266.098999 512 256 C 512 245.901001 503.812988 237.713989 493.713989 237.713989 Z"/>
    <path id="path9" fill="#000000" stroke="none" d="M 410.321014 127.540009 L 442.641998 95.213989 C 447.260986 90.595001 449.065002 83.863007 447.373993 77.553009 C 445.683014 71.242981 440.755005 66.315002 434.445007 64.623993 C 428.13501 62.932983 421.403015 64.737 416.783997 69.356018 L 384.458008 101.677002 C 381.028015 105.106018 379.101013 109.757996 379.101013 114.608002 C 379.101013 119.458008 381.028015 124.109985 384.458008 127.539001 C 391.695007 134.450989 403.085999 134.450989 410.321014 127.540009 Z"/>
</svg>
