<?xml version="1.0" encoding="UTF-8"?>
<!-- Generated by Pixelmator Pro 3.4.3 -->
<svg width="1280" height="1280" viewBox="0 0 1280 1280" xmlns="http://www.w3.org/2000/svg" xmlns:xlink="http://www.w3.org/1999/xlink">
    <g id="AppIcon">
        <filter id="filter1" x="0" y="0" width="1280" height="1280" filterUnits="userSpaceOnUse" primitiveUnits="userSpaceOnUse" color-interpolation-filters="sRGB">
            <feGaussianBlur stdDeviation="10"/>
        </filter>
        <path id="Icon-Shadow" fill="#000000" fill-rule="evenodd" stroke="none" opacity="0.32444" filter="url(#filter1)" d="M 106 926 C 106 1054.682373 210.317657 1159 339 1159 L 936 1159 C 1064.682373 1159 1169 1054.682373 1169 926 L 1169 334 C 1169 205.317627 1064.682373 101 936 101 L 339 101 C 210.317657 101 106 205.317627 106 334 Z"/>
        <path id="Icon-Clip" fill="#000000" fill-rule="evenodd" stroke="none" d="M 100 919 C 100 1047.682373 204.317657 1152 333 1152 L 930 1152 C 1058.682373 1152 1163 1047.682373 1163 919 L 1163 327 C 1163 198.317627 1058.682373 94 930 94 L 333 94 C 204.317657 94 100 198.317627 100 327 Z"/>
        <mask id="mask1" maskUnits="userSpaceOnUse" maskContentUnits="userSpaceOnUse" mask-type="alpha">
            <path id="path1" fill="#000000" fill-rule="evenodd" stroke="none" d="M 100 919 C 100 1047.682373 204.317657 1152 333 1152 L 930 1152 C 1058.682373 1152 1163 1047.682373 1163 919 L 1163 327 C 1163 198.317627 1058.682373 94 930 94 L 333 94 C 204.317657 94 100 198.317627 100 327 Z"/>
        </mask>
        <g id="Group" mask="url(#mask1)">
            <g id="Icon-without-Clip">
                <linearGradient id="linearGradient1" x1="640" y1="0" x2="640" y2="1280" gradientUnits="userSpaceOnUse">
                    <stop offset="1e-05" stop-color="#ffa6b2" stop-opacity="1"/>
                    <stop offset="1" stop-color="#ff6d7a" stop-opacity="1"/>
                </linearGradient>
                <path id="Rectangle" fill="url(#linearGradient1)" fill-rule="evenodd" stroke="none" d="M 0 1280 L 1280 1280 L 1280 0 L 0 0 Z"/>
                <g id="Logo">
                    <g id="Grid-copy" opacity="0.016767">
                        <path id="Path" fill="none" stroke="#000000" stroke-width="4.196721" stroke-opacity="0.75" d="M 940.819702 186.458984 L 940.819702 218.983643 L 908.295105 218.983643 L 908.295105 186.458984 L 940.819702 186.458984 Z"/>
                        <path id="path2" fill="none" stroke="#000000" stroke-width="4.196721" stroke-opacity="0.75" d="M 940.819702 333.344238 L 940.819702 365.868835 L 908.295105 365.868835 L 908.295105 333.344238 L 940.819702 333.344238 Z"/>
                        <path id="Oval" fill="none" stroke="#000000" stroke-width="4.196721" stroke-opacity="0.75" d="M 254.655731 275.114746 C 254.655731 284.096191 247.374863 291.377075 238.393448 291.377075 C 229.412033 291.377075 222.131149 284.096191 222.131149 275.114746 C 222.131149 266.133301 229.412033 258.852478 238.393448 258.852478 C 247.374863 258.852478 254.655731 266.133301 254.655731 275.114746 Z"/>
                        <path id="path3" fill="none" stroke="#000000" stroke-width="4.196721" stroke-opacity="0.75" d="M 330.196716 275.114746 C 330.196716 284.096191 322.915863 291.377075 313.934418 291.377075 C 304.953003 291.377075 297.672119 284.096191 297.672119 275.114746 C 297.672119 266.133301 304.953003 258.852478 313.934418 258.852478 C 322.915863 258.852478 330.196716 266.133301 330.196716 275.114746 Z"/>
                        <path id="path4" fill="none" stroke="#000000" stroke-width="4.196721" stroke-opacity="0.75" d="M 643.901611 258.852478 L 643.901611 291.377075 L 406.786896 291.377075 L 406.786896 258.852478 L 643.901611 258.852478 Z"/>
                        <path id="path5" fill="none" stroke="#000000" stroke-width="4.196721" stroke-opacity="0.75" d="M 940.819702 555.770508 L 940.819702 588.295105 L 908.295105 588.295105 L 908.295105 555.770508 L 940.819702 555.770508 Z"/>
                        <path id="path6" fill="none" stroke="#000000" stroke-width="4.196721" stroke-opacity="0.75" d="M 940.819702 703.704895 L 940.819702 736.229492 L 908.295105 736.229492 L 908.295105 703.704895 L 940.819702 703.704895 Z"/>
                        <path id="path7" fill="none" stroke="#000000" stroke-width="4.196721" stroke-opacity="0.75" d="M 254.655731 645.475403 C 254.655731 654.456848 247.374863 661.737732 238.393448 661.737732 C 229.412033 661.737732 222.131149 654.456848 222.131149 645.475403 C 222.131149 636.493958 229.412033 629.213135 238.393448 629.213135 C 247.374863 629.213135 254.655731 636.493958 254.655731 645.475403 Z"/>
                        <path id="path8" fill="none" stroke="#000000" stroke-width="4.196721" stroke-opacity="0.75" d="M 330.196716 645.475403 C 330.196716 654.456848 322.915863 661.737732 313.934418 661.737732 C 304.953003 661.737732 297.672119 654.456848 297.672119 645.475403 C 297.672119 636.493958 304.953003 629.213135 313.934418 629.213135 C 322.915863 629.213135 330.196716 636.493958 330.196716 645.475403 Z"/>
                        <path id="path9" fill="none" stroke="#000000" stroke-width="4.196721" stroke-opacity="0.75" d="M 643.901611 629.213135 L 643.901611 661.737732 L 406.786896 661.737732 L 406.786896 629.213135 L 643.901611 629.213135 Z"/>
                        <path id="Shape" fill="none" stroke="#000000" stroke-width="4.196721" stroke-opacity="0.75" d="M 1182.515869 111.967163 C 1186.865723 111.967163 1191.037354 113.697388 1194.113159 116.776855 C 1197.189941 119.857544 1198.918091 124.035767 1198.918091 128.392334 L 1198.918091 424.7677 C 1198.918091 429.124207 1197.189941 433.302429 1194.113159 436.383057 C 1191.037354 439.462585 1186.865723 441.192871 1182.515869 441.192749 L 1069.414185 441.192749 L 1069.414185 482.436401 L 1182.515869 482.436401 C 1186.865723 482.436279 1191.037354 484.166504 1194.113159 487.246155 C 1197.189941 490.326721 1198.918091 494.505005 1198.918091 498.861511 L 1198.918091 795.236877 C 1198.918091 799.593384 1197.189941 803.771606 1194.113159 806.852173 C 1191.037354 809.931763 1186.865723 811.662109 1182.515869 811.661987 L 1069.414185 811.661987 L 1069.414185 852.90564 L 1182.515869 852.90564 C 1186.865723 852.905518 1191.037354 854.635742 1194.113159 857.715332 C 1197.189941 860.795898 1198.918091 864.974182 1198.918091 869.330688 L 1198.918091 1165.706055 C 1198.918091 1170.0625 1197.189941 1174.240845 1194.113159 1177.321411 C 1191.037354 1180.401001 1186.865723 1182.131104 1182.515869 1182.131104 L 109.484154 1182.131104 C 105.13427 1182.131104 100.962608 1180.401001 97.886818 1177.321411 C 94.810051 1174.240845 93.08197 1170.0625 93.08197 1165.706055 L 93.08197 869.330688 C 93.08197 864.974182 94.810051 860.795898 97.886818 857.715332 C 100.962593 854.635742 105.134224 852.905518 109.484154 852.90564 L 204.085251 852.90564 L 204.085251 811.661987 L 109.484093 811.661987 C 105.134224 811.662109 100.962593 809.931763 97.886818 806.852173 C 94.810051 803.771606 93.08197 799.593384 93.08197 795.236877 L 93.08197 498.861511 C 93.08197 494.505005 94.810051 490.326721 97.886818 487.246155 C 100.962593 484.166504 105.134224 482.436279 109.484154 482.436401 L 204.085251 482.436401 L 204.085251 441.192749 L 109.484093 441.192749 C 105.134224 441.192871 100.962593 439.462585 97.886818 436.383057 C 94.810051 433.302429 93.08197 429.124207 93.08197 424.7677 L 93.08197 128.392334 C 93.08197 124.035767 94.810051 119.857544 97.886818 116.776855 C 100.962608 113.697388 105.13427 111.967163 109.484154 111.967163 L 1182.515869 111.967163 Z M 1164.837769 885.64093 L 125.498024 885.64093 L 125.498024 926.958435 L 864.885864 926.958435 L 864.885864 959.882446 L 125.498024 959.882446 L 125.498024 1075.441406 L 864.885864 1075.441406 L 864.885864 1108.365479 L 125.498024 1108.365479 L 125.498024 1149.682983 L 1164.837769 1149.682983 L 1164.837769 1108.365479 L 979.990784 1108.365479 L 979.990784 1075.441406 L 1164.837769 1075.441406 L 1164.837769 959.882446 L 979.990784 959.882446 L 979.990784 926.958435 L 1164.837769 926.958435 L 1164.837769 885.64093 Z M 1036.693115 812.351196 L 995.883606 812.351196 L 995.883606 853.192749 L 1036.693115 853.192749 L 1036.693115 812.351196 Z M 961.803284 812.351196 L 310.226105 812.351196 L 310.226105 853.192749 L 961.803284 853.192749 L 961.803284 812.351196 Z M 277.810059 812.351196 L 237.000565 812.351196 L 237.000565 853.192749 L 277.810059 853.192749 L 277.810059 812.351196 Z M 1164.837769 514.195313 L 125.498024 514.195313 L 125.498024 555.512817 L 864.885864 555.512817 L 864.885864 588.43689 L 125.498024 588.43689 L 125.498024 703.99585 L 864.885864 703.99585 L 864.885864 736.919861 L 125.498024 736.919861 L 125.498024 778.237427 L 1164.837769 778.237427 L 1164.837769 736.919861 L 979.990784 736.919861 L 979.990784 703.99585 L 1164.837769 703.99585 L 1164.837769 588.43689 L 979.990784 588.43689 L 979.990784 555.512817 L 1164.837769 555.512817 L 1164.837769 514.195313 Z M 1036.693115 440.90564 L 995.883606 440.90564 L 995.883606 481.747192 L 1036.693115 481.747192 L 1036.693115 440.90564 Z M 961.803284 440.90564 L 310.226105 440.90564 L 310.226105 481.747192 L 961.803284 481.747192 L 961.803284 440.90564 Z M 277.810059 440.90564 L 237.000565 440.90564 L 237.000565 481.747192 L 277.810059 481.747192 L 277.810059 440.90564 Z M 1164.837769 144.415283 L 125.498024 144.415283 L 125.498024 185.732788 L 864.885864 185.732788 L 864.885864 218.65686 L 125.498024 218.65686 L 125.498024 334.215942 L 864.885864 334.215942 L 864.885864 367.140015 L 125.498024 367.140015 L 125.498024 408.457458 L 1164.837769 408.457458 L 1164.837769 367.140015 L 979.990784 367.140015 L 979.990784 334.215942 L 1164.837769 334.215942 L 1164.837769 218.65686 L 979.990784 218.65686 L 979.990784 185.732788 L 1164.837769 185.732788 L 1164.837769 144.415283 Z"/>
                        <path id="path10" fill="none" stroke="#000000" stroke-width="4.196721" stroke-opacity="0.75" d="M 940.819702 925.08197 L 940.819702 957.606567 L 908.295105 957.606567 L 908.295105 925.08197 L 940.819702 925.08197 Z"/>
                        <path id="path11" fill="none" stroke="#000000" stroke-width="4.196721" stroke-opacity="0.75" d="M 940.819702 1074.065552 L 940.819702 1106.59021 L 908.295105 1106.59021 L 908.295105 1074.065552 L 940.819702 1074.065552 Z"/>
                        <path id="path12" fill="none" stroke="#000000" stroke-width="4.196721" stroke-opacity="0.75" d="M 254.655731 1016.885254 C 254.655731 1025.866699 247.374863 1033.147583 238.393448 1033.147583 C 229.412033 1033.147583 222.131149 1025.866699 222.131149 1016.885254 C 222.131149 1007.903809 229.412033 1000.622925 238.393448 1000.622925 C 247.374863 1000.622925 254.655731 1007.903809 254.655731 1016.885254 Z"/>
                        <path id="path13" fill="none" stroke="#000000" stroke-width="4.196721" stroke-opacity="0.75" d="M 330.196716 1016.885254 C 330.196716 1025.866699 322.915863 1033.147583 313.934418 1033.147583 C 304.953003 1033.147583 297.672119 1025.866699 297.672119 1016.885254 C 297.672119 1007.903809 304.953003 1000.622925 313.934418 1000.622925 C 322.915863 1000.622925 330.196716 1007.903809 330.196716 1016.885254 Z"/>
                        <path id="path14" fill="none" stroke="#000000" stroke-width="4.196721" stroke-opacity="0.75" d="M 643.901611 1000.622925 L 643.901611 1033.147583 L 406.786896 1033.147583 L 406.786896 1000.622925 L 643.901611 1000.622925 Z"/>
                    </g>
                    <g id="Grid">
                        <path id="path15" fill="none" stroke="#ffffff" stroke-width="4.196721" stroke-opacity="0.75" d="M 934.819702 180.458984 L 934.819702 212.983643 L 902.295105 212.983643 L 902.295105 180.458984 L 934.819702 180.458984 Z"/>
                        <path id="path16" fill="none" stroke="#ffffff" stroke-width="4.196721" stroke-opacity="0.75" d="M 934.819702 327.344238 L 934.819702 359.868835 L 902.295105 359.868835 L 902.295105 327.344238 L 934.819702 327.344238 Z"/>
                        <path id="path17" fill="none" stroke="#ffffff" stroke-width="4.196721" stroke-opacity="0.75" d="M 248.655731 269.114746 C 248.655731 278.096191 241.374863 285.377075 232.393448 285.377075 C 223.412033 285.377075 216.131149 278.096191 216.131149 269.114746 C 216.131149 260.133301 223.412033 252.852417 232.393448 252.852417 C 241.374863 252.852417 248.655731 260.133301 248.655731 269.114746 Z"/>
                        <path id="path18" fill="none" stroke="#ffffff" stroke-width="4.196721" stroke-opacity="0.75" d="M 324.196716 269.114746 C 324.196716 278.096191 316.915863 285.377075 307.934418 285.377075 C 298.953003 285.377075 291.672119 278.096191 291.672119 269.114746 C 291.672119 260.133301 298.953003 252.852417 307.934418 252.852417 C 316.915863 252.852417 324.196716 260.133301 324.196716 269.114746 Z"/>
                        <path id="path19" fill="none" stroke="#ffffff" stroke-width="4.196721" stroke-opacity="0.75" d="M 637.901611 252.852417 L 637.901611 285.377075 L 400.786896 285.377075 L 400.786896 252.852417 L 637.901611 252.852417 Z"/>
                        <path id="path20" fill="none" stroke="#ffffff" stroke-width="4.196721" stroke-opacity="0.75" d="M 934.819702 549.770508 L 934.819702 582.295105 L 902.295105 582.295105 L 902.295105 549.770508 L 934.819702 549.770508 Z"/>
                        <path id="path21" fill="none" stroke="#ffffff" stroke-width="4.196721" stroke-opacity="0.75" d="M 934.819702 697.704895 L 934.819702 730.229492 L 902.295105 730.229492 L 902.295105 697.704895 L 934.819702 697.704895 Z"/>
                        <path id="path22" fill="none" stroke="#ffffff" stroke-width="4.196721" stroke-opacity="0.75" d="M 248.655731 639.475403 C 248.655731 648.456848 241.374863 655.737732 232.393448 655.737732 C 223.412033 655.737732 216.131149 648.456848 216.131149 639.475403 C 216.131149 630.493958 223.412033 623.213135 232.393448 623.213135 C 241.374863 623.213135 248.655731 630.493958 248.655731 639.475403 Z"/>
                        <path id="path23" fill="none" stroke="#ffffff" stroke-width="4.196721" stroke-opacity="0.75" d="M 324.196716 639.475403 C 324.196716 648.456848 316.915863 655.737732 307.934418 655.737732 C 298.953003 655.737732 291.672119 648.456848 291.672119 639.475403 C 291.672119 630.493958 298.953003 623.213135 307.934418 623.213135 C 316.915863 623.213135 324.196716 630.493958 324.196716 639.475403 Z"/>
                        <path id="path24" fill="none" stroke="#ffffff" stroke-width="4.196721" stroke-opacity="0.75" d="M 637.901611 623.213135 L 637.901611 655.737732 L 400.786896 655.737732 L 400.786896 623.213135 L 637.901611 623.213135 Z"/>
                        <path id="path25" fill="none" stroke="#ffffff" stroke-width="4.196721" stroke-opacity="0.75" d="M 1176.515869 105.967163 C 1180.865723 105.967163 1185.037354 107.697388 1188.113159 110.776855 C 1191.189941 113.857544 1192.918091 118.035767 1192.918091 122.392334 L 1192.918091 418.7677 C 1192.918091 423.124207 1191.189941 427.302429 1188.113159 430.383057 C 1185.037354 433.462585 1180.865723 435.192871 1176.515869 435.192749 L 1063.414185 435.192749 L 1063.414185 476.436401 L 1176.515869 476.436401 C 1180.865723 476.436279 1185.037354 478.166504 1188.113159 481.246155 C 1191.189941 484.326721 1192.918091 488.505005 1192.918091 492.861511 L 1192.918091 789.236877 C 1192.918091 793.593384 1191.189941 797.771606 1188.113159 800.852173 C 1185.037354 803.931763 1180.865723 805.662109 1176.515869 805.661987 L 1063.414185 805.661987 L 1063.414185 846.90564 L 1176.515869 846.90564 C 1180.865723 846.905518 1185.037354 848.635742 1188.113159 851.715332 C 1191.189941 854.795898 1192.918091 858.974182 1192.918091 863.330688 L 1192.918091 1159.706055 C 1192.918091 1164.0625 1191.189941 1168.240845 1188.113159 1171.321411 C 1185.037354 1174.401001 1180.865723 1176.131104 1176.515869 1176.131104 L 103.484154 1176.131104 C 99.13427 1176.131104 94.962608 1174.401001 91.886818 1171.321411 C 88.810051 1168.240845 87.08197 1164.0625 87.08197 1159.706055 L 87.08197 863.330688 C 87.08197 858.974182 88.810051 854.795898 91.886818 851.715332 C 94.962593 848.635742 99.134224 846.905518 103.484154 846.90564 L 198.085251 846.90564 L 198.085251 805.661987 L 103.484093 805.661987 C 99.134224 805.662109 94.962593 803.931763 91.886818 800.852173 C 88.810051 797.771606 87.08197 793.593384 87.08197 789.236877 L 87.08197 492.861511 C 87.08197 488.505005 88.810051 484.326721 91.886818 481.246155 C 94.962593 478.166504 99.134224 476.436279 103.484154 476.436401 L 198.085251 476.436401 L 198.085251 435.192749 L 103.484093 435.192749 C 99.134224 435.192871 94.962593 433.462585 91.886818 430.383057 C 88.810051 427.302429 87.08197 423.124207 87.08197 418.7677 L 87.08197 122.392334 C 87.08197 118.035767 88.810051 113.857544 91.886818 110.776855 C 94.962608 107.697388 99.13427 105.967163 103.484154 105.967163 L 1176.515869 105.967163 Z M 1158.837769 879.64093 L 119.498024 879.64093 L 119.498024 920.958435 L 858.885864 920.958435 L 858.885864 953.882446 L 119.498024 953.882446 L 119.498024 1069.441406 L 858.885864 1069.441406 L 858.885864 1102.365479 L 119.498024 1102.365479 L 119.498024 1143.682983 L 1158.837769 1143.682983 L 1158.837769 1102.365479 L 973.990784 1102.365479 L 973.990784 1069.441406 L 1158.837769 1069.441406 L 1158.837769 953.882446 L 973.990784 953.882446 L 973.990784 920.958435 L 1158.837769 920.958435 L 1158.837769 879.64093 Z M 1030.693115 806.351196 L 989.883606 806.351196 L 989.883606 847.192749 L 1030.693115 847.192749 L 1030.693115 806.351196 Z M 955.803284 806.351196 L 304.226105 806.351196 L 304.226105 847.192749 L 955.803284 847.192749 L 955.803284 806.351196 Z M 271.810059 806.351196 L 231.000565 806.351196 L 231.000565 847.192749 L 271.810059 847.192749 L 271.810059 806.351196 Z M 1158.837769 508.195313 L 119.498024 508.195313 L 119.498024 549.512817 L 858.885864 549.512817 L 858.885864 582.43689 L 119.498024 582.43689 L 119.498024 697.99585 L 858.885864 697.99585 L 858.885864 730.919861 L 119.498024 730.919861 L 119.498024 772.237427 L 1158.837769 772.237427 L 1158.837769 730.919861 L 973.990784 730.919861 L 973.990784 697.99585 L 1158.837769 697.99585 L 1158.837769 582.43689 L 973.990784 582.43689 L 973.990784 549.512817 L 1158.837769 549.512817 L 1158.837769 508.195313 Z M 1030.693115 434.90564 L 989.883606 434.90564 L 989.883606 475.747192 L 1030.693115 475.747192 L 1030.693115 434.90564 Z M 955.803284 434.90564 L 304.226105 434.90564 L 304.226105 475.747192 L 955.803284 475.747192 L 955.803284 434.90564 Z M 271.810059 434.90564 L 231.000565 434.90564 L 231.000565 475.747192 L 271.810059 475.747192 L 271.810059 434.90564 Z M 1158.837769 138.415283 L 119.498024 138.415283 L 119.498024 179.732788 L 858.885864 179.732788 L 858.885864 212.65686 L 119.498024 212.65686 L 119.498024 328.215942 L 858.885864 328.215942 L 858.885864 361.140015 L 119.498024 361.140015 L 119.498024 402.457458 L 1158.837769 402.457458 L 1158.837769 361.140015 L 973.990784 361.140015 L 973.990784 328.215942 L 1158.837769 328.215942 L 1158.837769 212.65686 L 973.990784 212.65686 L 973.990784 179.732788 L 1158.837769 179.732788 L 1158.837769 138.415283 Z"/>
                        <path id="path26" fill="none" stroke="#ffffff" stroke-width="4.196721" stroke-opacity="0.75" d="M 934.819702 919.08197 L 934.819702 951.606567 L 902.295105 951.606567 L 902.295105 919.08197 L 934.819702 919.08197 Z"/>
                        <path id="path27" fill="none" stroke="#ffffff" stroke-width="4.196721" stroke-opacity="0.75" d="M 934.819702 1068.065552 L 934.819702 1100.59021 L 902.295105 1100.59021 L 902.295105 1068.065552 L 934.819702 1068.065552 Z"/>
                        <path id="path28" fill="none" stroke="#ffffff" stroke-width="4.196721" stroke-opacity="0.75" d="M 248.655731 1010.885254 C 248.655731 1019.866699 241.374863 1027.147583 232.393448 1027.147583 C 223.412033 1027.147583 216.131149 1019.866699 216.131149 1010.885254 C 216.131149 1001.903809 223.412033 994.622925 232.393448 994.622925 C 241.374863 994.622925 248.655731 1001.903809 248.655731 1010.885254 Z"/>
                        <path id="path29" fill="none" stroke="#ffffff" stroke-width="4.196721" stroke-opacity="0.75" d="M 324.196716 1010.885254 C 324.196716 1019.866699 316.915863 1027.147583 307.934418 1027.147583 C 298.953003 1027.147583 291.672119 1019.866699 291.672119 1010.885254 C 291.672119 1001.903809 298.953003 994.622925 307.934418 994.622925 C 316.915863 994.622925 324.196716 1001.903809 324.196716 1010.885254 Z"/>
                        <path id="path30" fill="none" stroke="#ffffff" stroke-width="4.196721" stroke-opacity="0.75" d="M 637.901611 994.622925 L 637.901611 1027.147583 L 400.786896 1027.147583 L 400.786896 994.622925 L 637.901611 994.622925 Z"/>
                    </g>
                    <g id="g1">
                        <filter id="filter2" x="0" y="0" width="1280" height="1280" filterUnits="userSpaceOnUse" primitiveUnits="userSpaceOnUse" color-interpolation-filters="sRGB">
                            <feGaussianBlur stdDeviation="10"/>
                        </filter>
                        <path id="Shadow" fill="#000000" stroke="none" opacity="0.5" filter="url(#filter2)" d="M 391.425781 1046.982422 C 361.823639 1046.982422 336.239716 1026.312256 330.083984 997.382813 C 319.862152 949.447632 316.355042 932.985229 310.685547 906.392578 L 310.677734 906.392578 L 288.759766 803.572266 L 288.769531 803.572266 C 284.712433 784.528564 278.145752 753.702576 272.666016 727.976563 C 271.732452 726.471619 271.045013 724.787903 270.660156 722.974609 C 267.920807 710.061096 264.886597 695.770569 261.480469 679.769531 L 226.75 679.769531 C 209.419968 679.769531 195.382813 665.669678 195.382813 648.261719 L 195.382813 647.679688 L 195.382813 647.134766 L 195.382813 583.277344 L 195.382813 583.087891 L 195.382813 582.910156 C 195.382813 565.711365 209.387589 551.769531 226.664063 551.769531 C 226.664063 551.769531 226.749985 551.769531 226.75 551.769531 L 333.740234 551.769531 C 323.656647 521.963135 318.054749 489.633911 318.138672 458.900391 C 318.138916 458.816406 318.138367 458.732422 318.138672 458.648438 C 318.015564 420.006592 326.996399 383.602539 348.683594 357.660156 C 348.84317 357.467468 349.005096 357.277344 349.166016 357.085938 C 353.049072 352.467407 357.321655 348.220581 362.003906 344.400391 C 362.939056 343.636841 363.885895 342.896729 364.841797 342.175781 C 391.704224 321.663391 431.503967 312.904297 487.619141 323.613281 C 495.817474 325.181458 503.255249 326.091431 510.146484 326.519531 C 510.515259 325.210022 510.903778 323.898132 511.320313 322.582031 C 517.261536 303.681641 527.479553 286.699097 542.482422 272.710938 C 548.798035 266.820129 558.7229 267.135376 564.648438 273.416016 C 570.57196 279.698669 570.255005 289.566284 563.939453 295.458984 C 555.005798 303.801208 548.268372 313.719299 543.675781 325.121094 C 566.898071 322.039856 587.349731 316.206116 620.150391 320.205078 C 623.407227 320.602112 626.352722 321.424072 628.988281 322.583984 C 637.292114 324.137512 645.489258 326.439758 653.359375 329.689453 C 686.453735 316.024658 725.333008 319.065918 753.589844 324.449219 C 761.07074 325.877869 768.700928 326.830933 776.423828 327.28125 C 776.853394 325.719543 777.315186 324.153442 777.8125 322.582031 C 783.753601 303.681641 793.971863 286.699097 808.974609 272.710938 C 815.290161 266.820129 825.213196 267.135376 831.138672 273.416016 C 837.064087 279.696655 836.745178 289.566284 830.429688 295.458984 C 821.256287 304.025146 814.400452 314.253357 809.802734 326.042969 C 813.073547 325.606262 816.346375 325.078003 819.617188 324.449219 C 855.366577 317.63269 908.178284 314.570679 944.710938 344.400391 C 995.038818 385.46228 998.487 476.606995 973.044922 551.769531 L 1073.65625 551.769531 C 1074.73999 551.769531 1075.809814 551.823975 1076.865234 551.931641 C 1092.686768 553.53479 1105.021484 566.866272 1105.021484 583.087891 L 1105.021484 583.277344 L 1105.021484 647.679688 L 1105.021484 648.261719 C 1105.021484 665.669678 1090.98645 679.769531 1073.65625 679.769531 L 1038.400391 679.769531 C 976.930847 968.104492 1025.487793 740.454834 970.712891 997.382813 C 964.537537 1026.312256 938.973633 1046.982422 909.351563 1046.982422 L 850.072266 1046.982422 L 722.072266 1046.982422 L 574.136719 1046.982422 L 446.136719 1046.982422 L 391.425781 1046.982422 Z"/>
                        <g id="Apples">
                            <path id="path31" fill="#fe4f60" stroke="none" d="M 532.141479 290.875183 C 567.891663 284.058655 620.701355 280.99762 657.234802 310.827332 C 750.435608 386.868835 682.86908 634.654785 568.78064 634.654785 C 555.063721 634.654785 537.330566 631.539124 515.455933 621.218689 C 505.09726 616.331604 493.156372 616.331604 482.797699 621.218689 C 459.002106 632.44635 432.545349 638.697083 407.386841 631.716614 C 308.752228 604.206604 253.099258 382.561218 341.020813 310.827332 C 377.55423 280.99762 430.344391 284.060608 466.114136 290.875183 C 487.35434 294.931152 509.796844 295.171143 532.141479 290.875183 Z"/>
                            <path id="path32" fill="#fe4f60" stroke="none" d="M 798.63324 290.875183 C 834.383423 284.058655 887.193115 280.99762 923.726624 310.827332 C 1016.927368 386.868835 949.360901 634.654785 835.272461 634.654785 C 821.555542 634.654785 803.822449 631.539124 781.947754 621.218689 C 771.58905 616.331604 759.648193 616.331604 749.28949 621.218689 C 725.493896 632.44635 699.03717 638.697083 673.878723 631.716614 C 575.243958 604.206604 519.591064 382.561218 607.512573 310.827332 C 644.046021 280.99762 696.836182 284.060608 732.605957 290.875183 C 753.844177 294.931152 776.286682 295.171143 798.63324 290.875183 Z"/>
                            <path id="path33" fill="#ff6d7a" stroke="none" d="M 599.165955 286.631592 C 631.822815 290.612488 633.385254 337.076599 601.053894 343.158447 C 578.801086 347.344788 557.063904 347.659729 534.23468 343.293396 C 498.425537 336.458435 445.572388 333.387146 408.996704 363.299683 C 374.365753 391.596375 361.985657 443.158386 365.718292 496.977783 C 368.072784 530.927979 319.411041 539.951965 309.742188 507.316406 C 277.293213 397.80542 300.17334 258.272278 466.635223 290.039307 C 523.793457 300.972595 544.032898 279.910034 599.165955 286.631592 Z"/>
                            <path id="path34" fill="#ffaa64" stroke="none" d="M 1084.038696 549.51355 L 1084.038696 614.106567 C 1084.038696 631.409729 1070.002075 645.424438 1052.671753 645.424438 L 1017.580139 645.424438 C 955.708923 935.642761 1004.582458 706.513733 949.729614 963.809326 C 943.554321 992.739136 917.990295 1013.408875 888.368225 1013.408875 L 370.442291 1013.408875 C 340.839813 1013.408875 315.256226 992.739136 309.100464 963.809326 C 272.754089 793.361938 276.282837 809.901672 241.249985 645.424438 L 205.766205 645.424438 C 188.436005 645.424438 174.399338 631.409729 174.399338 614.106567 L 174.399338 549.51355 C 174.399338 532.21051 188.436005 518.19574 205.766205 518.19574 L 1052.671753 518.19574 C 1070.002075 518.19574 1084.038696 532.21051 1084.038696 549.51355 Z"/>
                            <path id="path35" fill="#cbe3fa" stroke="none" d="M 1084.038696 549.70343 L 1084.038696 614.688049 C 1084.038696 632.096069 1070.002075 646.19574 1052.671753 646.19574 L 205.766205 646.19574 C 188.436005 646.19574 174.399338 632.096069 174.399338 614.688049 L 174.399338 549.70343 C 174.399338 532.295471 188.436005 518.19574 205.766205 518.19574 L 1052.671753 518.19574 C 1070.002075 518.19574 1084.038696 532.295471 1084.038696 549.70343 Z"/>
                            <path id="path36" fill="#ffaa64" stroke="none" d="M 502.397705 376.556396 C 495.162811 376.556396 488.659058 371.548645 487.081146 364.230957 C 485.126892 355.172607 479.585541 322.977905 490.336945 289.007446 C 496.278137 270.106995 506.496338 253.124756 521.499268 239.136475 C 527.81488 233.245728 537.739075 233.561523 543.664551 239.842163 C 549.588135 246.124756 549.270569 255.992065 542.954956 261.884888 C 532.289856 271.843872 524.755066 284.048401 520.262451 298.342651 C 511.592712 325.740051 516.645996 352.583862 517.745605 357.685181 C 519.83313 367.363464 512.425781 376.556396 502.397705 376.556396 L 502.397705 376.556396 Z"/>
                            <path id="path37" fill="#ffaa64" stroke="none" d="M 768.889282 376.556396 C 761.65448 376.556396 755.150818 371.548645 753.572937 364.230957 C 751.618652 355.172607 746.077393 322.977905 756.828674 289.007446 C 762.769775 270.106995 772.987915 253.124756 787.990662 239.136475 C 794.306152 233.245728 804.230225 233.561523 810.155701 239.842163 C 816.081055 246.122803 815.761597 255.992065 809.446106 261.884888 C 798.781067 271.843872 791.246399 284.048401 786.753784 298.342651 C 778.084229 325.740051 783.137329 352.583862 784.237 357.685181 C 786.324524 367.363464 778.917236 376.556396 768.889282 376.556396 L 768.889282 376.556396 Z"/>
                            <g id="g2">
                                <path id="path38" fill="#e84857" stroke="none" d="M 456.584198 357.700134 C 450.710876 351.327759 451.117065 341.399536 457.494751 335.529236 C 463.870453 329.66095 473.803925 330.065002 479.677246 336.43927 C 480.931183 337.798523 487.718994 344.610229 498.199951 345.084839 C 509.946655 345.647705 517.856934 337.8927 519.316895 336.337341 C 525.247131 330.013977 535.182556 329.698181 541.507324 335.621399 C 547.833862 341.548523 548.153748 351.478821 542.223572 357.802124 C 518.48291 383.105225 479.27298 382.318726 456.584198 357.700134 Z"/>
                                <path id="path39" fill="#e84857" stroke="none" d="M 767.557312 376.489685 C 759.117249 376.489685 752.144958 369.787781 751.87616 361.295227 C 751.601379 352.634033 758.404907 345.390808 767.072632 345.116211 C 777.785156 344.776917 784.86731 337.763184 786.178162 336.358887 C 792.098633 330.025757 802.032104 329.688416 808.366577 335.601807 C 814.703003 341.517151 815.042542 351.445435 809.124023 357.780518 C 798.878601 368.736572 782.622375 376.489685 767.557312 376.489685 L 767.557312 376.489685 Z"/>
                                <path id="path40" fill="#e84857" stroke="none" d="M 713.965271 518.195679 L 686.482483 518.195679 C 713.547302 437.632202 710.592041 326.738586 632.870789 295.035645 C 649.672485 288.139587 668.12854 285.393738 686.42749 285.277649 C 690.658386 285.250549 694.751831 286.913818 697.7052 289.942017 C 744.25238 337.690613 750.157104 426.772278 729.132385 506.588562 C 727.327026 513.44928 721.06311 518.195679 713.965271 518.195679 Z"/>
                            </g>
                            <path id="path41" fill="#eef7ff" stroke="none" d="M 1052.325806 518.263855 C 1082.075562 520.202271 1079.844727 564.905273 1050.03064 564.905273 L 252.600433 564.905273 C 235.323853 564.905273 221.319992 578.84613 221.319992 596.044983 L 221.319992 613.341125 C 221.319992 643.65564 174.399338 645.370239 174.399338 613.561035 L 174.399338 549.335449 C 174.399338 532.136597 188.403198 518.19574 205.679764 518.19574 C 205.679764 518.19574 1051.639648 518.219055 1052.325806 518.263855 Z"/>
                            <path id="path42" fill="#ffbd7b" stroke="none" d="M 989.612427 769.999023 L 967.714355 872.818665 L 289.694031 872.818665 L 267.776398 769.999023 Z"/>
                            <path id="path43" fill="#faa157" stroke="none" d="M 240.497696 646.19574 C 243.903824 662.196777 246.936478 676.487854 249.675827 689.401367 C 251.210724 696.632935 257.590851 701.802307 264.975983 701.802307 L 990.296875 701.802307 C 997.680054 701.802307 1004.058228 696.636902 1005.597046 689.40918 C 1008.352051 676.458435 1011.412048 662.106812 1014.792786 646.19574 L 240.497696 646.19574 Z"/>
                            <path id="path44" fill="#ffd3a6" stroke="none" d="M 829.08783 1013.408875 L 701.08783 1013.408875 L 701.08783 646.19574 L 829.08783 646.19574 Z"/>
                            <path id="path45" fill="#ffd3a6" stroke="none" d="M 553.153442 1013.408875 L 425.153442 1013.408875 L 425.153442 646.19574 L 553.153442 646.19574 Z"/>
                            <path id="path46" fill="#ffbd7b" stroke="none" d="M 829.08783 646.19574 L 829.08783 686.149475 C 829.08783 694.793762 822.034058 701.802307 813.334045 701.802307 L 716.841675 701.802307 C 708.141663 701.802307 701.08783 694.793762 701.08783 686.149475 L 701.08783 646.19574 L 829.08783 646.19574 Z"/>
                            <path id="path47" fill="#ffbd7b" stroke="none" d="M 553.153442 646.19574 L 553.153442 686.149475 C 553.153442 694.793762 546.09967 701.802307 537.399597 701.802307 L 440.907288 701.802307 C 432.207214 701.802307 425.153442 694.793762 425.153442 686.149475 L 425.153442 646.19574 L 553.153442 646.19574 Z"/>
                        </g>
                    </g>
                </g>
            </g>
        </g>
    </g>
</svg>
