<svg xmlns="http://www.w3.org/2000/svg" version="1.1" xmlns:xlink="http://www.w3.org/1999/xlink" width="512" height="512" x="0" y="0" viewBox="0 0 52 52" style="enable-background:new 0 0 512 512" xml:space="preserve" class=""><g><path d="M52 26C52 11.727 40.438.108 26.189.005c-.016 0-.032-.005-.048-.005h-.281c-.017 0-.032.005-.049.005C11.561.108 0 11.727 0 26a25.83 25.83 0 0 0 3.36 12.76c.02.038.031.079.053.117l.141.245c.021.037.05.066.073.102C8.16 46.864 16.49 52 26 52c9.51 0 17.84-5.135 22.373-12.776.023-.037.053-.066.075-.104l.139-.242c.021-.037.032-.077.052-.114A25.843 25.843 0 0 0 52 26zm-2 0c0 3.095-.595 6.051-1.667 8.77a3.755 3.755 0 0 0-1.264-1.066l-16.131-8.317A4.968 4.968 0 0 0 29 22.026l.863-18.123a3.744 3.744 0 0 0-.298-1.636C41.114 3.994 50 13.978 50 26zm-3.356 12.22a1.699 1.699 0 0 1-1.016.727 1.714 1.714 0 0 1-1.341-.234l-14.481-9.307 1.046-1.813 15.299 7.888c.434.224.746.595.878 1.043.12.41.071.845-.126 1.243-.084.152-.17.304-.259.453zm-38.932.492c-.411.265-.889.35-1.342.238a1.7 1.7 0 0 1-1.016-.732c-.089-.15-.175-.301-.261-.453a1.706 1.706 0 0 1-.121-1.24c.132-.451.443-.821.875-1.044l15.299-7.888 1.046 1.813-14.48 9.306zM23 26c0-1.654 1.346-3 3-3s3 1.346 3 3-1.346 3-3 3-3-1.346-3-3zm1.954-5-.819-17.193a1.719 1.719 0 0 1 .465-1.282c.311-.326.74-.507 1.209-.52.064-.001.127-.005.191-.005s.127.004.19.005a1.71 1.71 0 0 1 1.208.523c.324.34.49.794.467 1.279L27.046 21h-2.092zM22.432 2.266a3.738 3.738 0 0 0-.295 1.635v.001L23 22.026a4.973 4.973 0 0 0-1.938 3.361L4.931 33.704c-.51.263-.931.632-1.263 1.069A23.87 23.87 0 0 1 2 26C2 13.979 10.885 3.995 22.432 2.266zM26 50c-7.578 0-14.342-3.534-18.744-9.036a3.77 3.77 0 0 0 1.537-.568v-.001l15.246-9.797a4.989 4.989 0 0 0 3.922-.001l15.246 9.797c.477.307 1 .495 1.539.567C40.344 46.465 33.579 50 26 50z" fill="#ffffff" opacity="1" data-original="#000000" class=""></path></g></svg>