<?xml version="1.0" encoding="UTF-8"?>
<!-- Generated by Pixelmator Pro 3.4.3 -->
<svg width="854" height="824" viewBox="0 0 854 824" xmlns="http://www.w3.org/2000/svg">
    <g id="server-copy" opacity="0.749116">
        <path id="Path" fill="none" stroke="#ffffff" stroke-width="6" d="M 650 60 L 650 83 L 627 83 L 627 60 L 650 60 Z"/>
        <path id="path1" fill="none" stroke="#ffffff" stroke-width="6" d="M 650 174 L 650 197 L 627 197 L 627 174 L 650 174 Z"/>
        <path id="Oval" fill="none" stroke="#ffffff" stroke-width="6" d="M 126 128.5 C 126 134.851257 120.851273 140 114.5 140 C 108.148727 140 103 134.851257 103 128.5 C 103 122.148743 108.148727 117 114.5 117 C 120.851273 117 126 122.148743 126 128.5 Z"/>
        <path id="path2" fill="none" stroke="#ffffff" stroke-width="6" d="M 183 128.5 C 183 134.851257 177.851257 140 171.5 140 C 165.148727 140 160 134.851257 160 128.5 C 160 122.148743 165.148727 117 171.5 117 C 177.851257 117 183 122.148743 183 128.5 Z"/>
        <path id="path3" fill="none" stroke="#ffffff" stroke-width="6" d="M 423 117 L 423 140 L 245 140 L 245 117 L 423 117 Z"/>
        <path id="path4" fill="none" stroke="#ffffff" stroke-width="6" d="M 650 343 L 650 366 L 627 366 L 627 343 L 650 343 Z"/>
        <path id="path5" fill="none" stroke="#ffffff" stroke-width="6" d="M 650 458 L 650 481 L 627 481 L 627 458 L 650 458 Z"/>
        <path id="path6" fill="none" stroke="#ffffff" stroke-width="6" d="M 126 411.5 C 126 417.851288 120.851273 423 114.5 423 C 108.148727 423 103 417.851288 103 411.5 C 103 405.148682 108.148727 400 114.5 400 C 120.851273 400 126 405.148682 126 411.5 Z"/>
        <path id="path7" fill="none" stroke="#ffffff" stroke-width="6" d="M 183 411.5 C 183 417.851288 177.851257 423 171.5 423 C 165.148727 423 160 417.851288 160 411.5 C 160 405.148682 165.148727 400 171.5 400 C 177.851257 400 183 405.148682 183 411.5 Z"/>
        <path id="path8" fill="none" stroke="#ffffff" stroke-width="6" d="M 423 400 L 423 423 L 245 423 L 245 400 L 423 400 Z"/>
        <path id="Shape" fill="none" stroke="#ffffff" stroke-width="6" d="M 14.216667 3 L 14.216667 3 L 838.783325 3 C 841.758423 3 844.611816 4.180725 846.715576 6.28302 C 848.737671 8.303711 849.907776 11.016724 849.994751 13.864563 L 850 14.206909 L 850 241.517212 C 850 244.489258 848.818542 247.3396 846.715576 249.441101 C 844.692749 251.462524 841.976868 252.632019 839.126038 252.718933 L 838.783325 252.724121 L 750.483337 252.724121 L 750.483337 287.137939 L 838.783447 287.137939 C 841.758484 287.137817 844.611816 288.318726 846.715576 290.420959 C 848.737671 292.44165 849.907776 295.154663 849.994751 298.002441 L 850 298.344849 L 850 525.655151 C 850 528.627197 848.818542 531.477478 846.715576 533.579041 C 844.692749 535.600464 841.976868 536.769958 839.126038 536.856873 L 838.783325 536.862061 L 750.483337 536.862061 L 750.483337 571.275879 L 838.783447 571.275879 C 841.758484 571.275757 844.611816 572.456604 846.715576 574.558899 C 848.737671 576.57959 849.907776 579.292542 849.994751 582.140381 L 850 582.482788 L 850 809.793091 C 850 812.765137 848.818542 815.615417 846.715576 817.71698 C 844.692749 819.738403 841.976807 820.907837 839.126038 820.994751 L 838.783325 821 L 14.216667 821 C 11.24157 821 8.388191 819.819275 6.284439 817.71698 C 4.262344 815.696289 3.092247 812.983276 3.005226 810.135437 L 3 809.793091 L 3 582.482788 C 3 579.510681 4.181458 576.6604 6.284439 574.558899 C 8.307251 572.537476 11.023125 571.367981 13.873955 571.281067 L 14.216667 571.275879 L 88.300003 571.275879 L 88.300003 536.862061 L 14.216583 536.862061 C 11.241508 536.862183 8.388168 535.681335 6.284439 533.579041 C 4.262344 531.55835 3.092247 528.845398 3.005226 525.997498 L 3 525.655151 L 3 298.344849 C 3 295.372803 4.181458 292.522461 6.284439 290.420959 C 8.307251 288.399536 11.023125 287.230042 13.873955 287.143188 L 14.216667 287.137939 L 88.300003 287.137939 L 88.300003 252.724121 L 14.216583 252.724121 C 11.241508 252.724243 8.388168 251.543396 6.284439 249.441101 C 4.262344 247.42041 3.092247 244.707458 3.005226 241.859619 L 3 241.517212 L 3 14.206909 C 3 11.234863 4.181458 8.384583 6.284439 6.28302 C 8.388191 4.180725 11.24157 3 14.216667 3 Z M 826.586182 593.601563 L 25.134933 593.601563 L 25.134933 628.07196 L 593.314392 628.07196 L 593.314392 650.542419 L 25.134933 650.542419 L 25.134933 741.953735 L 593.314392 741.953735 L 593.314392 764.424133 L 25.134933 764.424133 L 25.134933 798.894592 L 826.586182 798.894592 L 826.586182 764.424133 L 684.541321 764.424133 L 684.541321 741.953735 L 826.586182 741.953735 L 826.586182 650.542419 L 684.541321 650.542419 L 684.541321 628.07196 L 826.586182 628.07196 L 826.586182 593.601563 Z M 728.113953 537.390686 L 693.979004 537.390686 L 693.979004 571.496094 L 728.113953 571.496094 L 728.113953 537.390686 Z M 670.565247 537.390686 L 167.088455 537.390686 L 167.088455 571.496094 L 670.565247 571.496094 L 670.565247 537.390686 Z M 144.953522 537.390686 L 110.818588 537.390686 L 110.818588 571.496094 L 144.953522 571.496094 L 144.953522 537.390686 Z M 826.586182 308.714722 L 25.134933 308.714722 L 25.134933 343.185181 L 593.314392 343.185181 L 593.314392 365.655579 L 25.134933 365.655579 L 25.134933 457.066895 L 593.314392 457.066895 L 593.314392 479.537323 L 25.134933 479.537323 L 25.134933 514.007751 L 826.586182 514.007751 L 826.586182 479.537323 L 684.541321 479.537323 L 684.541321 457.066895 L 826.586182 457.066895 L 826.586182 365.655579 L 684.541321 365.655579 L 684.541321 343.185181 L 826.586182 343.185181 L 826.586182 308.714722 Z M 728.113953 252.503906 L 693.979004 252.503906 L 693.979004 286.609314 L 728.113953 286.609314 L 728.113953 252.503906 Z M 670.565247 252.503906 L 167.088455 252.503906 L 167.088455 286.609314 L 670.565247 286.609314 L 670.565247 252.503906 Z M 144.953522 252.503906 L 110.818588 252.503906 L 110.818588 286.609314 L 144.953522 286.609314 L 144.953522 252.503906 Z M 826.586182 25.105408 L 25.134933 25.105408 L 25.134933 59.575867 L 593.314392 59.575867 L 593.314392 82.046265 L 25.134933 82.046265 L 25.134933 173.457581 L 593.314392 173.457581 L 593.314392 195.92804 L 25.134933 195.92804 L 25.134933 230.398438 L 826.586182 230.398438 L 826.586182 195.92804 L 684.541321 195.92804 L 684.541321 173.457581 L 826.586182 173.457581 L 826.586182 82.046265 L 684.541321 82.046265 L 684.541321 59.575867 L 826.586182 59.575867 L 826.586182 25.105408 Z"/>
        <path id="path9" fill="none" stroke="#ffffff" stroke-width="6" d="M 650 627 L 650 650 L 627 650 L 627 627 L 650 627 Z"/>
        <path id="path10" fill="none" stroke="#ffffff" stroke-width="6" d="M 650 741 L 650 764 L 627 764 L 627 741 L 650 741 Z"/>
        <path id="path11" fill="none" stroke="#ffffff" stroke-width="6" d="M 126 695.5 C 126 701.851257 120.851273 707 114.5 707 C 108.148727 707 103 701.851257 103 695.5 C 103 689.148743 108.148727 684 114.5 684 C 120.851273 684 126 689.148743 126 695.5 Z"/>
        <path id="path12" fill="none" stroke="#ffffff" stroke-width="6" d="M 183 695.5 C 183 701.851257 177.851257 707 171.5 707 C 165.148727 707 160 701.851257 160 695.5 C 160 689.148743 165.148727 684 171.5 684 C 177.851257 684 183 689.148743 183 695.5 Z"/>
        <path id="path13" fill="none" stroke="#ffffff" stroke-width="6" d="M 423 684 L 423 707 L 245 707 L 245 684 L 423 684 Z"/>
    </g>
    <g id="Group">
        <radialGradient id="radialGradient1" cx="445.510417" cy="379.71875" r="102.114897" fx="445.510417" fy="379.71875" gradientUnits="userSpaceOnUse">
            <stop offset="0" stop-color="#eef7ff" stop-opacity="1"/>
            <stop offset="1" stop-color="#8ac0f2" stop-opacity="1"/>
        </radialGradient>
        <path id="path14" fill="url(#radialGradient1)" stroke="#3c3a41" stroke-width="13" d="M 653 164 C 653 177.455017 631.419006 159.117004 637.438049 170.179993 L 509.66098 297.95697 C 492.04599 284.242004 469.997986 276 446 276 C 422.001984 276 399.95401 284.242004 382.325989 297.94397 L 282.628998 198.247009 C 287.204987 190.512024 290 181.619995 290 172 C 290 143.32196 266.678009 120 238 120 C 209.321991 120 186 143.32196 186 172 C 186 200.67804 209.321991 224 238 224 C 247.619995 224 256.511993 221.205017 264.247009 216.628967 L 363.944 316.325958 C 350.242004 333.953979 342 356.002014 342 380 C 342 403.997986 350.242004 426.04599 363.944 443.66098 L 199.312012 608.30603 C 185.45401 595.734985 167.136993 588 147 588 C 103.983002 588 69 622.983032 69 666 C 69 709.016968 103.983002 744 147 744 C 190.016998 744 225 709.016968 225 666 C 225 652.545044 221.580994 639.883057 215.562012 628.819946 L 382.33902 462.042999 C 396.71701 473.223022 414.05899 480.711029 433.013 483.089996 L 433.013 615.170044 C 396.18399 621.384033 427 650.416016 427 689 C 427 732.016968 411.983002 725 455 725 C 498.016998 725 470 732.016968 470 689 C 470 650.429016 495.84198 621.396973 459.013 615.170044 L 459.013 483.089996 C 477.96698 480.711029 495.309052 473.223022 509.68692 462.042999 L 609.384033 561.73999 C 604.794983 569.488037 602 578.380005 602 588 C 602 616.677979 631 617.677979 631 589 C 631 560.322021 635.487976 538.795044 627.752991 543.370972 L 528.05603 443.674011 C 541.757996 426.04599 550 403.997986 550 380 C 550 356.002014 541.757996 333.953979 528.05603 316.33902 L 653.700989 190.69397 C 667.546021 203.264954 667.862976 164 688 164 C 731.016968 164 653 120.983032 653 164 Z"/>
        <g id="image-bg">
            <g id="g1">
                <path id="path15" fill="#ffffff" stroke="#3c3a41" stroke-width="10" d="M 110.337891 231.404297 C 98.874809 231.404297 89.623047 222.152832 89.623047 210.693359 L 89.623047 169.271484 C 89.623047 166.648132 91.002388 164.854431 92.521484 162.369141 L 93.0625 162.369141 L 132.669922 96.646484 C 133.913956 94.575012 136.13324 93.333984 138.625 93.333984 L 206.607422 93.333984 L 276.310547 93.333984 L 278.029297 93.333984 C 280.521057 93.333984 282.740326 94.575012 283.984375 96.646484 L 323.591797 162.369141 L 322.748047 162.908203 C 324.127991 165.120117 325.3125 166.844238 325.3125 169.271484 L 325.3125 210.693359 C 325.3125 222.152832 316.060822 231.404297 304.597656 231.404297 L 303.027344 231.404297 L 206.607422 231.404297 L 110.337891 231.404297 Z"/>
            </g>
            <g id="g2">
                <path id="path16" fill="#ffffff" stroke="#3c3a41" stroke-width="10" d="M 55.085938 762.091797 C 39.370396 762.091797 26.685547 749.409668 26.685547 733.699219 L 26.685547 676.912109 C 26.685547 673.315552 28.579491 670.854492 30.662109 667.447266 L 31.402344 667.447266 L 85.703125 577.34375 C 87.408661 574.503784 90.449112 572.800781 93.865234 572.800781 L 187.068359 572.800781 L 282.628906 572.800781 L 284.986328 572.800781 C 288.402466 572.800781 291.442902 574.503784 293.148438 577.34375 L 347.449219 667.447266 L 346.292969 668.1875 C 348.18457 671.219421 349.808594 673.584778 349.808594 676.912109 L 349.808594 733.699219 C 349.808594 749.409668 337.123688 762.091797 321.408203 762.091797 L 319.257813 762.091797 L 187.068359 762.091797 L 55.085938 762.091797 Z"/>
            </g>
            <g id="g3">
                <path id="path17" fill="#ffffff" stroke="#3c3a41" stroke-width="10" d="M 575.222656 219.837891 C 560.623901 219.837891 548.841797 208.056824 548.841797 193.462891 L 548.841797 140.710938 C 548.841797 137.370056 550.600586 135.085022 552.535156 131.919922 L 553.224609 131.919922 L 603.666016 48.220703 C 605.250305 45.582581 608.074707 44 611.248047 44 L 697.826172 44 L 786.59375 44 L 788.785156 44 C 791.958496 44 794.782837 45.582581 796.367188 48.220703 L 846.808594 131.919922 L 845.734375 132.607422 C 847.491577 135.424011 849 137.619995 849 140.710938 L 849 193.462891 C 849 208.056824 837.217834 219.837891 822.619141 219.837891 L 820.621094 219.837891 L 697.826172 219.837891 L 575.222656 219.837891 Z"/>
            </g>
            <g id="g4">
                <path id="path18" fill="#ffffff" stroke="#3c3a41" stroke-width="6.308722" d="M 583.056641 632.681641 C 574.794556 632.681641 568.126953 626.013306 568.126953 617.753906 L 568.126953 587.898438 C 568.126953 586.00769 569.121887 584.715088 570.216797 582.923828 L 570.605469 582.923828 L 599.152344 535.554688 C 600.049011 534.061584 601.649414 533.166016 603.445313 533.166016 L 652.443359 533.166016 L 702.681641 533.166016 L 703.921875 533.166016 C 705.717834 533.166016 707.316223 534.061584 708.212891 535.554688 L 736.759766 582.923828 L 736.152344 583.3125 C 737.144287 584.901917 738 586.152649 738 587.898438 L 738 617.753906 C 738 626.013306 731.332397 632.681641 723.070313 632.681641 L 721.939453 632.681641 L 652.443359 632.681641 L 583.056641 632.681641 Z"/>
            </g>
            <g id="g5">
                <path id="path19" fill="#ffffff" stroke="#3c3a41" stroke-width="10" d="M 362.113281 778.134766 C 347.229675 778.134766 335.21875 766.122864 335.21875 751.244141 L 335.21875 697.462891 C 335.21875 694.056763 337.01004 691.726868 338.982422 688.5 L 339.685547 688.5 L 391.111328 603.167969 C 392.726563 600.478271 395.606506 598.865234 398.841797 598.865234 L 487.109375 598.865234 L 577.609375 598.865234 L 579.84375 598.865234 C 583.078979 598.865234 585.958984 600.478271 587.574219 603.167969 L 639 688.5 L 637.904297 689.201172 C 639.695923 692.072937 641.234375 694.311462 641.234375 697.462891 L 641.234375 751.244141 C 641.234375 766.122864 629.221497 778.134766 614.337891 778.134766 L 612.300781 778.134766 L 487.109375 778.134766 L 362.113281 778.134766 Z"/>
            </g>
        </g>
        <g id="images-fg">
            <g id="Group-2-copy">
                <path id="path20" fill="#3c3a41" stroke="none" d="M 276.374481 104.976013 C 275.257233 103.115601 273.265259 102 271.027435 102 L 145.828751 102 C 143.590927 102 141.598938 103.115601 140.481689 104.976013 L 104.910759 164 L 120.083427 176.400024 L 292.542938 176.400024 L 311.945404 164 L 276.374481 104.976013 Z"/>
                <path id="path21" fill="#2b292c" stroke="none" d="M 310.40036 164 L 290.997894 176.400024 L 206.883041 176.400024 L 206.883041 102 L 269.482361 102 C 271.720184 102 273.712189 103.115601 274.829437 104.976013 L 310.40036 164 Z"/>
                <path id="path22" fill="#57555c" stroke="none" d="M 310.886322 164 L 104.424812 164 C 103.060532 166.231995 101.820694 167.843994 101.820694 170.200012 L 101.820694 207.400024 C 101.820694 217.691589 110.129555 226 120.424477 226 L 294.886658 226 C 305.18158 226 313.490448 217.691589 313.490448 207.400024 L 313.490448 170.200012 C 313.490448 167.843994 312.25061 166.231995 310.886322 164 Z"/>
                <path id="path23" fill="#3c3a41" stroke="none" d="M 311.945404 170.200012 L 311.945404 207.400024 C 311.945404 217.691589 303.697174 226 293.477417 226 L 206.883041 226 L 206.883041 164 L 309.360291 164 C 310.7146 166.231995 311.945404 167.843994 311.945404 170.200012 Z"/>
                <path id="path24" fill="#1bd9de" stroke="none" d="M 288.769867 193.450012 C 288.769867 196.874146 286.00293 199.650024 282.589752 199.650024 C 279.176544 199.650024 276.409607 196.874146 276.409607 193.450012 C 276.409607 190.025818 279.176544 187.25 282.589752 187.25 C 286.00293 187.25 288.769867 190.025818 288.769867 193.450012 Z"/>
                <path id="path25" fill="#a4d9f5" stroke="none" d="M 194.428879 199.650024 L 131.270248 199.650024 C 127.802376 199.650024 124.996208 196.876953 124.996208 193.450012 C 124.996208 190.023071 127.802376 187.25 131.270248 187.25 L 194.428879 187.25 C 197.896744 187.25 200.702911 190.023071 200.702911 193.450012 C 200.702911 196.876953 197.896744 199.650024 194.428879 199.650024 Z"/>
            </g>
            <g id="Group-2-copy-2">
                <path id="path26" fill="#3c3a41" stroke="none" d="M 284.605652 586.080017 C 283.073914 583.529419 280.342987 582 277.275024 582 L 105.631676 582 C 102.56369 582 99.832741 583.529419 98.301025 586.080017 L 49.534428 667 L 70.33567 684 L 306.772064 684 L 333.372253 667 L 284.605652 586.080017 Z"/>
                <path id="path27" fill="#2b292c" stroke="none" d="M 331.254059 667 L 304.6539 684 L 189.335144 684 L 189.335144 582 L 275.156799 582 C 278.224792 582 280.95575 583.529419 282.487457 586.080017 L 331.254059 667 Z"/>
                <path id="path28" fill="#57555c" stroke="none" d="M 331.920288 667 L 48.868206 667 C 46.997822 670.059998 45.298042 672.27002 45.298042 675.5 L 45.298042 726.5 C 45.298042 740.609436 56.689228 752 70.803238 752 L 309.98526 752 C 324.099274 752 335.490448 740.609436 335.490448 726.5 L 335.490448 675.5 C 335.490448 672.27002 333.790649 670.059998 331.920288 667 Z"/>
                <path id="path29" fill="#3c3a41" stroke="none" d="M 333.372253 675.5 L 333.372253 726.5 C 333.372253 740.609436 322.064209 752 308.053223 752 L 189.335144 752 L 189.335144 667 L 329.828156 667 C 331.684875 670.059998 333.372253 672.27002 333.372253 675.5 Z"/>
                <path id="path30" fill="#1bd9de" stroke="none" d="M 301.599365 707.375 C 301.599365 712.069458 297.805969 715.875 293.126587 715.875 C 288.447205 715.875 284.653809 712.069458 284.653809 707.375 C 284.653809 702.680603 288.447205 698.875 293.126587 698.875 C 297.805969 698.875 301.599365 702.680603 301.599365 707.375 Z"/>
                <path id="path31" fill="#a4d9f5" stroke="none" d="M 172.26088 715.875 L 85.672424 715.875 C 80.918098 715.875 77.07093 712.073242 77.07093 707.375 C 77.07093 702.676758 80.918098 698.875 85.672424 698.875 L 172.26088 698.875 C 177.015213 698.875 180.862381 702.676758 180.862381 707.375 C 180.862381 712.073242 177.015213 715.875 172.26088 715.875 Z"/>
            </g>
            <g id="Group-2-copy-3">
                <path id="path32" fill="#3c3a41" stroke="none" d="M 787.731567 58.790039 C 786.308716 56.420715 783.771851 55 780.921936 55 L 621.477234 55 C 618.627319 55 616.090454 56.420715 614.667603 58.790039 L 569.366821 133.959045 L 588.689697 149.750916 L 808.322632 149.750916 L 833.032349 133.959045 L 787.731567 58.790039 Z"/>
                <path id="path33" fill="#2b292c" stroke="none" d="M 831.064697 133.959045 L 806.35498 149.750916 L 699.231934 149.750916 L 699.231934 55 L 778.954285 55 C 781.804199 55 784.341064 56.420715 785.763916 58.790039 L 831.064697 133.959045 Z"/>
                <path id="path34" fill="#57555c" stroke="none" d="M 831.683594 133.959045 L 568.747925 133.959045 C 567.010498 136.801575 565.431519 138.854553 565.431519 141.85498 L 565.431519 189.230408 C 565.431519 202.337097 576.013123 212.918152 589.124023 212.918152 L 811.307495 212.918152 C 824.418396 212.918152 835 202.337097 835 189.230408 L 835 141.85498 C 835 138.854553 833.421021 136.801575 831.683594 133.959045 Z"/>
                <path id="path35" fill="#3c3a41" stroke="none" d="M 833.032349 141.85498 L 833.032349 189.230408 C 833.032349 202.337097 822.527954 212.918152 809.512756 212.918152 L 699.231934 212.918152 L 699.231934 133.959045 L 829.740112 133.959045 C 831.464905 136.801575 833.032349 138.854553 833.032349 141.85498 Z"/>
                <path id="path36" fill="#1bd9de" stroke="none" d="M 803.517578 171.4646 C 803.517578 175.825439 799.993774 179.360535 795.646973 179.360535 C 791.30011 179.360535 787.776306 175.825439 787.776306 171.4646 C 787.776306 167.103821 791.30011 163.568726 795.646973 163.568726 C 799.993774 163.568726 803.517578 167.103821 803.517578 171.4646 Z"/>
                <path id="path37" fill="#a4d9f5" stroke="none" d="M 683.371155 179.360535 L 602.936523 179.360535 C 598.520081 179.360535 594.946289 175.828979 594.946289 171.4646 C 594.946289 167.100281 598.520081 163.568726 602.936523 163.568726 L 683.371155 163.568726 C 687.787598 163.568726 691.361328 167.100281 691.361328 171.4646 C 691.361328 175.828979 687.787598 179.360535 683.371155 179.360535 Z"/>
            </g>
            <g id="Group-2-copy-4">
                <path id="path38" fill="#3c3a41" stroke="none" d="M 699.709778 542.040039 C 698.943909 540.764709 697.57843 540 696.044434 540 L 610.222778 540 C 608.688782 540 607.323303 540.764709 606.557434 542.040039 L 582.174133 582.5 L 592.574768 591 L 710.792969 591 L 724.093079 582.5 L 699.709778 542.040039 Z"/>
                <path id="path39" fill="#2b292c" stroke="none" d="M 723.033997 582.5 L 709.733887 591 L 652.074524 591 L 652.074524 540 L 694.985352 540 C 696.519348 540 697.884827 540.764709 698.650635 542.040039 L 723.033997 582.5 Z"/>
                <path id="path40" fill="#57555c" stroke="none" d="M 723.367065 582.5 L 581.841064 582.5 C 580.905823 584.030029 580.055969 585.13501 580.055969 586.75 L 580.055969 612.25 C 580.055969 619.304688 585.751526 625 592.808533 625 L 712.399536 625 C 719.456543 625 725.152161 619.304688 725.152161 612.25 L 725.152161 586.75 C 725.152161 585.13501 724.302246 584.030029 723.367065 582.5 Z"/>
                <path id="path41" fill="#3c3a41" stroke="none" d="M 724.093079 586.75 L 724.093079 612.25 C 724.093079 619.304688 718.439026 625 711.433533 625 L 652.074524 625 L 652.074524 582.5 L 722.320984 582.5 C 723.24939 584.030029 724.093079 585.13501 724.093079 586.75 Z"/>
                <path id="path42" fill="#1bd9de" stroke="none" d="M 708.206604 602.6875 C 708.206604 605.034729 706.309937 606.9375 703.970215 606.9375 C 701.630554 606.9375 699.733826 605.034729 699.733826 602.6875 C 699.733826 600.340271 701.630554 598.4375 703.970215 598.4375 C 706.309937 598.4375 708.206604 600.340271 708.206604 602.6875 Z"/>
                <path id="path43" fill="#a4d9f5" stroke="none" d="M 643.537354 606.9375 L 600.243164 606.9375 C 597.865967 606.9375 595.942383 605.036621 595.942383 602.6875 C 595.942383 600.338379 597.865967 598.4375 600.243164 598.4375 L 643.537354 598.4375 C 645.914551 598.4375 647.838135 600.338379 647.838135 602.6875 C 647.838135 605.036621 645.914551 606.9375 643.537354 606.9375 Z"/>
            </g>
            <g id="Group-2-copy-5">
                <path id="path44" fill="#3c3a41" stroke="none" d="M 575.069885 612.864014 C 573.619263 610.448486 571.032898 609 568.127319 609 L 405.571014 609 C 402.665436 609 400.079071 610.448486 398.628448 612.864014 L 352.443604 689.5 L 372.143616 705.599976 L 596.062805 705.599976 L 621.2547 689.5 L 575.069885 612.864014 Z"/>
                <path id="path45" fill="#2b292c" stroke="none" d="M 619.248657 689.5 L 594.056763 705.599976 L 484.843109 705.599976 L 484.843109 609 L 566.121277 609 C 569.026855 609 571.61322 610.448486 573.063843 612.864014 L 619.248657 689.5 Z"/>
                <path id="path46" fill="#57555c" stroke="none" d="M 619.879639 689.5 L 351.812653 689.5 C 350.04129 692.39801 348.431519 694.490967 348.431519 697.549988 L 348.431519 745.849976 C 348.431519 759.212463 359.219635 770 372.586426 770 L 599.105896 770 C 612.472656 770 623.260742 759.212463 623.260742 745.849976 L 623.260742 697.549988 C 623.260742 694.490967 621.651001 692.39801 619.879639 689.5 Z"/>
                <path id="path47" fill="#3c3a41" stroke="none" d="M 621.2547 697.549988 L 621.2547 745.849976 C 621.2547 759.212463 610.545349 770 597.276123 770 L 484.843109 770 L 484.843109 689.5 L 617.898254 689.5 C 619.656677 692.39801 621.2547 694.490967 621.2547 697.549988 Z"/>
                <path id="path48" fill="#1bd9de" stroke="none" d="M 591.16394 727.737488 C 591.16394 732.183411 587.57135 735.787476 583.139709 735.787476 C 578.708069 735.787476 575.115479 732.183411 575.115479 727.737488 C 575.115479 723.291626 578.708069 719.6875 583.139709 719.6875 C 587.57135 719.6875 591.16394 723.291626 591.16394 727.737488 Z"/>
                <path id="path49" fill="#a4d9f5" stroke="none" d="M 468.672791 735.787476 L 386.668427 735.787476 C 382.165802 735.787476 378.522308 732.187012 378.522308 727.737488 C 378.522308 723.288025 382.165802 719.6875 386.668427 719.6875 L 468.672791 719.6875 C 473.175415 719.6875 476.818909 723.288025 476.818909 727.737488 C 476.818909 732.187012 473.175415 735.787476 468.672791 735.787476 Z"/>
            </g>
        </g>
    </g>
</svg>
