<?xml version="1.0" encoding="UTF-8"?>
<!-- Generated by Pixelmator Pro 3.4.3 -->
<svg width="736" height="810" viewBox="0 0 736 810" xmlns="http://www.w3.org/2000/svg">
    <g id="image">
        <path id="Path" fill="#3c3a41" stroke="none" d="M 607.028809 389.341064 C 603.146484 382.876465 596.224731 379 588.448669 379 L 153.405869 379 C 145.629837 379 138.708084 382.876465 134.825851 389.341064 L 11.223308 594.438843 L 63.945595 637.52655 L 663.211182 637.52655 L 730.631348 594.438843 L 607.028809 389.341064 Z"/>
        <path id="path1" fill="#2b292c" stroke="none" d="M 725.262634 594.438843 L 657.842529 637.52655 L 365.558624 637.52655 L 365.558624 379 L 583.079956 379 C 590.855957 379 597.777832 382.876465 601.660034 389.341064 L 725.262634 594.438843 Z"/>
        <path id="path2" fill="#57555c" stroke="none" d="M 726.951233 594.438843 L 9.534678 594.438843 C 4.794022 602.19458 0.485809 607.796021 0.485809 615.982666 L 0.485809 745.245972 C 0.485809 781.007446 29.35763 809.877625 65.13063 809.877625 L 671.355286 809.877625 C 707.128296 809.877625 736 781.007446 736 745.245972 L 736 615.982666 C 736 607.796021 731.691772 602.19458 726.951233 594.438843 Z"/>
        <path id="path3" fill="#3c3a41" stroke="none" d="M 730.631348 615.982666 L 730.631348 745.245972 C 730.631348 781.007446 701.970215 809.877625 666.458435 809.877625 L 365.558624 809.877625 L 365.558624 594.438843 L 721.64856 594.438843 C 726.354553 602.19458 730.631348 607.796021 730.631348 615.982666 Z"/>
        <path id="Oval" fill="#1bd9de" stroke="none" d="M 650.100525 696.772278 C 650.100525 708.670654 640.485962 718.316162 628.625732 718.316162 C 616.765503 718.316162 607.150879 708.670654 607.150879 696.772278 C 607.150879 684.873901 616.765503 675.228394 628.625732 675.228394 C 640.485962 675.228394 650.100525 684.873901 650.100525 696.772278 Z"/>
        <path id="path4" fill="#a4d9f5" stroke="none" d="M 322.282562 718.316162 L 102.817703 718.316162 C 90.767494 718.316162 81.016624 708.680298 81.016624 696.772278 C 81.016624 684.864258 90.767494 675.228394 102.817703 675.228394 L 322.282562 675.228394 C 334.332764 675.228394 344.08374 684.864258 344.08374 696.772278 C 344.08374 708.680298 334.332764 718.316162 322.282562 718.316162 Z"/>
    </g>
    <g id="california" style="isolation:isolate">
        <linearGradient id="linearGradient1" x1="378" y1="-45" x2="378" y2="203" gradientUnits="userSpaceOnUse">
            <stop offset="1e-05" stop-color="#8ce1ff" stop-opacity="1"/>
            <stop offset="0.6802" stop-color="#ffda8f" stop-opacity="1"/>
            <stop offset="1" stop-color="#fffcba" stop-opacity="1"/>
        </linearGradient>
        <path id="path5" fill="url(#linearGradient1)" stroke="none" d="M 634 256 C 634 397.384888 519.384888 512 378 512 C 236.615112 512 122 397.384888 122 256 C 122 114.615112 236.615112 0 378 0 C 519.384888 0 634 114.615112 634 256 Z"/>
        <path id="path6" fill="#ffffff" stroke="none" d="M 473 202 C 473 251.705627 432.705627 292 383 292 C 333.294373 292 293 251.705627 293 202 C 293 152.294373 333.294373 112 383 112 C 432.705627 112 473 152.294373 473 202 Z"/>
        <linearGradient id="linearGradient2" x1="231.17" y1="120" x2="231.17" y2="252.544" gradientUnits="userSpaceOnUse">
            <stop offset="0.2553" stop-color="#ffffff" stop-opacity="1"/>
            <stop offset="1" stop-color="#fffb7a" stop-opacity="1"/>
        </linearGradient>
        <path id="path7" fill="url(#linearGradient2)" stroke="none" d="M 249 324 L 320 324 L 320 298.20459 C 332.861237 289.778992 340.530792 275.370422 340.337921 259.996277 C 340.079102 236.214966 321.047913 216.409668 297.280304 215.549316 C 288.819824 215.229065 280.444763 217.340149 273.147003 221.632568 C 274.573883 216.120728 274.95575 210.390442 274.272919 204.737976 C 271.717285 183.589172 254.650604 167.148438 233.421097 165.384521 C 222.365341 164.49884 211.378815 167.786194 202.626511 174.598816 C 203.575546 170.093384 203.833862 165.469788 203.392609 160.886719 C 201.257202 138.850586 183.400833 121.646851 161.300507 120.333008 C 161.164108 120.325684 161.029297 120.327393 160.893097 120.321472 C 120.850159 184.479187 111.170372 263.041138 134.442093 335 L 249 335 Z"/>
        <linearGradient id="linearGradient3" x1="528.279" y1="102" x2="528.279" y2="234.544" gradientUnits="userSpaceOnUse">
            <stop offset="0.2553" stop-color="#ffffff" stop-opacity="1"/>
            <stop offset="1" stop-color="#fffb7a" stop-opacity="1"/>
        </linearGradient>
        <path id="path8" fill="url(#linearGradient3)" stroke="none" d="M 585.459961 106.009277 C 566.783386 114.90918 556.651611 135.459839 560.964783 155.69397 C 545.776672 143.931641 524.7854 143.143738 508.75827 153.734375 C 492.73111 164.325073 485.224731 183.944153 490.089386 202.528198 C 469.079254 190.178833 442.051819 196.881104 429.245972 217.616211 C 416.440155 238.351318 422.549866 265.51886 443 278.775024 L 443 304 L 514 304 L 514 315 L 627.155273 315 C 644.229431 242.586304 629.015076 166.326965 585.459961 106.009277 Z"/>
        <linearGradient id="linearGradient4" x1="378.025" y1="285.872" x2="378.025" y2="167.535" gradientUnits="userSpaceOnUse">
            <stop offset="1e-05" stop-color="#74924d" stop-opacity="1"/>
            <stop offset="0.7357" stop-color="#e6df83" stop-opacity="1"/>
        </linearGradient>
        <path id="path9" fill="url(#linearGradient4)" stroke="none" d="M 533.747131 179.633484 C 522.856689 171.881104 508.537842 170.89325 496.686005 177.076782 L 392.279114 231.549988 C 383.403076 236.18103 372.761932 235.885437 364.156708 230.768799 L 284.190002 183.220764 C 273.602722 176.925659 260.41394 176.951904 249.851807 183.289185 L 122.050003 259.969971 C 122.142532 266.033447 122.442833 272.043457 122.950897 278 L 633.049133 278 C 633.666504 270.746887 634 263.412781 634 256 C 634 254.31311 633.968811 252.633667 633.936035 250.95459 Z"/>
        <linearGradient id="linearGradient5" x1="378" y1="198.045" x2="378" y2="318.195" gradientUnits="userSpaceOnUse">
            <stop offset="1e-05" stop-color="#cacc58" stop-opacity="1"/>
            <stop offset="0.5025" stop-color="#89b73b" stop-opacity="1"/>
            <stop offset="1" stop-color="#527d37" stop-opacity="1"/>
        </linearGradient>
        <path id="path10" fill="url(#linearGradient5)" stroke="none" d="M 634 256 C 634.005371 239.004761 632.326111 222.050903 628.986816 205.386963 C 623.953369 205.640503 619.01355 206.845459 614.428711 208.937988 L 517.824524 253.056519 C 510.938568 256.201233 503.037323 256.255127 496.1091 253.204712 L 405.342804 213.23999 C 394.914215 208.648315 383.052063 208.568726 372.562805 213.02002 L 287.575012 249.087769 C 280.200439 252.217346 271.849976 252.102844 264.563995 248.772217 L 189.877411 214.630005 C 177.940231 209.173096 164.174438 209.413147 152.434799 215.28302 L 123.32 229.839966 C 121.491997 247.85083 121.562378 266.003906 123.529999 284 L 632.470032 284 C 633.485657 274.701172 633.996399 265.354126 634 256 Z"/>
        <path id="path11" fill="#a2c45a" stroke="none" d="M 631.608215 291 L 124.3918 291 C 136.582306 380.150909 194.660004 454.679413 274.050812 490 L 481.949188 490 C 561.340027 454.679413 619.417725 380.150909 631.608215 291 Z"/>
        <path id="path12" fill="#b7de66" stroke="none" d="M 123.529999 284 C 123.968536 288.02832 124.497665 292.02832 125.117401 296 L 630.882324 296 C 631.505432 292.030029 632.034546 288.030029 632.469727 284 Z"/>
        <path id="path13" fill="#98b955" stroke="none" d="M 620.755127 337.472412 L 127.9692 311.121307 C 150.432404 413.474609 234.121597 492.890015 338.710022 509 L 417.290009 509 C 512.715088 494.3013 590.751526 426.907715 620.755127 337.472412 Z"/>
        <path id="path14" fill="#87af3b" stroke="none" d="M 378 512 C 483.783691 512 574.575012 447.834686 613.594238 356.305206 L 154.480499 380.855713 C 199.708832 461.85318 285.230438 512.030762 378 512 Z"/>
        <path id="path15" fill="#7fa538" stroke="none" d="M 378 512 C 454.910614 512.072205 527.761414 477.492523 576.331787 417.858887 L 169.085403 403.985809 C 217.04921 471.782257 294.952515 512.060303 378 512 Z"/>
        <path id="path16" fill="#7a9d35" stroke="none" d="M 551.801025 443.938995 L 239.762711 471.501007 C 337.91803 534.434692 466.197083 523.103943 551.801025 443.938995 Z"/>
        <g id="Group">
            <path id="path17" fill="#6f8a3f" stroke="none" d="M 405 379 L 405 510.584015 C 422.348145 508.767334 439.463745 505.172913 456.077087 499.857391 L 439.196808 379 Z"/>
            <path id="path18" fill="#6f8a3f" stroke="none" d="M 297.118896 383 L 254.281006 383 L 199.341599 439.324493 C 217.244736 456.782776 237.602524 471.531708 259.769989 483.104004 Z"/>
            <path id="path19" fill="#6f8a3f" stroke="none" d="M 361.510498 378 L 334.341278 508.276093 C 348.762024 510.755157 363.367737 512.000977 378 512 C 380.341278 512 382.674591 511.967133 385 511.901398 L 385 378 Z"/>
            <path id="path20" fill="#6f8a3f" stroke="none" d="M 498.291687 379 L 511.705811 474.338409 C 532.280029 461.709503 550.973999 446.24707 567.237305 428.406311 L 531.996826 379 Z"/>
        </g>
        <path id="path21" fill="#916b41" stroke="none" d="M 376 363 C 376 363 365.206116 365.39859 360.335419 371.588989 C 359.729736 372.320007 359.40564 373.243622 359.421722 374.19281 C 359.485504 376.312592 361.221558 377.998413 363.342316 378 L 384.535095 378 C 389.756226 377.999969 394.563354 375.157654 397.079498 370.582794 L 402.947205 359.914093 C 403.612732 358.704132 403.692749 357.257385 403.164703 355.981415 L 400 342 L 348 342 C 348 342 354.076599 342.7005 376 363 Z"/>
        <path id="path22" fill="#916b41" stroke="none" d="M 509 365 L 499.486603 374.513397 C 498.55304 375.409424 498.05603 376.667664 498.125305 377.959808 C 498.282043 380.233337 500.171051 381.998108 502.450012 382 L 524.853699 382 C 527.508667 382 530.054871 380.945343 531.93219 379.067993 L 535.135742 375.864502 C 538.326172 372.67392 539.070068 367.778839 536.971497 363.784485 L 525 341 L 516 290 C 513 337 476 345 476 345 L 476 347.245605 C 476.500885 352.303314 480.696808 364.213806 509 365 Z"/>
        <linearGradient id="linearGradient6" x1="373.135" y1="199.345" x2="373.135" y2="338.907" gradientUnits="userSpaceOnUse">
            <stop offset="1e-05" stop-color="#ebbf71" stop-opacity="1"/>
            <stop offset="0.5685" stop-color="#b78751" stop-opacity="1"/>
            <stop offset="1" stop-color="#a17648" stop-opacity="1"/>
        </linearGradient>
        <path id="path23" fill="url(#linearGradient6)" stroke="none" d="M 519.917908 285.592285 C 520.053467 285.442688 520.172607 285.279053 520.273315 285.104126 C 521.868896 282.417114 521.16272 278.957642 518.641724 277.110901 L 510.826294 271.438354 C 469.526642 241.463379 420.551636 223.856262 369.619995 220.673096 C 360.054535 220.086365 350.494995 221.91333 341.820007 225.986084 L 269.154205 260 L 259.649414 254.882019 C 258.752075 254.398804 257.692963 254.315002 256.730804 254.651001 C 255.768616 254.987061 254.991959 255.711914 254.5905 256.648682 L 250.154205 267 L 239.564209 264.176086 C 239.408112 264.13269 239.247345 264.108459 239.085403 264.10376 C 236.861847 264.005615 234.958618 265.683105 234.776703 267.901367 L 234.154205 276 L 225.154205 289 L 227.102905 296.794922 L 255.154205 326 L 284.560394 330.160004 C 285.647247 330.136963 286.692566 330.577332 287.435303 331.371094 C 288.17804 332.164856 288.548096 333.237091 288.453003 334.320007 C 288.441956 334.498901 288.40332 334.675018 288.338409 334.842102 L 275.154205 370 C 275.154205 370 262.032806 373.422913 255.180603 379.407104 C 254.967422 379.589752 254.801208 379.820892 254.695908 380.081085 C 254.083008 381.350739 254.160858 382.845428 254.902313 384.044495 C 255.643784 385.243591 256.946228 385.981049 258.355896 386 L 288.104614 386 C 291.41571 386 297.261414 382.944397 297.261414 382.944397 L 348.154205 342 L 415 342 L 415 361.230011 C 415.000031 362.357269 414.523102 363.431915 413.687195 364.188202 L 400.47879 376.138702 C 400.289551 376.30481 400.143097 376.514038 400.051788 376.748688 C 399.532043 377.889526 399.623169 379.215637 400.294067 380.274658 C 400.964996 381.333679 402.125061 381.982574 403.378601 382 L 432.106415 382 C 433.968964 382.000031 435.765381 381.309296 437.148102 380.061401 L 476 345 C 476 345 513 337 516 290 Z"/>
        <path id="path24" fill="#35312a" stroke="none" d="M 214.982697 312.095886 L 212.247711 315.590607 C 211.421402 316.646332 211.084366 318.004272 211.321106 319.323883 C 211.557846 320.643463 212.345932 321.799561 213.487701 322.502197 L 219.377701 325.202209 L 220 317.73999 Z"/>
        <path id="path25" fill="#cabba7" stroke="none" d="M 255 325.73999 L 226.949005 296.534973 L 227 296.73999 L 214.983002 312.096008 L 220 317.73999 L 219.378006 325.203003 L 238 333.73999 Z"/>
        <path id="path26" fill="#755735" stroke="none" d="M 235 290.73999 L 240 299.73999 L 249 288.73999 Z"/>
        <path id="path27" fill="#ffffff" stroke="none" d="M 292 31.693481 C 317.0625 39.130981 323.441406 47.069458 323.340912 46.985474 C 332.47171 39.686584 345.027405 35.101685 356.180908 33.175476 C 342.576416 39.078796 331.391815 49.592468 326.929901 55.967468 L 326.929901 55.968506 C 319.87912 62.211609 317.843018 51.086609 314.3284 48.707703 C 306.619202 39.745178 292 31.693481 292 31.693481 Z"/>
        <path id="path28" fill="#ffffff" stroke="none" d="M 413 65.84668 C 438.0625 73.28418 444.440002 81.222717 444.340912 81.138672 C 453.47171 73.840759 466.028412 69.254883 477.180908 67.328674 C 463.576385 73.231995 452.391815 83.746704 447.929901 90.120667 L 447.928986 90.121704 C 440.880096 96.364868 438.842987 85.239868 435.32901 82.861694 C 427.618195 73.899414 413 65.84668 413 65.84668 Z"/>
    </g>
    <g id="arrow">
        <path id="path29" fill="#32d736" stroke="none" d="M 500.783142 427.782715 C 498.375458 422.061768 492.954926 418.448547 486.934204 418.448547 L 426.717102 418.448547 L 426.717102 311.055145 C 426.717102 302.62326 420.094238 296 411.662842 296 L 321.337158 296 C 312.905762 296 306.282898 302.62326 306.282898 311.055145 L 306.282898 418.448547 L 246.065781 418.448547 C 240.045074 418.448547 234.624542 422.061768 232.216858 427.782715 C 229.806168 433.503662 231.011505 439.825836 235.528793 444.04126 L 355.963013 564.482422 C 358.671783 567.494507 362.585907 569 366.5 569 C 370.414124 569 374.328217 567.494507 377.036987 564.482422 L 497.471222 444.04126 C 501.988495 439.825836 503.193848 433.503662 500.783142 427.782715 Z"/>
        <path id="path30" fill="#10bb67" stroke="none" d="M 377.653625 564.482422 C 374.914886 567.494507 370.957458 569 367 569 L 367 296 L 412.662781 296 C 421.187531 296 427.883728 302.62326 427.883728 311.055145 L 427.883728 418.448547 L 488.767426 418.448547 C 494.854797 418.448547 500.335358 422.061768 502.769684 427.782715 C 505.207062 433.503662 503.988373 439.825836 499.421082 444.04126 L 377.653625 564.482422 Z"/>
    </g>
</svg>
