<?xml version="1.0" encoding="UTF-8"?>
<!-- Generated by Pixelmator Pro 3.4.3 -->
<svg width="973" height="1024" viewBox="0 0 973 1024" xmlns="http://www.w3.org/2000/svg">
    <g id="basket">
        <path id="Path" fill="#ffaa64" stroke="none" d="M 972.986328 493.554871 L 972.986328 562.958618 C 972.986328 581.550415 957.973633 596.608948 939.438416 596.608948 L 901.906677 596.608948 C 835.733398 908.442078 888.005249 662.248047 829.338318 938.70636 C 822.733582 969.790771 795.392029 992 763.710205 992 L 209.771149 992 C 178.110306 992 150.747787 969.790771 144.164001 938.70636 C 105.290359 755.564575 109.064499 773.336121 71.595673 596.608948 L 33.644588 596.608948 C 15.109364 596.608948 0.096668 581.550415 0.096668 562.958618 L 0.096668 493.554871 C 0.096668 474.963074 15.109364 459.904602 33.644588 459.904602 L 939.438416 459.904602 C 957.973633 459.904602 972.986328 474.963074 972.986328 493.554871 Z"/>
        <path id="path1" fill="#cbe3fa" stroke="none" d="M 972.986328 494.115112 L 972.986328 564.674194 C 972.986328 583.575562 957.973633 598.884766 939.438416 598.884766 L 33.644588 598.884766 C 15.109364 598.884766 0.096668 583.575562 0.096668 564.674194 L 0.096668 494.115112 C 0.096668 475.213806 15.109364 459.904602 33.644588 459.904602 L 939.438416 459.904602 C 957.973633 459.904602 972.986328 475.213806 972.986328 494.115112 Z"/>
        <path id="path2" fill="#eef7ff" stroke="none" d="M 942.364075 459.9776 C 974.159424 462.055176 971.77533 509.96698 939.911072 509.96698 L 87.646179 509.96698 C 69.181587 509.96698 54.214767 524.908569 54.214767 543.341919 L 54.214767 561.879639 C 54.214767 594.370117 4.067648 596.207825 4.067648 562.115356 L 4.067648 493.279541 C 4.067648 474.84613 19.034473 459.904602 37.499058 459.904602 C 37.499058 459.904602 941.630676 459.929626 942.364075 459.9776 Z"/>
        <path id="path3" fill="#ffbd7b" stroke="none" d="M 873.711853 729.923157 L 850.341431 841.107239 L 126.733429 841.107239 L 103.342102 729.923157 Z"/>
        <path id="path4" fill="#faa157" stroke="none" d="M 71.57428 598.884766 C 75.20768 616.024292 78.442703 631.332031 81.364868 645.164429 C 83.00219 652.910522 89.808044 658.447632 97.685989 658.447632 L 871.407227 658.447632 C 879.283081 658.447632 886.086853 652.914734 887.728394 645.172791 C 890.667236 631.300659 893.931458 615.927856 897.53772 598.884766 L 71.57428 598.884766 Z"/>
        <path id="path5" fill="#ffd3a6" stroke="none" d="M 702.959778 992 L 567.946533 992 L 567.946533 598.884766 L 702.959778 598.884766 Z"/>
        <path id="path6" fill="#ffd3a6" stroke="none" d="M 405.136444 992 L 270.123199 992 L 270.123199 598.884766 L 405.136444 598.884766 Z"/>
        <path id="path7" fill="#ffbd7b" stroke="none" d="M 702.959778 598.884766 L 702.959778 641.681152 C 702.959778 650.94043 695.519531 658.447632 686.342773 658.447632 L 584.563538 658.447632 C 575.386841 658.447632 567.946533 650.94043 567.946533 641.681152 L 567.946533 598.884766 L 702.959778 598.884766 Z"/>
        <path id="path8" fill="#ffbd7b" stroke="none" d="M 405.136444 598.884766 L 405.136444 641.681152 C 405.136444 650.94043 397.696167 658.447632 388.51944 658.447632 L 286.740204 658.447632 C 277.563446 658.447632 270.123199 650.94043 270.123199 641.681152 L 270.123199 598.884766 L 405.136444 598.884766 Z"/>
    </g>
    <g id="images">
        <g id="harddrive">
            <g id="g1">
                <path id="path9" fill="#3c3a41" stroke="none" d="M 441.374481 523.975952 C 440.257233 522.115601 438.265259 521 436.027435 521 L 310.828766 521 C 308.590942 521 306.598938 522.115601 305.481689 523.975952 L 269.910767 583 L 285.083435 595.400024 L 457.542938 595.400024 L 476.945404 583 L 441.374481 523.975952 Z"/>
                <path id="path10" fill="#2b292c" stroke="none" d="M 475.40036 583 L 455.997894 595.400024 L 371.883026 595.400024 L 371.883026 521 L 434.482361 521 C 436.720184 521 438.712189 522.115601 439.829437 523.975952 L 475.40036 583 Z"/>
                <path id="path11" fill="#57555c" stroke="none" d="M 475.886322 583 L 269.424805 583 C 268.060516 585.231995 266.820679 586.843994 266.820679 589.200012 L 266.820679 626.400024 C 266.820679 636.691589 275.129547 645 285.424469 645 L 459.886658 645 C 470.18158 645 478.490448 636.691589 478.490448 626.400024 L 478.490448 589.200012 C 478.490448 586.843994 477.25061 585.231995 475.886322 583 Z"/>
                <path id="path12" fill="#3c3a41" stroke="none" d="M 476.945404 589.200012 L 476.945404 626.400024 C 476.945404 636.691589 468.697174 645 458.477417 645 L 371.883026 645 L 371.883026 583 L 474.360291 583 C 475.7146 585.231995 476.945404 586.843994 476.945404 589.200012 Z"/>
                <path id="Oval" fill="#1bd9de" stroke="none" d="M 453.769867 612.449951 C 453.769867 615.874146 451.00293 618.650024 447.589752 618.650024 C 444.176544 618.650024 441.409607 615.874146 441.409607 612.449951 C 441.409607 609.025818 444.176544 606.25 447.589752 606.25 C 451.00293 606.25 453.769867 609.025818 453.769867 612.449951 Z"/>
                <path id="path13" fill="#a4d9f5" stroke="none" d="M 359.428894 618.650024 L 296.270233 618.650024 C 292.802368 618.650024 289.996216 615.876953 289.996216 612.449951 C 289.996216 609.023071 292.802368 606.25 296.270233 606.25 L 359.428894 606.25 C 362.896759 606.25 365.702911 609.023071 365.702911 612.449951 C 365.702911 615.876953 362.896759 618.650024 359.428894 618.650024 Z"/>
            </g>
            <g id="g2">
                <path id="path14" fill="#3c3a41" stroke="none" d="M 670.039612 523.975952 C 668.922302 522.115601 666.930359 521 664.692505 521 L 539.493835 521 C 537.256042 521 535.264038 522.115601 534.14679 523.975952 L 498.575897 583 L 513.748535 595.400024 L 686.208008 595.400024 L 705.610535 583 L 670.039612 523.975952 Z"/>
                <path id="path15" fill="#2b292c" stroke="none" d="M 704.065491 583 L 684.663025 595.400024 L 600.548218 595.400024 L 600.548218 521 L 663.147522 521 C 665.385315 521 667.377319 522.115601 668.494568 523.975952 L 704.065491 583 Z"/>
                <path id="path16" fill="#57555c" stroke="none" d="M 704.551453 583 L 498.089935 583 C 496.725647 585.231995 495.485809 586.843994 495.485809 589.200012 L 495.485809 626.400024 C 495.485809 636.691589 503.794678 645 514.0896 645 L 688.551758 645 C 698.84668 645 707.155518 636.691589 707.155518 626.400024 L 707.155518 589.200012 C 707.155518 586.843994 705.91571 585.231995 704.551453 583 Z"/>
                <path id="path17" fill="#3c3a41" stroke="none" d="M 705.610535 589.200012 L 705.610535 626.400024 C 705.610535 636.691589 697.362305 645 687.142578 645 L 600.548218 645 L 600.548218 583 L 703.025452 583 C 704.379761 585.231995 705.610535 586.843994 705.610535 589.200012 Z"/>
                <path id="path18" fill="#1bd9de" stroke="none" d="M 682.434998 612.449951 C 682.434998 615.874146 679.668091 618.650024 676.254883 618.650024 C 672.841675 618.650024 670.074768 615.874146 670.074768 612.449951 C 670.074768 609.025818 672.841675 606.25 676.254883 606.25 C 679.668091 606.25 682.434998 609.025818 682.434998 612.449951 Z"/>
                <path id="path19" fill="#a4d9f5" stroke="none" d="M 588.093994 618.650024 L 524.935364 618.650024 C 521.467468 618.650024 518.661316 615.876953 518.661316 612.449951 C 518.661316 609.023071 521.467468 606.25 524.935364 606.25 L 588.093994 606.25 C 591.561829 606.25 594.368042 609.023071 594.368042 612.449951 C 594.368042 615.876953 591.561829 618.650024 588.093994 618.650024 Z"/>
            </g>
            <g id="g3">
                <path id="path20" fill="#3c3a41" stroke="none" d="M 441.374481 417.976013 C 440.257233 416.115601 438.265259 415 436.027435 415 L 310.828766 415 C 308.590942 415 306.598938 416.115601 305.481689 417.976013 L 269.910767 477 L 285.083435 489.399963 L 457.542938 489.399963 L 476.945404 477 L 441.374481 417.976013 Z"/>
                <path id="path21" fill="#2b292c" stroke="none" d="M 475.40036 477 L 455.997894 489.399963 L 371.883026 489.399963 L 371.883026 415 L 434.482361 415 C 436.720184 415 438.712189 416.115601 439.829437 417.976013 L 475.40036 477 Z"/>
                <path id="path22" fill="#57555c" stroke="none" d="M 475.886322 477 L 269.424805 477 C 268.060516 479.231995 266.820679 480.843994 266.820679 483.200012 L 266.820679 520.400024 C 266.820679 530.691589 275.129547 539 285.424469 539 L 459.886658 539 C 470.18158 539 478.490448 530.691589 478.490448 520.400024 L 478.490448 483.200012 C 478.490448 480.843994 477.25061 479.231995 475.886322 477 Z"/>
                <path id="path23" fill="#3c3a41" stroke="none" d="M 476.945404 483.200012 L 476.945404 520.400024 C 476.945404 530.691589 468.697174 539 458.477417 539 L 371.883026 539 L 371.883026 477 L 474.360291 477 C 475.7146 479.231995 476.945404 480.843994 476.945404 483.200012 Z"/>
                <path id="path24" fill="#1bd9de" stroke="none" d="M 453.769867 506.450012 C 453.769867 509.874146 451.00293 512.650024 447.589752 512.650024 C 444.176544 512.650024 441.409607 509.874146 441.409607 506.450012 C 441.409607 503.025818 444.176544 500.25 447.589752 500.25 C 451.00293 500.25 453.769867 503.025818 453.769867 506.450012 Z"/>
                <path id="path25" fill="#a4d9f5" stroke="none" d="M 359.428894 512.650024 L 296.270233 512.650024 C 292.802368 512.650024 289.996216 509.876953 289.996216 506.450012 C 289.996216 503.023071 292.802368 500.25 296.270233 500.25 L 359.428894 500.25 C 362.896759 500.25 365.702911 503.023071 365.702911 506.450012 C 365.702911 509.876953 362.896759 512.650024 359.428894 512.650024 Z"/>
            </g>
            <g id="g4">
                <path id="path26" fill="#3c3a41" stroke="none" d="M 670.039612 417.976013 C 668.922302 416.115601 666.930359 415 664.692505 415 L 539.493835 415 C 537.256042 415 535.264038 416.115601 534.14679 417.976013 L 498.575897 477 L 513.748535 489.399963 L 686.208008 489.399963 L 705.610535 477 L 670.039612 417.976013 Z"/>
                <path id="path27" fill="#2b292c" stroke="none" d="M 704.065491 477 L 684.663025 489.399963 L 600.548218 489.399963 L 600.548218 415 L 663.147522 415 C 665.385315 415 667.377319 416.115601 668.494568 417.976013 L 704.065491 477 Z"/>
                <path id="path28" fill="#57555c" stroke="none" d="M 704.551453 477 L 498.089935 477 C 496.725647 479.231995 495.485809 480.843994 495.485809 483.200012 L 495.485809 520.400024 C 495.485809 530.691589 503.794678 539 514.0896 539 L 688.551758 539 C 698.84668 539 707.155518 530.691589 707.155518 520.400024 L 707.155518 483.200012 C 707.155518 480.843994 705.91571 479.231995 704.551453 477 Z"/>
                <path id="path29" fill="#3c3a41" stroke="none" d="M 705.610535 483.200012 L 705.610535 520.400024 C 705.610535 530.691589 697.362305 539 687.142578 539 L 600.548218 539 L 600.548218 477 L 703.025452 477 C 704.379761 479.231995 705.610535 480.843994 705.610535 483.200012 Z"/>
                <path id="path30" fill="#1bd9de" stroke="none" d="M 682.434998 506.450012 C 682.434998 509.874146 679.668091 512.650024 676.254883 512.650024 C 672.841675 512.650024 670.074768 509.874146 670.074768 506.450012 C 670.074768 503.025818 672.841675 500.25 676.254883 500.25 C 679.668091 500.25 682.434998 503.025818 682.434998 506.450012 Z"/>
                <path id="path31" fill="#a4d9f5" stroke="none" d="M 588.093994 512.650024 L 524.935364 512.650024 C 521.467468 512.650024 518.661316 509.876953 518.661316 506.450012 C 518.661316 503.023071 521.467468 500.25 524.935364 500.25 L 588.093994 500.25 C 591.561829 500.25 594.368042 503.023071 594.368042 506.450012 C 594.368042 509.876953 591.561829 512.650024 588.093994 512.650024 Z"/>
            </g>
            <g id="g5">
                <path id="path32" fill="#3c3a41" stroke="none" d="M 441.374481 310.976013 C 440.257233 309.115601 438.265259 308 436.027435 308 L 310.828766 308 C 308.590942 308 306.598938 309.115601 305.481689 310.976013 L 269.910767 370 L 285.083435 382.399963 L 457.542938 382.399963 L 476.945404 370 L 441.374481 310.976013 Z"/>
                <path id="path33" fill="#2b292c" stroke="none" d="M 475.40036 370 L 455.997894 382.399963 L 371.883026 382.399963 L 371.883026 308 L 434.482361 308 C 436.720184 308 438.712189 309.115601 439.829437 310.976013 L 475.40036 370 Z"/>
                <path id="path34" fill="#57555c" stroke="none" d="M 475.886322 370 L 269.424805 370 C 268.060516 372.231995 266.820679 373.843994 266.820679 376.200012 L 266.820679 413.400024 C 266.820679 423.691589 275.129547 432 285.424469 432 L 459.886658 432 C 470.18158 432 478.490448 423.691589 478.490448 413.400024 L 478.490448 376.200012 C 478.490448 373.843994 477.25061 372.231995 475.886322 370 Z"/>
                <path id="path35" fill="#3c3a41" stroke="none" d="M 476.945404 376.200012 L 476.945404 413.400024 C 476.945404 423.691589 468.697174 432 458.477417 432 L 371.883026 432 L 371.883026 370 L 474.360291 370 C 475.7146 372.231995 476.945404 373.843994 476.945404 376.200012 Z"/>
                <path id="path36" fill="#1bd9de" stroke="none" d="M 453.769867 399.450012 C 453.769867 402.874146 451.00293 405.649963 447.589752 405.649963 C 444.176544 405.649963 441.409607 402.874146 441.409607 399.450012 C 441.409607 396.025818 444.176544 393.25 447.589752 393.25 C 451.00293 393.25 453.769867 396.025818 453.769867 399.450012 Z"/>
                <path id="path37" fill="#a4d9f5" stroke="none" d="M 359.428894 405.649963 L 296.270233 405.649963 C 292.802368 405.649963 289.996216 402.876953 289.996216 399.450012 C 289.996216 396.023071 292.802368 393.25 296.270233 393.25 L 359.428894 393.25 C 362.896759 393.25 365.702911 396.023071 365.702911 399.450012 C 365.702911 402.876953 362.896759 405.649963 359.428894 405.649963 Z"/>
            </g>
            <g id="g6">
                <path id="path38" fill="#3c3a41" stroke="none" d="M 670.039612 310.976013 C 668.922302 309.115601 666.930359 308 664.692505 308 L 539.493835 308 C 537.256042 308 535.264038 309.115601 534.14679 310.976013 L 498.575897 370 L 513.748535 382.399963 L 686.208008 382.399963 L 705.610535 370 L 670.039612 310.976013 Z"/>
                <path id="path39" fill="#2b292c" stroke="none" d="M 704.065491 370 L 684.663025 382.399963 L 600.548218 382.399963 L 600.548218 308 L 663.147522 308 C 665.385315 308 667.377319 309.115601 668.494568 310.976013 L 704.065491 370 Z"/>
                <path id="path40" fill="#57555c" stroke="none" d="M 704.551453 370 L 498.089935 370 C 496.725647 372.231995 495.485809 373.843994 495.485809 376.200012 L 495.485809 413.400024 C 495.485809 423.691589 503.794678 432 514.0896 432 L 688.551758 432 C 698.84668 432 707.155518 423.691589 707.155518 413.400024 L 707.155518 376.200012 C 707.155518 373.843994 705.91571 372.231995 704.551453 370 Z"/>
                <path id="path41" fill="#3c3a41" stroke="none" d="M 705.610535 376.200012 L 705.610535 413.400024 C 705.610535 423.691589 697.362305 432 687.142578 432 L 600.548218 432 L 600.548218 370 L 703.025452 370 C 704.379761 372.231995 705.610535 373.843994 705.610535 376.200012 Z"/>
                <path id="path42" fill="#1bd9de" stroke="none" d="M 682.434998 399.450012 C 682.434998 402.874146 679.668091 405.649963 676.254883 405.649963 C 672.841675 405.649963 670.074768 402.874146 670.074768 399.450012 C 670.074768 396.025818 672.841675 393.25 676.254883 393.25 C 679.668091 393.25 682.434998 396.025818 682.434998 399.450012 Z"/>
                <path id="path43" fill="#a4d9f5" stroke="none" d="M 588.093994 405.649963 L 524.935364 405.649963 C 521.467468 405.649963 518.661316 402.876953 518.661316 399.450012 C 518.661316 396.023071 521.467468 393.25 524.935364 393.25 L 588.093994 393.25 C 591.561829 393.25 594.368042 396.023071 594.368042 399.450012 C 594.368042 402.876953 591.561829 405.649963 588.093994 405.649963 Z"/>
            </g>
            <g id="g7">
                <path id="path44" fill="#3c3a41" stroke="none" d="M 441.374481 630.976013 C 440.257233 629.115601 438.265259 628 436.027435 628 L 310.828766 628 C 308.590942 628 306.598938 629.115601 305.481689 630.976013 L 269.910767 690 L 285.083435 702.400024 L 457.542938 702.400024 L 476.945404 690 L 441.374481 630.976013 Z"/>
                <path id="path45" fill="#2b292c" stroke="none" d="M 475.40036 690 L 455.997894 702.400024 L 371.883026 702.400024 L 371.883026 628 L 434.482361 628 C 436.720184 628 438.712189 629.115601 439.829437 630.976013 L 475.40036 690 Z"/>
                <path id="path46" fill="#57555c" stroke="none" d="M 475.886322 690 L 269.424805 690 C 268.060516 692.231995 266.820679 693.843994 266.820679 696.200012 L 266.820679 733.400024 C 266.820679 743.691589 275.129547 752 285.424469 752 L 459.886658 752 C 470.18158 752 478.490448 743.691589 478.490448 733.400024 L 478.490448 696.200012 C 478.490448 693.843994 477.25061 692.231995 475.886322 690 Z"/>
                <path id="path47" fill="#3c3a41" stroke="none" d="M 476.945404 696.200012 L 476.945404 733.400024 C 476.945404 743.691589 468.697174 752 458.477417 752 L 371.883026 752 L 371.883026 690 L 474.360291 690 C 475.7146 692.231995 476.945404 693.843994 476.945404 696.200012 Z"/>
                <path id="path48" fill="#1bd9de" stroke="none" d="M 453.769867 719.450012 C 453.769867 722.874146 451.00293 725.650024 447.589752 725.650024 C 444.176544 725.650024 441.409607 722.874146 441.409607 719.450012 C 441.409607 716.025879 444.176544 713.25 447.589752 713.25 C 451.00293 713.25 453.769867 716.025879 453.769867 719.450012 Z"/>
                <path id="path49" fill="#a4d9f5" stroke="none" d="M 359.428894 725.650024 L 296.270233 725.650024 C 292.802368 725.650024 289.996216 722.876953 289.996216 719.450012 C 289.996216 716.023071 292.802368 713.25 296.270233 713.25 L 359.428894 713.25 C 362.896759 713.25 365.702911 716.023071 365.702911 719.450012 C 365.702911 722.876953 362.896759 725.650024 359.428894 725.650024 Z"/>
            </g>
            <g id="g8">
                <path id="path50" fill="#3c3a41" stroke="none" d="M 670.039612 630.976013 C 668.922302 629.115601 666.930359 628 664.692505 628 L 539.493835 628 C 537.256042 628 535.264038 629.115601 534.14679 630.976013 L 498.575897 690 L 513.748535 702.400024 L 686.208008 702.400024 L 705.610535 690 L 670.039612 630.976013 Z"/>
                <path id="path51" fill="#2b292c" stroke="none" d="M 704.065491 690 L 684.663025 702.400024 L 600.548218 702.400024 L 600.548218 628 L 663.147522 628 C 665.385315 628 667.377319 629.115601 668.494568 630.976013 L 704.065491 690 Z"/>
                <path id="path52" fill="#57555c" stroke="none" d="M 704.551453 690 L 498.089935 690 C 496.725647 692.231995 495.485809 693.843994 495.485809 696.200012 L 495.485809 733.400024 C 495.485809 743.691589 503.794678 752 514.0896 752 L 688.551758 752 C 698.84668 752 707.155518 743.691589 707.155518 733.400024 L 707.155518 696.200012 C 707.155518 693.843994 705.91571 692.231995 704.551453 690 Z"/>
                <path id="path53" fill="#3c3a41" stroke="none" d="M 705.610535 696.200012 L 705.610535 733.400024 C 705.610535 743.691589 697.362305 752 687.142578 752 L 600.548218 752 L 600.548218 690 L 703.025452 690 C 704.379761 692.231995 705.610535 693.843994 705.610535 696.200012 Z"/>
                <path id="path54" fill="#1bd9de" stroke="none" d="M 682.434998 719.450012 C 682.434998 722.874146 679.668091 725.650024 676.254883 725.650024 C 672.841675 725.650024 670.074768 722.874146 670.074768 719.450012 C 670.074768 716.025879 672.841675 713.25 676.254883 713.25 C 679.668091 713.25 682.434998 716.025879 682.434998 719.450012 Z"/>
                <path id="path55" fill="#a4d9f5" stroke="none" d="M 588.093994 725.650024 L 524.935364 725.650024 C 521.467468 725.650024 518.661316 722.876953 518.661316 719.450012 C 518.661316 716.023071 521.467468 713.25 524.935364 713.25 L 588.093994 713.25 C 591.561829 713.25 594.368042 716.023071 594.368042 719.450012 C 594.368042 722.876953 591.561829 725.650024 588.093994 725.650024 Z"/>
            </g>
        </g>
        <g id="arrow">
            <path id="path56" fill="#32d736" stroke="none" d="M 619.783142 404.782715 C 617.375488 399.061768 611.954956 395.448547 605.934204 395.448547 L 545.717102 395.448547 L 545.717102 288.055176 C 545.717102 279.623291 539.094238 273 530.662842 273 L 440.337158 273 C 431.905762 273 425.282898 279.623291 425.282898 288.055176 L 425.282898 395.448547 L 365.065796 395.448547 C 359.045074 395.448547 353.624542 399.061768 351.216858 404.782715 C 348.806152 410.503662 350.011505 416.825806 354.528809 421.04126 L 474.963013 541.482422 C 477.671783 544.494507 481.585907 546 485.5 546 C 489.414124 546 493.328217 544.494507 496.036987 541.482422 L 616.471252 421.04126 C 620.988525 416.825806 622.193848 410.503662 619.783142 404.782715 Z"/>
            <path id="path57" fill="#10bb67" stroke="none" d="M 496.653625 541.482422 C 493.914886 544.494507 489.957458 546 486 546 L 486 273 L 531.662781 273 C 540.1875 273 546.883728 279.623291 546.883728 288.055176 L 546.883728 395.448547 L 607.767456 395.448547 C 613.854797 395.448547 619.335327 399.061768 621.769653 404.782715 C 624.207031 410.503662 622.988403 416.825806 618.421082 421.04126 L 496.653625 541.482422 Z"/>
        </g>
    </g>
</svg>
