<?xml version="1.0" encoding="UTF-8"?>
<!-- Generated by Pixelmator Pro 3.4.3 -->
<svg width="853" height="824" viewBox="0 0 853 824" xmlns="http://www.w3.org/2000/svg">
    <g id="server" opacity="0.749116">
        <path id="Path" fill="none" stroke="#ffffff" stroke-width="6" d="M 650 60 L 650 83 L 627 83 L 627 60 L 650 60 Z"/>
        <path id="path1" fill="none" stroke="#ffffff" stroke-width="6" d="M 650 174 L 650 197 L 627 197 L 627 174 L 650 174 Z"/>
        <path id="Oval" fill="none" stroke="#ffffff" stroke-width="6" d="M 126 128.5 C 126 134.851257 120.851273 140 114.5 140 C 108.148727 140 103 134.851257 103 128.5 C 103 122.148743 108.148727 117 114.5 117 C 120.851273 117 126 122.148743 126 128.5 Z"/>
        <path id="path2" fill="none" stroke="#ffffff" stroke-width="6" d="M 183 128.5 C 183 134.851257 177.851257 140 171.5 140 C 165.148727 140 160 134.851257 160 128.5 C 160 122.148743 165.148727 117 171.5 117 C 177.851257 117 183 122.148743 183 128.5 Z"/>
        <path id="path3" fill="none" stroke="#ffffff" stroke-width="6" d="M 423 117 L 423 140 L 245 140 L 245 117 L 423 117 Z"/>
        <path id="path4" fill="none" stroke="#ffffff" stroke-width="6" d="M 650 343 L 650 366 L 627 366 L 627 343 L 650 343 Z"/>
        <path id="path5" fill="none" stroke="#ffffff" stroke-width="6" d="M 650 458 L 650 481 L 627 481 L 627 458 L 650 458 Z"/>
        <path id="path6" fill="none" stroke="#ffffff" stroke-width="6" d="M 126 411.5 C 126 417.851288 120.851273 423 114.5 423 C 108.148727 423 103 417.851288 103 411.5 C 103 405.148682 108.148727 400 114.5 400 C 120.851273 400 126 405.148682 126 411.5 Z"/>
        <path id="path7" fill="none" stroke="#ffffff" stroke-width="6" d="M 183 411.5 C 183 417.851288 177.851257 423 171.5 423 C 165.148727 423 160 417.851288 160 411.5 C 160 405.148682 165.148727 400 171.5 400 C 177.851257 400 183 405.148682 183 411.5 Z"/>
        <path id="path8" fill="none" stroke="#ffffff" stroke-width="6" d="M 423 400 L 423 423 L 245 423 L 245 400 L 423 400 Z"/>
        <path id="Shape" fill="none" stroke="#ffffff" stroke-width="6" d="M 14.216667 3 L 14.216667 3 L 838.783325 3 C 841.758423 3 844.611816 4.180725 846.715576 6.28302 C 848.737671 8.303711 849.907776 11.016724 849.994751 13.864563 L 850 14.206909 L 850 241.517212 C 850 244.489258 848.818542 247.3396 846.715576 249.441101 C 844.692749 251.462524 841.976868 252.632019 839.126038 252.718933 L 838.783325 252.724121 L 750.483337 252.724121 L 750.483337 287.137939 L 838.783447 287.137939 C 841.758484 287.137817 844.611816 288.318726 846.715576 290.420959 C 848.737671 292.44165 849.907776 295.154663 849.994751 298.002441 L 850 298.344849 L 850 525.655151 C 850 528.627197 848.818542 531.477478 846.715576 533.579041 C 844.692749 535.600464 841.976868 536.769958 839.126038 536.856873 L 838.783325 536.862061 L 750.483337 536.862061 L 750.483337 571.275879 L 838.783447 571.275879 C 841.758484 571.275757 844.611816 572.456604 846.715576 574.558899 C 848.737671 576.57959 849.907776 579.292542 849.994751 582.140381 L 850 582.482788 L 850 809.793091 C 850 812.765137 848.818542 815.615417 846.715576 817.71698 C 844.692749 819.738403 841.976807 820.907837 839.126038 820.994751 L 838.783325 821 L 14.216667 821 C 11.24157 821 8.388191 819.819275 6.284439 817.71698 C 4.262344 815.696289 3.092247 812.983276 3.005226 810.135437 L 3 809.793091 L 3 582.482788 C 3 579.510681 4.181458 576.6604 6.284439 574.558899 C 8.307251 572.537476 11.023125 571.367981 13.873955 571.281067 L 14.216667 571.275879 L 88.300003 571.275879 L 88.300003 536.862061 L 14.216583 536.862061 C 11.241508 536.862183 8.388168 535.681335 6.284439 533.579041 C 4.262344 531.55835 3.092247 528.845398 3.005226 525.997498 L 3 525.655151 L 3 298.344849 C 3 295.372803 4.181458 292.522461 6.284439 290.420959 C 8.307251 288.399536 11.023125 287.230042 13.873955 287.143188 L 14.216667 287.137939 L 88.300003 287.137939 L 88.300003 252.724121 L 14.216583 252.724121 C 11.241508 252.724243 8.388168 251.543396 6.284439 249.441101 C 4.262344 247.42041 3.092247 244.707458 3.005226 241.859619 L 3 241.517212 L 3 14.206909 C 3 11.234863 4.181458 8.384583 6.284439 6.28302 C 8.388191 4.180725 11.24157 3 14.216667 3 Z M 826.586182 593.601563 L 25.134933 593.601563 L 25.134933 628.07196 L 593.314392 628.07196 L 593.314392 650.542419 L 25.134933 650.542419 L 25.134933 741.953735 L 593.314392 741.953735 L 593.314392 764.424133 L 25.134933 764.424133 L 25.134933 798.894592 L 826.586182 798.894592 L 826.586182 764.424133 L 684.541321 764.424133 L 684.541321 741.953735 L 826.586182 741.953735 L 826.586182 650.542419 L 684.541321 650.542419 L 684.541321 628.07196 L 826.586182 628.07196 L 826.586182 593.601563 Z M 728.113953 537.390686 L 693.979004 537.390686 L 693.979004 571.496094 L 728.113953 571.496094 L 728.113953 537.390686 Z M 670.565247 537.390686 L 167.088455 537.390686 L 167.088455 571.496094 L 670.565247 571.496094 L 670.565247 537.390686 Z M 144.953522 537.390686 L 110.818588 537.390686 L 110.818588 571.496094 L 144.953522 571.496094 L 144.953522 537.390686 Z M 826.586182 308.714722 L 25.134933 308.714722 L 25.134933 343.185181 L 593.314392 343.185181 L 593.314392 365.655579 L 25.134933 365.655579 L 25.134933 457.066895 L 593.314392 457.066895 L 593.314392 479.537323 L 25.134933 479.537323 L 25.134933 514.007751 L 826.586182 514.007751 L 826.586182 479.537323 L 684.541321 479.537323 L 684.541321 457.066895 L 826.586182 457.066895 L 826.586182 365.655579 L 684.541321 365.655579 L 684.541321 343.185181 L 826.586182 343.185181 L 826.586182 308.714722 Z M 728.113953 252.503906 L 693.979004 252.503906 L 693.979004 286.609314 L 728.113953 286.609314 L 728.113953 252.503906 Z M 670.565247 252.503906 L 167.088455 252.503906 L 167.088455 286.609314 L 670.565247 286.609314 L 670.565247 252.503906 Z M 144.953522 252.503906 L 110.818588 252.503906 L 110.818588 286.609314 L 144.953522 286.609314 L 144.953522 252.503906 Z M 826.586182 25.105408 L 25.134933 25.105408 L 25.134933 59.575867 L 593.314392 59.575867 L 593.314392 82.046265 L 25.134933 82.046265 L 25.134933 173.457581 L 593.314392 173.457581 L 593.314392 195.92804 L 25.134933 195.92804 L 25.134933 230.398438 L 826.586182 230.398438 L 826.586182 195.92804 L 684.541321 195.92804 L 684.541321 173.457581 L 826.586182 173.457581 L 826.586182 82.046265 L 684.541321 82.046265 L 684.541321 59.575867 L 826.586182 59.575867 L 826.586182 25.105408 Z"/>
        <path id="path9" fill="none" stroke="#ffffff" stroke-width="6" d="M 650 627 L 650 650 L 627 650 L 627 627 L 650 627 Z"/>
        <path id="path10" fill="none" stroke="#ffffff" stroke-width="6" d="M 650 741 L 650 764 L 627 764 L 627 741 L 650 741 Z"/>
        <path id="path11" fill="none" stroke="#ffffff" stroke-width="6" d="M 126 695.5 C 126 701.851257 120.851273 707 114.5 707 C 108.148727 707 103 701.851257 103 695.5 C 103 689.148743 108.148727 684 114.5 684 C 120.851273 684 126 689.148743 126 695.5 Z"/>
        <path id="path12" fill="none" stroke="#ffffff" stroke-width="6" d="M 183 695.5 C 183 701.851257 177.851257 707 171.5 707 C 165.148727 707 160 701.851257 160 695.5 C 160 689.148743 165.148727 684 171.5 684 C 177.851257 684 183 689.148743 183 695.5 Z"/>
        <path id="path13" fill="none" stroke="#ffffff" stroke-width="6" d="M 423 684 L 423 707 L 245 707 L 245 684 L 423 684 Z"/>
    </g>
    <g id="apples">
        <path id="path14" fill="#fe4f60" stroke="none" d="M 372.638519 224.559326 C 392.817657 220.723694 422.625977 219.001282 443.247223 235.786133 C 495.854218 278.573792 457.716461 418 393.319458 418 C 385.576965 418 375.567535 416.246887 363.220428 410.439697 C 357.373474 407.689758 350.633484 407.689758 344.78653 410.439697 C 331.355164 416.757324 316.421692 420.274567 302.221039 416.346771 C 246.546906 400.867157 215.133698 276.149902 264.760834 235.786133 C 285.38208 219.001282 315.179352 220.724792 335.369537 224.559326 C 347.358521 226.841553 360.026154 226.976563 372.638519 224.559326 Z"/>
        <path id="path15" fill="#fe4f60" stroke="none" d="M 521.63855 224.559326 C 541.817627 220.723694 571.625977 219.001282 592.247192 235.786133 C 644.854187 278.573792 606.716431 418 542.319458 418 C 534.576965 418 524.567505 416.246887 512.220398 410.439697 C 506.373505 407.689758 499.633484 407.689758 493.78656 410.439697 C 480.355164 416.757324 465.421692 420.274567 451.221039 416.346771 C 395.546906 400.867157 364.133698 276.149902 413.760834 235.786133 C 434.38208 219.001282 464.179382 220.724792 484.369537 224.559326 C 496.357422 226.841553 509.025055 226.976563 521.63855 224.559326 Z"/>
        <path id="path16" fill="#ff6d7a" stroke="none" d="M 409.761078 221.76532 C 428.117462 224.015625 428.995697 250.280518 410.822266 253.718445 C 398.313965 256.084839 386.09549 256.262878 373.263214 253.794739 C 353.134918 249.931091 323.426208 248.195007 302.867035 265.10376 C 283.401001 281.099121 276.442139 310.245728 278.540253 340.668396 C 279.863708 359.859528 252.510986 364.960571 247.076141 346.512543 C 228.836578 284.608887 241.697495 205.734558 335.265594 223.69165 C 367.394196 229.871948 378.770782 217.96582 409.761078 221.76532 Z"/>
        <path id="path17" fill="#ffaa64" stroke="none" d="M 682 370.644287 L 682 407.035583 C 682 416.784027 674.099304 424.67984 664.344849 424.67984 L 644.59314 424.67984 C 609.768311 588.187073 637.277222 459.097198 606.402771 604.055908 C 602.92688 620.354797 588.537964 632 571.864868 632 L 280.344818 632 C 263.68277 632 249.282761 620.354797 245.817932 604.055908 C 225.360001 508.026947 227.346207 517.345337 207.627594 424.67984 L 187.655167 424.67984 C 177.900696 424.67984 170 416.784027 170 407.035583 L 170 370.644287 C 170 360.895813 177.900696 353 187.655167 353 L 664.344849 353 C 674.099304 353 682 360.895813 682 370.644287 Z"/>
        <path id="path18" fill="#cbe3fa" stroke="none" d="M 682 370.723083 L 682 407.276917 C 682 417.068909 674.099304 425 664.344849 425 L 187.655167 425 C 177.900696 425 170 417.068909 170 407.276917 L 170 370.723083 C 170 360.931091 177.900696 353 187.655167 353 L 664.344849 353 C 674.099304 353 682 360.931091 682 370.723083 Z"/>
        <path id="path19" fill="#ffaa64" stroke="none" d="M 355.400726 273 C 351.331085 273 347.672729 270.171509 346.785156 266.038391 C 345.685883 260.922058 342.568878 242.738098 348.616547 223.551025 C 351.958466 212.875793 357.706207 203.283936 366.145355 195.38324 C 369.697876 192.05603 375.280212 192.234375 378.613312 195.781799 C 381.945313 199.330261 381.766693 204.903503 378.214203 208.231812 C 372.215057 213.856812 367.976746 220.750122 365.449615 228.82373 C 360.572906 244.298157 363.415375 259.459961 364.033905 262.341248 C 365.20816 267.807678 361.041504 273 355.400726 273 L 355.400726 273 Z"/>
        <path id="path20" fill="#ffaa64" stroke="none" d="M 504.400604 273 C 500.331024 273 496.672699 270.171509 495.785126 266.038391 C 494.685883 260.922058 491.568939 242.738098 497.616516 223.551025 C 500.958374 212.875793 506.706055 203.283936 515.145142 195.38324 C 518.697571 192.05603 524.279907 192.234375 527.612976 195.781799 C 530.945984 199.329163 530.766296 204.903503 527.213806 208.231812 C 521.214722 213.856812 516.976501 220.750122 514.449402 228.82373 C 509.572723 244.298157 512.415161 259.459961 513.033691 262.341248 C 514.207947 267.807678 510.041321 273 504.400604 273 L 504.400604 273 Z"/>
        <g id="Group">
            <path id="path21" fill="#e84857" stroke="none" d="M 329.335388 262.732544 C 326.031891 259.14856 326.260376 253.564575 329.847534 250.263 C 333.433563 246.962463 339.020691 247.189697 342.324188 250.774841 C 343.02948 251.539307 346.84729 255.370361 352.742371 255.637329 C 359.349335 255.953918 363.798492 251.592224 364.61969 250.717468 C 367.95517 247.161011 373.543396 246.983459 377.100769 250.314819 C 380.65921 253.648438 380.839111 259.233459 377.503632 262.789917 C 364.150604 277.021118 342.096802 276.578796 329.335388 262.732544 Z"/>
            <path id="path22" fill="#e84857" stroke="none" d="M 504.243652 273.300293 C 499.49646 273.300293 495.57489 269.530945 495.423676 264.754517 C 495.269165 259.883179 499.095825 255.809387 503.971008 255.654968 C 509.996338 255.464111 513.979736 251.519409 514.717041 250.729553 C 518.046997 247.167603 523.634155 246.977905 527.197021 250.303772 C 530.760986 253.630737 530.951904 259.214661 527.623047 262.77771 C 521.860413 268.939697 512.717041 273.300293 504.243652 273.300293 L 504.243652 273.300293 Z"/>
            <path id="path23" fill="#e84857" stroke="none" d="M 474.100555 353 L 458.6427 353 C 473.865479 307.68866 472.203247 245.318848 428.488586 227.488159 C 437.938782 223.609619 448.319458 222.065308 458.611816 222 C 460.991455 221.984741 463.293884 222.920166 464.954987 224.623413 C 491.135651 251.478638 494.456787 301.58075 482.631348 346.471802 C 481.615906 350.330475 478.092773 353 474.100555 353 Z"/>
        </g>
        <path id="path24" fill="#eef7ff" stroke="none" d="M 665.03418 353.038513 C 681.80896 354.133972 680.551208 379.396851 663.73999 379.396851 L 214.095047 379.396851 C 204.353348 379.396851 196.457031 387.275208 196.457031 396.99472 L 196.457031 406.769226 C 196.457031 423.900787 170 424.869781 170 406.893555 L 170 370.5979 C 170 360.878357 177.896317 353 187.638016 353 C 187.638016 353 664.647217 353.013184 665.03418 353.038513 Z"/>
        <path id="path25" fill="#ffbd7b" stroke="none" d="M 630 495 L 617.652954 553 L 235.358063 553 L 223 495 Z"/>
        <path id="path26" fill="#faa157" stroke="none" d="M 207 425 C 208.917969 434.20816 210.625626 442.432251 212.168137 449.863617 C 213.03244 454.025208 216.625031 457 220.783539 457 L 629.206543 457 C 633.363953 457 636.955444 454.027435 637.82196 449.868134 C 639.373291 442.415344 641.096313 434.156372 643 425 L 207 425 Z"/>
        <path id="path27" fill="#ffd3a6" stroke="none" d="M 539 632 L 467 632 L 467 425 L 539 425 Z"/>
        <path id="path28" fill="#ffd3a6" stroke="none" d="M 384 632 L 312 632 L 312 425 L 384 425 Z"/>
        <path id="path29" fill="#ffbd7b" stroke="none" d="M 539 425 L 539 447.992249 C 539 452.966797 535.032227 457 530.138428 457 L 475.861542 457 C 470.967743 457 467 452.966797 467 447.992249 L 467 425 L 539 425 Z"/>
        <path id="path30" fill="#ffbd7b" stroke="none" d="M 384 425 L 384 447.992249 C 384 452.966797 380.032227 457 375.138458 457 L 320.861542 457 C 315.967773 457 312 452.966797 312 447.992249 L 312 425 L 384 425 Z"/>
    </g>
</svg>
