<?xml version="1.0" encoding="UTF-8"?>
<!-- Generated by Pixelmator Pro 3.4.3 -->
<svg width="877" height="917" viewBox="0 0 877 917" xmlns="http://www.w3.org/2000/svg">
    <g id="server-copy" opacity="0.749116">
        <path id="Path" fill="none" stroke="#004d81" stroke-width="6" d="M 660 116 L 660 139 L 637 139 L 637 116 L 660 116 Z"/>
        <path id="path1" fill="none" stroke="#004d81" stroke-width="6" d="M 660 230 L 660 253 L 637 253 L 637 230 L 660 230 Z"/>
        <path id="Oval" fill="none" stroke="#004d81" stroke-width="6" d="M 136 184.5 C 136 190.851257 130.851273 196 124.5 196 C 118.148727 196 113 190.851257 113 184.5 C 113 178.148743 118.148727 173 124.5 173 C 130.851273 173 136 178.148743 136 184.5 Z"/>
        <path id="path2" fill="none" stroke="#004d81" stroke-width="6" d="M 193 184.5 C 193 190.851257 187.851257 196 181.5 196 C 175.148727 196 170 190.851257 170 184.5 C 170 178.148743 175.148727 173 181.5 173 C 187.851257 173 193 178.148743 193 184.5 Z"/>
        <path id="path3" fill="none" stroke="#004d81" stroke-width="6" d="M 433 173 L 433 196 L 255 196 L 255 173 L 433 173 Z"/>
        <path id="path4" fill="none" stroke="#004d81" stroke-width="6" d="M 660 399 L 660 422 L 637 422 L 637 399 L 660 399 Z"/>
        <path id="path5" fill="none" stroke="#004d81" stroke-width="6" d="M 660 514 L 660 537 L 637 537 L 637 514 L 660 514 Z"/>
        <path id="path6" fill="none" stroke="#004d81" stroke-width="6" d="M 136 467.5 C 136 473.851288 130.851273 479 124.5 479 C 118.148727 479 113 473.851288 113 467.5 C 113 461.148682 118.148727 456 124.5 456 C 130.851273 456 136 461.148682 136 467.5 Z"/>
        <path id="path7" fill="none" stroke="#004d81" stroke-width="6" d="M 193 467.5 C 193 473.851288 187.851257 479 181.5 479 C 175.148727 479 170 473.851288 170 467.5 C 170 461.148682 175.148727 456 181.5 456 C 187.851257 456 193 461.148682 193 467.5 Z"/>
        <path id="path8" fill="none" stroke="#004d81" stroke-width="6" d="M 433 456 L 433 479 L 255 479 L 255 456 L 433 456 Z"/>
        <path id="Shape" fill="none" stroke="#004d81" stroke-width="6" d="M 24.216667 59 L 24.216667 59 L 848.783325 59 C 851.758423 59 854.611816 60.180725 856.715576 62.28302 C 858.737671 64.303711 859.907776 67.016724 859.994751 69.864563 L 860 70.206909 L 860 297.517212 C 860 300.489258 858.818542 303.3396 856.715576 305.441101 C 854.692749 307.462524 851.976868 308.632019 849.126038 308.718933 L 848.783325 308.724121 L 760.483337 308.724121 L 760.483337 343.137939 L 848.783447 343.137939 C 851.758484 343.137817 854.611816 344.318726 856.715576 346.420959 C 858.737671 348.44165 859.907776 351.154663 859.994751 354.002441 L 860 354.344849 L 860 581.655151 C 860 584.627197 858.818542 587.477478 856.715576 589.579041 C 854.692749 591.600464 851.976868 592.769958 849.126038 592.856873 L 848.783325 592.862061 L 760.483337 592.862061 L 760.483337 627.275879 L 848.783447 627.275879 C 851.758484 627.275757 854.611816 628.456604 856.715576 630.558899 C 858.737671 632.57959 859.907776 635.292542 859.994751 638.140381 L 860 638.482788 L 860 865.793091 C 860 868.765137 858.818542 871.615417 856.715576 873.71698 C 854.692749 875.738403 851.976807 876.907837 849.126038 876.994751 L 848.783325 877 L 24.216667 877 C 21.24157 877 18.388191 875.819275 16.284439 873.71698 C 14.262344 871.696289 13.092247 868.983276 13.005226 866.135437 L 13 865.793091 L 13 638.482788 C 13 635.510681 14.181458 632.6604 16.284439 630.558899 C 18.307251 628.537476 21.023125 627.367981 23.873955 627.281067 L 24.216667 627.275879 L 98.300003 627.275879 L 98.300003 592.862061 L 24.216583 592.862061 C 21.241508 592.862183 18.388168 591.681335 16.284439 589.579041 C 14.262344 587.55835 13.092247 584.845398 13.005226 581.997498 L 13 581.655151 L 13 354.344849 C 13 351.372803 14.181458 348.522461 16.284439 346.420959 C 18.307251 344.399536 21.023125 343.230042 23.873955 343.143188 L 24.216667 343.137939 L 98.300003 343.137939 L 98.300003 308.724121 L 24.216583 308.724121 C 21.241508 308.724243 18.388168 307.543396 16.284439 305.441101 C 14.262344 303.42041 13.092247 300.707458 13.005226 297.859619 L 13 297.517212 L 13 70.206909 C 13 67.234863 14.181458 64.384583 16.284439 62.28302 C 18.388191 60.180725 21.24157 59 24.216667 59 Z M 836.586182 649.601563 L 35.134933 649.601563 L 35.134933 684.07196 L 603.314392 684.07196 L 603.314392 706.542419 L 35.134933 706.542419 L 35.134933 797.953735 L 603.314392 797.953735 L 603.314392 820.424133 L 35.134933 820.424133 L 35.134933 854.894592 L 836.586182 854.894592 L 836.586182 820.424133 L 694.541321 820.424133 L 694.541321 797.953735 L 836.586182 797.953735 L 836.586182 706.542419 L 694.541321 706.542419 L 694.541321 684.07196 L 836.586182 684.07196 L 836.586182 649.601563 Z M 738.113953 593.390686 L 703.979004 593.390686 L 703.979004 627.496094 L 738.113953 627.496094 L 738.113953 593.390686 Z M 680.565247 593.390686 L 177.088455 593.390686 L 177.088455 627.496094 L 680.565247 627.496094 L 680.565247 593.390686 Z M 154.953522 593.390686 L 120.818588 593.390686 L 120.818588 627.496094 L 154.953522 627.496094 L 154.953522 593.390686 Z M 836.586182 364.714722 L 35.134933 364.714722 L 35.134933 399.185181 L 603.314392 399.185181 L 603.314392 421.655579 L 35.134933 421.655579 L 35.134933 513.066895 L 603.314392 513.066895 L 603.314392 535.537354 L 35.134933 535.537354 L 35.134933 570.007751 L 836.586182 570.007751 L 836.586182 535.537354 L 694.541321 535.537354 L 694.541321 513.066895 L 836.586182 513.066895 L 836.586182 421.655579 L 694.541321 421.655579 L 694.541321 399.185181 L 836.586182 399.185181 L 836.586182 364.714722 Z M 738.113953 308.503906 L 703.979004 308.503906 L 703.979004 342.609314 L 738.113953 342.609314 L 738.113953 308.503906 Z M 680.565247 308.503906 L 177.088455 308.503906 L 177.088455 342.609314 L 680.565247 342.609314 L 680.565247 308.503906 Z M 154.953522 308.503906 L 120.818588 308.503906 L 120.818588 342.609314 L 154.953522 342.609314 L 154.953522 308.503906 Z M 836.586182 81.105408 L 35.134933 81.105408 L 35.134933 115.575867 L 603.314392 115.575867 L 603.314392 138.046265 L 35.134933 138.046265 L 35.134933 229.457581 L 603.314392 229.457581 L 603.314392 251.92804 L 35.134933 251.92804 L 35.134933 286.398438 L 836.586182 286.398438 L 836.586182 251.92804 L 694.541321 251.92804 L 694.541321 229.457581 L 836.586182 229.457581 L 836.586182 138.046265 L 694.541321 138.046265 L 694.541321 115.575867 L 836.586182 115.575867 L 836.586182 81.105408 Z"/>
        <path id="path9" fill="none" stroke="#004d81" stroke-width="6" d="M 660 683 L 660 706 L 637 706 L 637 683 L 660 683 Z"/>
        <path id="path10" fill="none" stroke="#004d81" stroke-width="6" d="M 660 797 L 660 820 L 637 820 L 637 797 L 660 797 Z"/>
        <path id="path11" fill="none" stroke="#004d81" stroke-width="6" d="M 136 751.5 C 136 757.851257 130.851273 763 124.5 763 C 118.148727 763 113 757.851257 113 751.5 C 113 745.148743 118.148727 740 124.5 740 C 130.851273 740 136 745.148743 136 751.5 Z"/>
        <path id="path12" fill="none" stroke="#004d81" stroke-width="6" d="M 193 751.5 C 193 757.851257 187.851257 763 181.5 763 C 175.148727 763 170 757.851257 170 751.5 C 170 745.148743 175.148727 740 181.5 740 C 187.851257 740 193 745.148743 193 751.5 Z"/>
        <path id="path13" fill="none" stroke="#004d81" stroke-width="6" d="M 433 740 L 433 763 L 255 763 L 255 740 L 433 740 Z"/>
    </g>
    <g id="server-copy-2" opacity="0.749116">
        <path id="path14" fill="none" stroke="#047101" stroke-width="6" d="M 650 96 L 650 119 L 627 119 L 627 96 L 650 96 Z"/>
        <path id="path15" fill="none" stroke="#047101" stroke-width="6" d="M 650 210 L 650 233 L 627 233 L 627 210 L 650 210 Z"/>
        <path id="path16" fill="none" stroke="#047101" stroke-width="6" d="M 126 164.5 C 126 170.851257 120.851273 176 114.5 176 C 108.148727 176 103 170.851257 103 164.5 C 103 158.148743 108.148727 153 114.5 153 C 120.851273 153 126 158.148743 126 164.5 Z"/>
        <path id="path17" fill="none" stroke="#047101" stroke-width="6" d="M 183 164.5 C 183 170.851257 177.851257 176 171.5 176 C 165.148727 176 160 170.851257 160 164.5 C 160 158.148743 165.148727 153 171.5 153 C 177.851257 153 183 158.148743 183 164.5 Z"/>
        <path id="path18" fill="none" stroke="#047101" stroke-width="6" d="M 423 153 L 423 176 L 245 176 L 245 153 L 423 153 Z"/>
        <path id="path19" fill="none" stroke="#047101" stroke-width="6" d="M 650 379 L 650 402 L 627 402 L 627 379 L 650 379 Z"/>
        <path id="path20" fill="none" stroke="#047101" stroke-width="6" d="M 650 494 L 650 517 L 627 517 L 627 494 L 650 494 Z"/>
        <path id="path21" fill="none" stroke="#047101" stroke-width="6" d="M 126 447.5 C 126 453.851288 120.851273 459 114.5 459 C 108.148727 459 103 453.851288 103 447.5 C 103 441.148682 108.148727 436 114.5 436 C 120.851273 436 126 441.148682 126 447.5 Z"/>
        <path id="path22" fill="none" stroke="#047101" stroke-width="6" d="M 183 447.5 C 183 453.851288 177.851257 459 171.5 459 C 165.148727 459 160 453.851288 160 447.5 C 160 441.148682 165.148727 436 171.5 436 C 177.851257 436 183 441.148682 183 447.5 Z"/>
        <path id="path23" fill="none" stroke="#047101" stroke-width="6" d="M 423 436 L 423 459 L 245 459 L 245 436 L 423 436 Z"/>
        <path id="path24" fill="none" stroke="#047101" stroke-width="6" d="M 14.216667 39 L 14.216667 39 L 838.783325 39 C 841.758423 39 844.611816 40.180725 846.715576 42.28302 C 848.737671 44.303711 849.907776 47.016724 849.994751 49.864563 L 850 50.206909 L 850 277.517212 C 850 280.489258 848.818542 283.3396 846.715576 285.441101 C 844.692749 287.462524 841.976868 288.632019 839.126038 288.718933 L 838.783325 288.724121 L 750.483337 288.724121 L 750.483337 323.137939 L 838.783447 323.137939 C 841.758484 323.137817 844.611816 324.318726 846.715576 326.420959 C 848.737671 328.44165 849.907776 331.154663 849.994751 334.002441 L 850 334.344849 L 850 561.655151 C 850 564.627197 848.818542 567.477478 846.715576 569.579041 C 844.692749 571.600464 841.976868 572.769958 839.126038 572.856873 L 838.783325 572.862061 L 750.483337 572.862061 L 750.483337 607.275879 L 838.783447 607.275879 C 841.758484 607.275757 844.611816 608.456604 846.715576 610.558899 C 848.737671 612.57959 849.907776 615.292542 849.994751 618.140381 L 850 618.482788 L 850 845.793091 C 850 848.765137 848.818542 851.615417 846.715576 853.71698 C 844.692749 855.738403 841.976807 856.907837 839.126038 856.994751 L 838.783325 857 L 14.216667 857 C 11.24157 857 8.388191 855.819275 6.284439 853.71698 C 4.262344 851.696289 3.092247 848.983276 3.005226 846.135437 L 3 845.793091 L 3 618.482788 C 3 615.510681 4.181458 612.6604 6.284439 610.558899 C 8.307251 608.537476 11.023125 607.367981 13.873955 607.281067 L 14.216667 607.275879 L 88.300003 607.275879 L 88.300003 572.862061 L 14.216583 572.862061 C 11.241508 572.862183 8.388168 571.681335 6.284439 569.579041 C 4.262344 567.55835 3.092247 564.845398 3.005226 561.997498 L 3 561.655151 L 3 334.344849 C 3 331.372803 4.181458 328.522461 6.284439 326.420959 C 8.307251 324.399536 11.023125 323.230042 13.873955 323.143188 L 14.216667 323.137939 L 88.300003 323.137939 L 88.300003 288.724121 L 14.216583 288.724121 C 11.241508 288.724243 8.388168 287.543396 6.284439 285.441101 C 4.262344 283.42041 3.092247 280.707458 3.005226 277.859619 L 3 277.517212 L 3 50.206909 C 3 47.234863 4.181458 44.384583 6.284439 42.28302 C 8.388191 40.180725 11.24157 39 14.216667 39 Z M 826.586182 629.601563 L 25.134933 629.601563 L 25.134933 664.07196 L 593.314392 664.07196 L 593.314392 686.542419 L 25.134933 686.542419 L 25.134933 777.953735 L 593.314392 777.953735 L 593.314392 800.424133 L 25.134933 800.424133 L 25.134933 834.894592 L 826.586182 834.894592 L 826.586182 800.424133 L 684.541321 800.424133 L 684.541321 777.953735 L 826.586182 777.953735 L 826.586182 686.542419 L 684.541321 686.542419 L 684.541321 664.07196 L 826.586182 664.07196 L 826.586182 629.601563 Z M 728.113953 573.390686 L 693.979004 573.390686 L 693.979004 607.496094 L 728.113953 607.496094 L 728.113953 573.390686 Z M 670.565247 573.390686 L 167.088455 573.390686 L 167.088455 607.496094 L 670.565247 607.496094 L 670.565247 573.390686 Z M 144.953522 573.390686 L 110.818588 573.390686 L 110.818588 607.496094 L 144.953522 607.496094 L 144.953522 573.390686 Z M 826.586182 344.714722 L 25.134933 344.714722 L 25.134933 379.185181 L 593.314392 379.185181 L 593.314392 401.655579 L 25.134933 401.655579 L 25.134933 493.066895 L 593.314392 493.066895 L 593.314392 515.537354 L 25.134933 515.537354 L 25.134933 550.007751 L 826.586182 550.007751 L 826.586182 515.537354 L 684.541321 515.537354 L 684.541321 493.066895 L 826.586182 493.066895 L 826.586182 401.655579 L 684.541321 401.655579 L 684.541321 379.185181 L 826.586182 379.185181 L 826.586182 344.714722 Z M 728.113953 288.503906 L 693.979004 288.503906 L 693.979004 322.609314 L 728.113953 322.609314 L 728.113953 288.503906 Z M 670.565247 288.503906 L 167.088455 288.503906 L 167.088455 322.609314 L 670.565247 322.609314 L 670.565247 288.503906 Z M 144.953522 288.503906 L 110.818588 288.503906 L 110.818588 322.609314 L 144.953522 322.609314 L 144.953522 288.503906 Z M 826.586182 61.105408 L 25.134933 61.105408 L 25.134933 95.575867 L 593.314392 95.575867 L 593.314392 118.046265 L 25.134933 118.046265 L 25.134933 209.457581 L 593.314392 209.457581 L 593.314392 231.92804 L 25.134933 231.92804 L 25.134933 266.398438 L 826.586182 266.398438 L 826.586182 231.92804 L 684.541321 231.92804 L 684.541321 209.457581 L 826.586182 209.457581 L 826.586182 118.046265 L 684.541321 118.046265 L 684.541321 95.575867 L 826.586182 95.575867 L 826.586182 61.105408 Z"/>
        <path id="path25" fill="none" stroke="#047101" stroke-width="6" d="M 650 663 L 650 686 L 627 686 L 627 663 L 650 663 Z"/>
        <path id="path26" fill="none" stroke="#047101" stroke-width="6" d="M 650 777 L 650 800 L 627 800 L 627 777 L 650 777 Z"/>
        <path id="path27" fill="none" stroke="#047101" stroke-width="6" d="M 126 731.5 C 126 737.851257 120.851273 743 114.5 743 C 108.148727 743 103 737.851257 103 731.5 C 103 725.148743 108.148727 720 114.5 720 C 120.851273 720 126 725.148743 126 731.5 Z"/>
        <path id="path28" fill="none" stroke="#047101" stroke-width="6" d="M 183 731.5 C 183 737.851257 177.851257 743 171.5 743 C 165.148727 743 160 737.851257 160 731.5 C 160 725.148743 165.148727 720 171.5 720 C 177.851257 720 183 725.148743 183 731.5 Z"/>
        <path id="path29" fill="none" stroke="#047101" stroke-width="6" d="M 423 720 L 423 743 L 245 743 L 245 720 L 423 720 Z"/>
    </g>
    <g id="server-copy-3" opacity="0.749116">
        <path id="path30" fill="none" stroke="#b51700" stroke-width="6" d="M 674 86 L 674 109 L 651 109 L 651 86 L 674 86 Z"/>
        <path id="path31" fill="none" stroke="#b51700" stroke-width="6" d="M 674 200 L 674 223 L 651 223 L 651 200 L 674 200 Z"/>
        <path id="path32" fill="none" stroke="#b51700" stroke-width="6" d="M 150 154.5 C 150 160.851257 144.851273 166 138.5 166 C 132.148727 166 127 160.851257 127 154.5 C 127 148.148743 132.148727 143 138.5 143 C 144.851273 143 150 148.148743 150 154.5 Z"/>
        <path id="path33" fill="none" stroke="#b51700" stroke-width="6" d="M 207 154.5 C 207 160.851257 201.851257 166 195.5 166 C 189.148727 166 184 160.851257 184 154.5 C 184 148.148743 189.148727 143 195.5 143 C 201.851257 143 207 148.148743 207 154.5 Z"/>
        <path id="path34" fill="none" stroke="#b51700" stroke-width="6" d="M 447 143 L 447 166 L 269 166 L 269 143 L 447 143 Z"/>
        <path id="path35" fill="none" stroke="#b51700" stroke-width="6" d="M 674 369 L 674 392 L 651 392 L 651 369 L 674 369 Z"/>
        <path id="path36" fill="none" stroke="#b51700" stroke-width="6" d="M 674 484 L 674 507 L 651 507 L 651 484 L 674 484 Z"/>
        <path id="path37" fill="none" stroke="#b51700" stroke-width="6" d="M 150 437.5 C 150 443.851288 144.851273 449 138.5 449 C 132.148727 449 127 443.851288 127 437.5 C 127 431.148682 132.148727 426 138.5 426 C 144.851273 426 150 431.148682 150 437.5 Z"/>
        <path id="path38" fill="none" stroke="#b51700" stroke-width="6" d="M 207 437.5 C 207 443.851288 201.851257 449 195.5 449 C 189.148727 449 184 443.851288 184 437.5 C 184 431.148682 189.148727 426 195.5 426 C 201.851257 426 207 431.148682 207 437.5 Z"/>
        <path id="path39" fill="none" stroke="#b51700" stroke-width="6" d="M 447 426 L 447 449 L 269 449 L 269 426 L 447 426 Z"/>
        <path id="path40" fill="none" stroke="#b51700" stroke-width="6" d="M 38.216667 29 L 38.216667 29 L 862.783325 29 C 865.758423 29 868.611816 30.180725 870.715576 32.28302 C 872.737671 34.303711 873.907776 37.016724 873.994751 39.864563 L 874 40.206909 L 874 267.517212 C 874 270.489258 872.818542 273.3396 870.715576 275.441101 C 868.692749 277.462524 865.976868 278.632019 863.126038 278.718933 L 862.783325 278.724121 L 774.483337 278.724121 L 774.483337 313.137939 L 862.783447 313.137939 C 865.758484 313.137817 868.611816 314.318726 870.715576 316.420959 C 872.737671 318.44165 873.907776 321.154663 873.994751 324.002441 L 874 324.344849 L 874 551.655151 C 874 554.627197 872.818542 557.477478 870.715576 559.579041 C 868.692749 561.600464 865.976868 562.769958 863.126038 562.856873 L 862.783325 562.862061 L 774.483337 562.862061 L 774.483337 597.275879 L 862.783447 597.275879 C 865.758484 597.275757 868.611816 598.456604 870.715576 600.558899 C 872.737671 602.57959 873.907776 605.292542 873.994751 608.140381 L 874 608.482788 L 874 835.793091 C 874 838.765137 872.818542 841.615417 870.715576 843.71698 C 868.692749 845.738403 865.976807 846.907837 863.126038 846.994751 L 862.783325 847 L 38.216667 847 C 35.24157 847 32.388191 845.819275 30.284439 843.71698 C 28.262344 841.696289 27.092247 838.983276 27.005226 836.135437 L 27 835.793091 L 27 608.482788 C 27 605.510681 28.181458 602.6604 30.284439 600.558899 C 32.307251 598.537476 35.023125 597.367981 37.873955 597.281067 L 38.216667 597.275879 L 112.300003 597.275879 L 112.300003 562.862061 L 38.216583 562.862061 C 35.241508 562.862183 32.388168 561.681335 30.284439 559.579041 C 28.262344 557.55835 27.092247 554.845398 27.005226 551.997498 L 27 551.655151 L 27 324.344849 C 27 321.372803 28.181458 318.522461 30.284439 316.420959 C 32.307251 314.399536 35.023125 313.230042 37.873955 313.143188 L 38.216667 313.137939 L 112.300003 313.137939 L 112.300003 278.724121 L 38.216583 278.724121 C 35.241508 278.724243 32.388168 277.543396 30.284439 275.441101 C 28.262344 273.42041 27.092247 270.707458 27.005226 267.859619 L 27 267.517212 L 27 40.206909 C 27 37.234863 28.181458 34.384583 30.284439 32.28302 C 32.388191 30.180725 35.24157 29 38.216667 29 Z M 850.586182 619.601563 L 49.134933 619.601563 L 49.134933 654.07196 L 617.314392 654.07196 L 617.314392 676.542419 L 49.134933 676.542419 L 49.134933 767.953735 L 617.314392 767.953735 L 617.314392 790.424133 L 49.134933 790.424133 L 49.134933 824.894592 L 850.586182 824.894592 L 850.586182 790.424133 L 708.541321 790.424133 L 708.541321 767.953735 L 850.586182 767.953735 L 850.586182 676.542419 L 708.541321 676.542419 L 708.541321 654.07196 L 850.586182 654.07196 L 850.586182 619.601563 Z M 752.113953 563.390686 L 717.979004 563.390686 L 717.979004 597.496094 L 752.113953 597.496094 L 752.113953 563.390686 Z M 694.565247 563.390686 L 191.088455 563.390686 L 191.088455 597.496094 L 694.565247 597.496094 L 694.565247 563.390686 Z M 168.953522 563.390686 L 134.818588 563.390686 L 134.818588 597.496094 L 168.953522 597.496094 L 168.953522 563.390686 Z M 850.586182 334.714722 L 49.134933 334.714722 L 49.134933 369.185181 L 617.314392 369.185181 L 617.314392 391.655579 L 49.134933 391.655579 L 49.134933 483.066895 L 617.314392 483.066895 L 617.314392 505.537323 L 49.134933 505.537323 L 49.134933 540.007751 L 850.586182 540.007751 L 850.586182 505.537323 L 708.541321 505.537323 L 708.541321 483.066895 L 850.586182 483.066895 L 850.586182 391.655579 L 708.541321 391.655579 L 708.541321 369.185181 L 850.586182 369.185181 L 850.586182 334.714722 Z M 752.113953 278.503906 L 717.979004 278.503906 L 717.979004 312.609314 L 752.113953 312.609314 L 752.113953 278.503906 Z M 694.565247 278.503906 L 191.088455 278.503906 L 191.088455 312.609314 L 694.565247 312.609314 L 694.565247 278.503906 Z M 168.953522 278.503906 L 134.818588 278.503906 L 134.818588 312.609314 L 168.953522 312.609314 L 168.953522 278.503906 Z M 850.586182 51.105408 L 49.134933 51.105408 L 49.134933 85.575867 L 617.314392 85.575867 L 617.314392 108.046265 L 49.134933 108.046265 L 49.134933 199.457581 L 617.314392 199.457581 L 617.314392 221.92804 L 49.134933 221.92804 L 49.134933 256.398438 L 850.586182 256.398438 L 850.586182 221.92804 L 708.541321 221.92804 L 708.541321 199.457581 L 850.586182 199.457581 L 850.586182 108.046265 L 708.541321 108.046265 L 708.541321 85.575867 L 850.586182 85.575867 L 850.586182 51.105408 Z"/>
        <path id="path41" fill="none" stroke="#b51700" stroke-width="6" d="M 674 653 L 674 676 L 651 676 L 651 653 L 674 653 Z"/>
        <path id="path42" fill="none" stroke="#b51700" stroke-width="6" d="M 674 767 L 674 790 L 651 790 L 651 767 L 674 767 Z"/>
        <path id="path43" fill="none" stroke="#b51700" stroke-width="6" d="M 150 721.5 C 150 727.851257 144.851273 733 138.5 733 C 132.148727 733 127 727.851257 127 721.5 C 127 715.148743 132.148727 710 138.5 710 C 144.851273 710 150 715.148743 150 721.5 Z"/>
        <path id="path44" fill="none" stroke="#b51700" stroke-width="6" d="M 207 721.5 C 207 727.851257 201.851257 733 195.5 733 C 189.148727 733 184 727.851257 184 721.5 C 184 715.148743 189.148727 710 195.5 710 C 201.851257 710 207 715.148743 207 721.5 Z"/>
        <path id="path45" fill="none" stroke="#b51700" stroke-width="6" d="M 447 710 L 447 733 L 269 733 L 269 710 L 447 710 Z"/>
    </g>
    <g id="server" opacity="0.500369">
        <path id="path46" fill="none" stroke="#ffffff" stroke-width="6" d="M 660 96 L 660 119 L 637 119 L 637 96 L 660 96 Z"/>
        <path id="path47" fill="none" stroke="#ffffff" stroke-width="6" d="M 660 210 L 660 233 L 637 233 L 637 210 L 660 210 Z"/>
        <path id="path48" fill="none" stroke="#ffffff" stroke-width="6" d="M 136 164.5 C 136 170.851257 130.851273 176 124.5 176 C 118.148727 176 113 170.851257 113 164.5 C 113 158.148743 118.148727 153 124.5 153 C 130.851273 153 136 158.148743 136 164.5 Z"/>
        <path id="path49" fill="none" stroke="#ffffff" stroke-width="6" d="M 193 164.5 C 193 170.851257 187.851257 176 181.5 176 C 175.148727 176 170 170.851257 170 164.5 C 170 158.148743 175.148727 153 181.5 153 C 187.851257 153 193 158.148743 193 164.5 Z"/>
        <path id="path50" fill="none" stroke="#ffffff" stroke-width="6" d="M 433 153 L 433 176 L 255 176 L 255 153 L 433 153 Z"/>
        <path id="path51" fill="none" stroke="#ffffff" stroke-width="6" d="M 660 379 L 660 402 L 637 402 L 637 379 L 660 379 Z"/>
        <path id="path52" fill="none" stroke="#ffffff" stroke-width="6" d="M 660 494 L 660 517 L 637 517 L 637 494 L 660 494 Z"/>
        <path id="path53" fill="none" stroke="#ffffff" stroke-width="6" d="M 136 447.5 C 136 453.851288 130.851273 459 124.5 459 C 118.148727 459 113 453.851288 113 447.5 C 113 441.148682 118.148727 436 124.5 436 C 130.851273 436 136 441.148682 136 447.5 Z"/>
        <path id="path54" fill="none" stroke="#ffffff" stroke-width="6" d="M 193 447.5 C 193 453.851288 187.851257 459 181.5 459 C 175.148727 459 170 453.851288 170 447.5 C 170 441.148682 175.148727 436 181.5 436 C 187.851257 436 193 441.148682 193 447.5 Z"/>
        <path id="path55" fill="none" stroke="#ffffff" stroke-width="6" d="M 433 436 L 433 459 L 255 459 L 255 436 L 433 436 Z"/>
        <path id="path56" fill="none" stroke="#ffffff" stroke-width="6" d="M 24.216667 39 L 24.216667 39 L 848.783325 39 C 851.758423 39 854.611816 40.180725 856.715576 42.28302 C 858.737671 44.303711 859.907776 47.016724 859.994751 49.864563 L 860 50.206909 L 860 277.517212 C 860 280.489258 858.818542 283.3396 856.715576 285.441101 C 854.692749 287.462524 851.976868 288.632019 849.126038 288.718933 L 848.783325 288.724121 L 760.483337 288.724121 L 760.483337 323.137939 L 848.783447 323.137939 C 851.758484 323.137817 854.611816 324.318726 856.715576 326.420959 C 858.737671 328.44165 859.907776 331.154663 859.994751 334.002441 L 860 334.344849 L 860 561.655151 C 860 564.627197 858.818542 567.477478 856.715576 569.579041 C 854.692749 571.600464 851.976868 572.769958 849.126038 572.856873 L 848.783325 572.862061 L 760.483337 572.862061 L 760.483337 607.275879 L 848.783447 607.275879 C 851.758484 607.275757 854.611816 608.456604 856.715576 610.558899 C 858.737671 612.57959 859.907776 615.292542 859.994751 618.140381 L 860 618.482788 L 860 845.793091 C 860 848.765137 858.818542 851.615417 856.715576 853.71698 C 854.692749 855.738403 851.976807 856.907837 849.126038 856.994751 L 848.783325 857 L 24.216667 857 C 21.24157 857 18.388191 855.819275 16.284439 853.71698 C 14.262344 851.696289 13.092247 848.983276 13.005226 846.135437 L 13 845.793091 L 13 618.482788 C 13 615.510681 14.181458 612.6604 16.284439 610.558899 C 18.307251 608.537476 21.023125 607.367981 23.873955 607.281067 L 24.216667 607.275879 L 98.300003 607.275879 L 98.300003 572.862061 L 24.216583 572.862061 C 21.241508 572.862183 18.388168 571.681335 16.284439 569.579041 C 14.262344 567.55835 13.092247 564.845398 13.005226 561.997498 L 13 561.655151 L 13 334.344849 C 13 331.372803 14.181458 328.522461 16.284439 326.420959 C 18.307251 324.399536 21.023125 323.230042 23.873955 323.143188 L 24.216667 323.137939 L 98.300003 323.137939 L 98.300003 288.724121 L 24.216583 288.724121 C 21.241508 288.724243 18.388168 287.543396 16.284439 285.441101 C 14.262344 283.42041 13.092247 280.707458 13.005226 277.859619 L 13 277.517212 L 13 50.206909 C 13 47.234863 14.181458 44.384583 16.284439 42.28302 C 18.388191 40.180725 21.24157 39 24.216667 39 Z M 836.586182 629.601563 L 35.134933 629.601563 L 35.134933 664.07196 L 603.314392 664.07196 L 603.314392 686.542419 L 35.134933 686.542419 L 35.134933 777.953735 L 603.314392 777.953735 L 603.314392 800.424133 L 35.134933 800.424133 L 35.134933 834.894592 L 836.586182 834.894592 L 836.586182 800.424133 L 694.541321 800.424133 L 694.541321 777.953735 L 836.586182 777.953735 L 836.586182 686.542419 L 694.541321 686.542419 L 694.541321 664.07196 L 836.586182 664.07196 L 836.586182 629.601563 Z M 738.113953 573.390686 L 703.979004 573.390686 L 703.979004 607.496094 L 738.113953 607.496094 L 738.113953 573.390686 Z M 680.565247 573.390686 L 177.088455 573.390686 L 177.088455 607.496094 L 680.565247 607.496094 L 680.565247 573.390686 Z M 154.953522 573.390686 L 120.818588 573.390686 L 120.818588 607.496094 L 154.953522 607.496094 L 154.953522 573.390686 Z M 836.586182 344.714722 L 35.134933 344.714722 L 35.134933 379.185181 L 603.314392 379.185181 L 603.314392 401.655579 L 35.134933 401.655579 L 35.134933 493.066895 L 603.314392 493.066895 L 603.314392 515.537354 L 35.134933 515.537354 L 35.134933 550.007751 L 836.586182 550.007751 L 836.586182 515.537354 L 694.541321 515.537354 L 694.541321 493.066895 L 836.586182 493.066895 L 836.586182 401.655579 L 694.541321 401.655579 L 694.541321 379.185181 L 836.586182 379.185181 L 836.586182 344.714722 Z M 738.113953 288.503906 L 703.979004 288.503906 L 703.979004 322.609314 L 738.113953 322.609314 L 738.113953 288.503906 Z M 680.565247 288.503906 L 177.088455 288.503906 L 177.088455 322.609314 L 680.565247 322.609314 L 680.565247 288.503906 Z M 154.953522 288.503906 L 120.818588 288.503906 L 120.818588 322.609314 L 154.953522 322.609314 L 154.953522 288.503906 Z M 836.586182 61.105408 L 35.134933 61.105408 L 35.134933 95.575867 L 603.314392 95.575867 L 603.314392 118.046265 L 35.134933 118.046265 L 35.134933 209.457581 L 603.314392 209.457581 L 603.314392 231.92804 L 35.134933 231.92804 L 35.134933 266.398438 L 836.586182 266.398438 L 836.586182 231.92804 L 694.541321 231.92804 L 694.541321 209.457581 L 836.586182 209.457581 L 836.586182 118.046265 L 694.541321 118.046265 L 694.541321 95.575867 L 836.586182 95.575867 L 836.586182 61.105408 Z"/>
        <path id="path57" fill="none" stroke="#ffffff" stroke-width="6" d="M 660 663 L 660 686 L 637 686 L 637 663 L 660 663 Z"/>
        <path id="path58" fill="none" stroke="#ffffff" stroke-width="6" d="M 660 777 L 660 800 L 637 800 L 637 777 L 660 777 Z"/>
        <path id="path59" fill="none" stroke="#ffffff" stroke-width="6" d="M 136 731.5 C 136 737.851257 130.851273 743 124.5 743 C 118.148727 743 113 737.851257 113 731.5 C 113 725.148743 118.148727 720 124.5 720 C 130.851273 720 136 725.148743 136 731.5 Z"/>
        <path id="path60" fill="none" stroke="#ffffff" stroke-width="6" d="M 193 731.5 C 193 737.851257 187.851257 743 181.5 743 C 175.148727 743 170 737.851257 170 731.5 C 170 725.148743 175.148727 720 181.5 720 C 187.851257 720 193 725.148743 193 731.5 Z"/>
        <path id="path61" fill="none" stroke="#ffffff" stroke-width="6" d="M 433 720 L 433 743 L 255 743 L 255 720 L 433 720 Z"/>
    </g>
    <g id="history-2" opacity="0.524359">
        <path id="path62" fill="#000000" stroke="none" d="M 863.520325 467.597656 C 864.007324 714.712402 662.495972 916.80542 415.379517 916.999878 C 295.370758 917.094482 186.34848 870.042236 105.804199 793.369812 C 101.405045 789.180847 101.345474 782.174805 105.639511 777.880798 L 134.182327 749.337952 C 138.332718 745.187622 145.021667 745.112244 149.28241 749.150513 C 219.989487 816.139893 316 856.683594 421.478058 854.961426 C 633.932129 851.492615 804.512817 675.354797 801.490662 462.893646 C 798.491333 252.021606 626.603699 81.989319 415.018616 81.989319 C 308.745148 81.989319 212.499878 124.889404 142.637253 194.296509 L 162.833771 214.493042 C 168.748367 220.407593 166.010056 230.507629 157.91954 232.625732 L 40.946903 263.262146 C 32.935223 265.360962 25.62958 258.055359 27.72842 250.043701 L 58.364815 133.071045 C 60.482933 124.98053 70.584694 122.243958 76.497528 128.156799 L 98.808655 150.467957 C 179.9048 69.844788 291.628571 20 415.020355 20 C 662.415405 20 863.031494 220.316528 863.520325 467.597656 Z"/>
        <path id="path63" fill="#000000" stroke="none" d="M 801.718445 241.233154 C 807.54895 268.057251 810.648132 295.899292 810.648132 324.470154 C 810.648132 357.7677 806.466187 390.087769 798.617432 420.941437 C 800.530579 436.528564 801.532715 452.395935 801.532715 468.499939 C 801.532715 681.956055 628.478333 855.012268 415.020355 855.012268 C 312.09491 855.012268 218.56163 814.776917 149.303436 749.16803 C 145.03392 745.124512 138.337967 745.182373 134.178833 749.339722 L 105.639511 777.880798 C 101.343727 782.176575 101.40329 789.182617 105.804199 793.369812 C 186.269638 869.966919 295.153503 916.999878 415.020355 916.999878 C 662.877869 916.999878 862.894897 717.511963 863.518555 469.654449 C 863.72876 386.273743 841.158386 308.192688 801.718445 241.233154 Z"/>
    </g>
    <g id="history-2-copy">
        <path id="path64" fill="#62d8f9" stroke="none" d="M 853.520325 447.597656 C 854.007324 694.712402 652.495972 896.80542 405.379517 896.999878 C 285.370758 897.094482 176.34848 850.042236 95.804199 773.369812 C 91.405045 769.180847 91.345474 762.174805 95.639511 757.880798 L 124.182327 729.337952 C 128.332718 725.187622 135.021667 725.112244 139.28241 729.150513 C 209.989487 796.139893 306 836.683594 411.478058 834.961426 C 623.932129 831.492615 794.512817 655.354736 791.490662 442.893646 C 788.491333 232.021606 616.603699 61.989319 405.018616 61.989319 C 298.745148 61.989319 202.499878 104.889404 132.637253 174.296509 L 152.833771 194.493042 C 158.748367 200.407593 156.010056 210.507629 147.91954 212.625732 L 30.946905 243.262146 C 22.935225 245.360962 15.62958 238.055359 17.72842 230.043701 L 48.364815 113.071045 C 50.482933 104.98053 60.58469 102.243958 66.497528 108.156799 L 88.808655 130.467957 C 169.9048 49.844788 281.628571 0 405.020355 0 C 652.415405 0 853.031494 200.316528 853.520325 447.597656 Z"/>
        <path id="path65" fill="#00bef7" stroke="none" d="M 791.718445 221.233154 C 797.54895 248.057251 800.648132 275.899292 800.648132 304.470154 C 800.648132 337.7677 796.466187 370.087769 788.617432 400.941406 C 790.530579 416.528564 791.532715 432.395935 791.532715 448.499939 C 791.532715 661.956055 618.478333 835.012268 405.020355 835.012268 C 302.09491 835.012268 208.56163 794.776917 139.303436 729.16803 C 135.03392 725.124512 128.337967 725.182373 124.178825 729.339722 L 95.639511 757.880798 C 91.343727 762.176575 91.40329 769.182617 95.804199 773.369812 C 176.269638 849.966919 285.153503 896.999878 405.020355 896.999878 C 652.877869 896.999878 852.894897 697.511963 853.518555 449.654449 C 853.72876 366.273743 831.158386 288.192688 791.718445 221.233154 Z"/>
    </g>
    <g id="Group">
        <g id="apples" opacity="0.76931">
            <path id="path66" fill="#fe4f60" stroke="none" d="M 386.32782 272.900757 C 405.285614 269.297302 433.289825 267.679138 452.662994 283.44812 C 502.085999 323.646057 466.2565 454.633667 405.75705 454.633667 C 398.483154 454.633667 389.079529 452.986633 377.479736 447.530914 C 371.986664 444.947418 365.654602 444.947418 360.16153 447.530914 C 347.543091 453.466187 333.513458 456.770538 320.172272 453.080475 C 267.867767 438.53775 238.355804 321.368896 284.979309 283.44812 C 304.352478 267.679138 332.346313 269.29834 351.314514 272.900757 C 362.57785 275.044861 374.47879 275.171692 386.32782 272.900757 Z"/>
            <path id="path67" fill="#fe4f60" stroke="none" d="M 526.309753 272.900757 C 545.267517 269.297302 573.27179 267.679138 592.644897 283.44812 C 642.067932 323.646057 606.238403 454.633667 545.738953 454.633667 C 538.465088 454.633667 529.061462 452.986633 517.46167 447.530914 C 511.968597 444.947418 505.636536 444.947418 500.143463 447.530914 C 487.524994 453.466187 473.495361 456.770538 460.154205 453.080475 C 407.84967 438.53775 378.337738 321.368896 424.961243 283.44812 C 444.334381 267.679138 472.328247 269.29834 491.296417 272.900757 C 502.558746 275.044861 514.459656 275.171692 526.309753 272.900757 Z"/>
            <path id="path68" fill="#ff6d7a" stroke="none" d="M 421.203552 270.275879 C 438.448944 272.390015 439.274017 297.065247 422.2005 300.295105 C 410.44928 302.51825 398.970306 302.685486 386.914703 300.36676 C 368.004639 296.736938 340.094025 295.105896 320.779175 310.991272 C 302.491302 326.018555 295.953613 353.401062 297.924744 381.982483 C 299.168091 400.012085 273.470856 404.804382 268.36496 387.4729 C 251.22934 329.315918 263.311859 255.215393 351.216858 272.085571 C 381.400909 277.891846 392.088928 266.706299 421.203552 270.275879 Z"/>
            <path id="path69" fill="#ffaa64" stroke="none" d="M 676.965515 410.144104 L 676.965515 444.332855 C 676.965515 453.491272 669.542969 460.90921 660.378845 460.90921 L 641.822632 460.90921 C 609.10553 614.520325 634.949524 493.243469 605.943726 629.428711 C 602.678223 644.741089 589.160095 655.681519 573.496155 655.681519 L 299.620087 655.681519 C 283.966492 655.681519 270.438019 644.741089 267.182892 629.428711 C 247.963165 539.211792 249.829163 547.966187 231.304001 460.90921 L 212.54039 460.90921 C 203.376282 460.90921 195.953781 453.491272 195.953781 444.332855 L 195.953781 410.144104 C 195.953781 400.985657 203.376282 393.567688 212.54039 393.567688 L 660.378845 393.567688 C 669.542969 393.567688 676.965515 400.985657 676.965515 410.144104 Z"/>
            <path id="path70" fill="#cbe3fa" stroke="none" d="M 676.965515 410.21814 L 676.965515 444.55957 C 676.965515 453.758942 669.542969 461.209991 660.378845 461.209991 L 212.54039 461.209991 C 203.376282 461.209991 195.953781 453.758942 195.953781 444.55957 L 195.953781 410.21814 C 195.953781 401.018799 203.376282 393.567688 212.54039 393.567688 L 660.378845 393.567688 C 669.542969 393.567688 676.965515 401.018799 676.965515 410.21814 Z"/>
            <path id="path71" fill="#ffaa64" stroke="none" d="M 370.133301 318.409607 C 366.309998 318.409607 362.873047 315.75238 362.039185 311.869385 C 361.006439 307.062744 358.078125 289.979309 363.759735 271.953552 C 366.899384 261.924438 372.299255 252.913086 380.227631 245.49054 C 383.565125 242.364746 388.809631 242.532288 391.940979 245.86499 C 395.07132 249.19873 394.903503 254.434631 391.56601 257.561523 C 385.929962 262.846008 381.948181 269.322144 379.574005 276.907104 C 374.992462 291.444946 377.662872 305.689087 378.243988 308.395996 C 379.347168 313.531616 375.432709 318.409607 370.133301 318.409607 L 370.133301 318.409607 Z"/>
            <path id="path72" fill="#ffaa64" stroke="none" d="M 510.115112 318.409607 C 506.29184 318.409607 502.85495 315.75238 502.021088 311.869385 C 500.988373 307.062744 498.060089 289.979309 503.741638 271.953552 C 506.881226 261.924438 512.281006 252.913086 520.209351 245.49054 C 523.546753 242.364746 528.791199 242.532288 531.922546 245.86499 C 535.053894 249.197693 534.88501 254.434631 531.547546 257.561523 C 525.91156 262.846008 521.929871 269.322144 519.555725 276.907104 C 514.974182 291.444946 517.644592 305.689087 518.225708 308.395996 C 519.328857 313.531616 515.414429 318.409607 510.115112 318.409607 L 510.115112 318.409607 Z"/>
            <g id="g1">
                <path id="path73" fill="#e84857" stroke="none" d="M 345.645538 308.76355 C 342.541992 305.396484 342.756622 300.150513 346.126678 297.048767 C 349.495697 293.947998 354.744659 294.161499 357.848206 297.529602 C 358.510803 298.247803 362.097565 301.846985 367.635834 302.097839 C 373.842926 302.395264 378.022797 298.297546 378.794281 297.475708 C 381.927917 294.134521 387.177917 293.967712 390.519958 297.097473 C 393.863037 300.229248 394.032074 305.476318 390.898438 308.817505 C 378.353607 322.187378 357.634583 321.77179 345.645538 308.76355 Z"/>
                <path id="path74" fill="#e84857" stroke="none" d="M 509.967651 318.691772 C 505.507782 318.691772 501.823578 315.150574 501.681519 310.663208 C 501.536346 306.08667 505.131409 302.25946 509.711517 302.11438 C 515.372192 301.93512 519.114502 298.229126 519.80719 297.487122 C 522.935547 294.140747 528.18457 293.962524 531.531799 297.087097 C 534.880005 300.212708 535.059448 305.458679 531.932068 308.806091 C 526.518188 314.595093 517.928223 318.691772 509.967651 318.691772 L 509.967651 318.691772 Z"/>
                <path id="path75" fill="#e84857" stroke="none" d="M 481.648956 393.567688 L 467.126678 393.567688 C 481.428101 350.998779 479.866486 292.403809 438.797607 275.652344 C 447.675842 272.008545 457.428223 270.557678 467.097656 270.496338 C 469.333252 270.481995 471.496338 271.36084 473.056915 272.960938 C 497.653015 298.190796 500.773132 345.260559 489.663422 387.434631 C 488.709442 391.059753 485.399536 393.567688 481.648956 393.567688 Z"/>
            </g>
            <path id="path76" fill="#eef7ff" stroke="none" d="M 661.026489 393.603882 C 676.786011 394.633057 675.60437 418.366913 659.810608 418.366913 L 237.38002 418.366913 C 228.227921 418.366913 220.809525 425.768433 220.809525 434.899689 L 220.809525 444.082611 C 220.809525 460.177307 195.953781 461.087646 195.953781 444.199402 L 195.953781 410.100525 C 195.953781 400.969238 203.372177 393.567688 212.524277 393.567688 C 212.524277 393.567688 660.662964 393.580078 661.026489 393.603882 Z"/>
            <path id="path77" fill="#ffbd7b" stroke="none" d="M 628.112732 526.973267 L 616.513 581.462891 L 257.35611 581.462891 L 245.746002 526.973267 Z"/>
            <path id="path78" fill="#faa157" stroke="none" d="M 230.714386 461.209991 C 232.516266 469.86084 234.120575 477.587158 235.569733 484.568756 C 236.381714 488.478455 239.756882 491.273224 243.663696 491.273224 L 627.36731 491.273224 C 631.273071 491.273224 634.647217 488.48056 635.461304 484.572998 C 636.918701 477.571289 638.537476 469.812164 640.325928 461.209991 L 230.714386 461.209991 Z"/>
            <path id="path79" fill="#ffd3a6" stroke="none" d="M 542.620422 655.681519 L 474.978149 655.681519 L 474.978149 461.209991 L 542.620422 461.209991 Z"/>
            <path id="path80" fill="#ffd3a6" stroke="none" d="M 397.001648 655.681519 L 329.359375 655.681519 L 329.359375 461.209991 L 397.001648 461.209991 Z"/>
            <path id="path81" fill="#ffbd7b" stroke="none" d="M 542.620422 461.209991 L 542.620422 482.810669 C 542.620422 487.484131 538.892822 491.273224 534.295227 491.273224 L 483.303345 491.273224 C 478.70575 491.273224 474.978149 487.484131 474.978149 482.810669 L 474.978149 461.209991 L 542.620422 461.209991 Z"/>
            <path id="path82" fill="#ffbd7b" stroke="none" d="M 397.001648 461.209991 L 397.001648 482.810669 C 397.001648 487.484131 393.274017 491.273224 388.676422 491.273224 L 337.68457 491.273224 C 333.086975 491.273224 329.359375 487.484131 329.359375 482.810669 L 329.359375 461.209991 L 397.001648 461.209991 Z"/>
        </g>
        <g id="g2" style="mix-blend-mode:screen;isolation:isolate">
            <g id="apples-copy">
                <path id="path83" fill="#fe0000" stroke="none" d="M 312.492188 434.425781 C 308.465113 434.449027 304.443078 433.968525 300.482422 432.873047 C 248.177976 418.330313 218.665627 301.160986 265.289063 263.240234 C 284.662225 247.471342 312.656824 249.090951 331.625 252.693359 C 342.888342 254.837473 354.789694 254.964347 366.638672 252.693359 C 381.425684 249.882713 401.715292 248.281479 419.121094 255.195313 C 436.524513 248.2817 456.812359 249.883443 471.607422 252.693359 C 482.86974 254.837461 494.769055 254.964292 506.619141 252.693359 C 525.576916 249.089908 553.58199 247.471329 572.955078 263.240234 C 622.378063 303.438192 586.548157 434.425781 526.048828 434.425781 C 518.77491 434.425781 509.371296 432.779902 497.771484 427.324219 C 492.278448 424.740725 485.946161 424.740725 480.453125 427.324219 C 467.834668 433.259455 453.806017 436.563137 440.464844 432.873047 C 432.772996 430.734409 425.573466 426.376027 419.037109 420.376953 C 409.368757 429.144334 398.214665 434.425781 386.066406 434.425781 C 378.792535 434.425781 369.390826 432.779891 357.791016 427.324219 C 352.297954 424.740699 345.965718 424.740699 340.472656 427.324219 C 331.600309 431.497447 322.029995 434.370726 312.492188 434.425781 Z"/>
                <path id="path84" fill="#ff0000" stroke="none" d="M 657.275818 389.937134 L 657.275818 424.125916 C 657.275818 433.284332 649.853271 440.702271 640.689209 440.702271 L 622.132935 440.702271 C 589.415833 594.313354 615.259888 473.03656 586.254028 609.221741 C 582.988525 624.53418 569.470459 635.474609 553.806458 635.474609 L 279.93042 635.474609 C 264.276794 635.474609 250.748352 624.53418 247.493225 609.221741 C 228.273499 519.004883 230.139481 527.759277 211.614319 440.702271 L 192.850708 440.702271 C 183.686615 440.702271 176.264099 433.284332 176.264099 424.125916 L 176.264099 389.937134 C 176.264099 380.778687 183.686615 373.360779 192.850708 373.360779 L 640.689209 373.360779 C 649.853271 373.360779 657.275818 380.778687 657.275818 389.937134 Z"/>
                <path id="path85" fill="#cb0000" stroke="none" d="M 657.275818 390.011169 L 657.275818 424.352631 C 657.275818 433.552002 649.853271 441.003052 640.689209 441.003052 L 192.850708 441.003052 C 183.686615 441.003052 176.264099 433.552002 176.264099 424.352631 L 176.264099 390.011169 C 176.264099 380.811829 183.686615 373.360779 192.850708 373.360779 L 640.689209 373.360779 C 649.853271 373.360779 657.275818 380.811829 657.275818 390.011169 Z"/>
                <path id="path86" fill="#000000" stroke="none" opacity="0.396042" d="M 325.955882 288.556635 C 322.852306 285.18958 323.066946 279.943605 326.437007 276.841818 C 329.805995 273.741033 335.054975 273.954564 338.158515 277.322693 C 338.821114 278.040857 342.407891 281.640049 347.946147 281.890863 C 354.153263 282.188333 358.333119 278.090591 359.10463 277.268738 C 362.238225 273.927587 367.488243 273.760783 370.830289 276.89055 C 374.173372 280.02232 374.342394 285.269368 371.208763 288.610519 C 358.663936 301.98042 337.944912 301.564878 325.955882 288.556635 Z M 461.959259 373.360779 L 447.436981 373.360779 C 461.738434 330.79187 460.176788 272.196899 419.10791 255.445435 C 427.986145 251.801636 437.738556 250.350769 447.40799 250.289429 C 449.643585 250.275085 451.806671 251.153931 453.367218 252.754028 C 477.963348 277.983887 481.083466 325.05365 469.973755 367.227722 C 469.019775 370.852844 465.709869 373.360779 461.959259 373.360779 Z M 490.277985 298.484863 C 485.818115 298.484863 482.133881 294.943665 481.991821 290.456238 C 481.84668 285.879761 485.441742 282.052551 490.021851 281.907471 C 495.682495 281.72821 499.424805 278.022217 500.117493 277.280151 C 503.245911 273.933838 508.494873 273.755554 511.842102 276.880127 C 515.190369 280.005798 515.369751 285.251709 512.242371 288.599121 C 506.828522 294.388184 498.238525 298.484863 490.277985 298.484863 L 490.277985 298.484863 Z"/>
                <path id="path87" fill="#ff0000" stroke="none" d="M 348.521484 281.90625 C 348.331514 281.905306 348.139284 281.89992 347.945313 281.890625 C 344.933987 281.754261 342.501852 280.628519 340.800781 279.513672 C 340.393499 271.954809 340.836975 262.004339 344.070313 251.746094 C 347.209951 241.716997 352.608726 232.705702 360.537109 225.283203 C 363.874608 222.157375 369.120615 222.325499 372.251953 225.658203 C 375.382289 228.991909 375.214452 234.228639 371.876953 237.355469 C 366.240917 242.640008 362.258941 249.114281 359.884766 256.699219 C 357.327984 264.812235 357.030477 272.832632 357.367188 278.808594 C 355.544203 280.193243 352.470632 281.925884 348.521484 281.90625 Z M 481.993914 289.94588 C 480.819324 283.583307 478.90822 268.067339 484.052517 251.746083 C 487.19212 241.716987 492.590776 232.706716 500.519052 225.284217 C 503.856515 222.158389 509.100457 222.324764 512.231794 225.657468 C 515.363132 228.990172 515.195971 234.227351 511.858544 237.35418 C 506.222508 242.63872 502.24054 249.114159 499.866436 256.699096 C 497.207369 265.136676 496.990757 273.471617 497.391075 279.513182 C 495.628128 280.657993 493.114825 281.810453 490.022237 281.908398 C 485.613892 282.04803 482.120486 285.599074 481.993914 289.94588 Z"/>
            </g>
            <g id="apples-copy-2">
                <path id="path88" fill="#004f00" stroke="none" d="M 430.791016 446.632813 C 423.517144 446.632813 414.113482 444.986922 402.513672 439.53125 C 397.02061 436.94773 390.688374 436.94773 385.195313 439.53125 C 372.576864 445.466509 358.548187 448.770111 345.207031 445.080078 C 292.902585 430.537344 263.390236 313.368017 310.013672 275.447266 C 329.386834 259.678373 357.381434 261.297982 376.349609 264.900391 C 387.612951 267.044504 399.514303 267.171378 411.363281 264.900391 C 426.150944 262.08962 446.441343 260.487456 463.847656 267.402344 C 481.2507 260.489492 501.535471 262.090613 516.330078 264.900391 C 527.592396 267.044492 539.493725 267.171323 551.34375 264.900391 C 570.301556 261.29694 598.306538 259.678299 617.679688 275.447266 C 667.102612 315.645162 631.272828 446.632813 570.773438 446.632813 C 563.499519 446.632813 554.095936 444.986964 542.496094 439.53125 C 537.003057 436.947756 530.670771 436.947756 525.177734 439.53125 C 512.559278 445.466516 498.530596 448.770138 485.189453 445.080078 C 477.497601 442.94144 470.298079 438.583059 463.761719 432.583984 C 454.093366 441.351365 442.939275 446.632813 430.791016 446.632813 Z"/>
                <path id="path89" fill="#00aa00" stroke="none" d="M 702 402.144104 L 702 436.332855 C 702 445.491272 694.577515 452.90921 685.413391 452.90921 L 666.857117 452.90921 C 634.140015 606.520325 659.98407 485.243469 630.97821 621.428711 C 627.712708 636.741089 614.194641 647.681519 598.53064 647.681519 L 324.654602 647.681519 C 309.001007 647.681519 295.472534 636.741089 292.217407 621.428711 C 272.997681 531.211792 274.863678 539.966187 256.338501 452.90921 L 237.574905 452.90921 C 228.410797 452.90921 220.988297 445.491272 220.988297 436.332855 L 220.988297 402.144104 C 220.988297 392.985657 228.410797 385.567688 237.574905 385.567688 L 685.413391 385.567688 C 694.577515 385.567688 702 392.985657 702 402.144104 Z"/>
                <path id="path90" fill="#00e300" stroke="none" d="M 702 402.21814 L 702 436.55957 C 702 445.758942 694.577515 453.209991 685.413391 453.209991 L 237.574905 453.209991 C 228.410797 453.209991 220.988297 445.758942 220.988297 436.55957 L 220.988297 402.21814 C 220.988297 393.018799 228.410797 385.567688 237.574905 385.567688 L 685.413391 385.567688 C 694.577515 385.567688 702 393.018799 702 402.21814 Z"/>
                <path id="path91" fill="#000000" stroke="none" opacity="0.396042" d="M 370.680073 300.763569 C 367.576497 297.396514 367.791138 292.150539 371.161199 289.048752 C 374.530186 285.947967 379.779166 286.161498 382.882707 289.529627 C 383.545305 290.247791 387.132082 293.846983 392.670338 294.097797 C 398.877455 294.395267 403.057311 290.297525 403.828822 289.475672 C 406.962417 286.134521 412.212434 285.967717 415.55448 289.097484 C 418.897563 292.229254 419.066585 297.476302 415.932954 300.817453 C 403.388127 314.187353 382.669104 313.771812 370.680073 300.763569 Z M 506.683472 385.567688 L 492.161194 385.567688 C 506.462616 342.998779 504.901001 284.403809 463.832123 267.652344 C 472.710358 264.008545 482.462738 262.557678 492.132172 262.496338 C 494.367767 262.481995 496.530853 263.36084 498.091431 264.960938 C 522.6875 290.190796 525.807678 337.260559 514.697937 379.434631 C 513.743958 383.059753 510.434052 385.567688 506.683472 385.567688 Z M 535.002197 310.691772 C 530.542297 310.691772 526.858093 307.150574 526.716003 302.663208 C 526.570862 298.08667 530.165894 294.25946 534.746033 294.11438 C 540.406677 293.93512 544.148987 290.229126 544.841675 289.487122 C 547.970093 286.140747 553.219055 285.962524 556.566284 289.087097 C 559.914551 292.212708 560.093933 297.458679 556.966553 300.806091 C 551.552673 306.595093 542.962708 310.691772 535.002197 310.691772 L 535.002197 310.691772 Z"/>
                <path id="path92" fill="#00aa64" stroke="none" d="M 393.246094 294.113281 C 393.056124 294.112337 392.863893 294.106951 392.669922 294.097656 C 389.658597 293.961259 387.226462 292.835557 385.525391 291.720703 C 385.118107 284.161837 385.561581 274.211381 388.794922 263.953125 C 391.93456 253.924028 397.333335 244.912734 405.261719 237.490234 C 408.599217 234.364407 413.843272 234.53253 416.974609 237.865234 C 420.104945 241.19894 419.937108 246.433717 416.599609 249.560547 C 410.963574 254.845086 406.98355 261.321313 404.609375 268.90625 C 402.052595 277.01926 401.753134 285.039665 402.089844 291.015625 C 400.266843 292.400257 397.195149 294.132912 393.246094 294.113281 Z M 526.718106 302.152814 C 525.543516 295.790241 523.632411 280.274273 528.776709 263.953017 C 531.916311 253.92392 537.314968 244.91365 545.243244 237.491151 C 548.580706 234.365323 553.824648 234.531698 556.955986 237.864402 C 560.087324 241.197106 559.920162 246.434285 556.582735 249.561114 C 550.946699 254.845654 546.964731 261.321093 544.590628 268.90603 C 541.931561 277.34361 541.714949 285.678551 542.115266 291.720116 C 540.35232 292.864927 537.839016 294.017387 534.746429 294.115332 C 530.338083 294.254964 526.844677 297.806008 526.718106 302.152814 Z"/>
            </g>
            <g id="apples-copy-3">
                <path id="path93" fill="#000060" stroke="none" d="M 405.757813 487.839844 C 398.483941 487.839844 389.080279 486.193953 377.480469 480.738281 C 371.987407 478.154761 365.655171 478.154761 360.162109 480.738281 C 347.54366 486.67354 333.513031 489.977142 320.171875 486.287109 C 267.867429 471.744375 238.35508 354.575048 284.978516 316.654297 C 304.351678 300.885404 332.346278 302.505013 351.314453 306.107422 C 362.577795 308.251536 374.479147 308.378409 386.328125 306.107422 C 401.115788 303.296651 421.406186 301.694487 438.8125 308.609375 C 456.216055 301.695471 476.501617 303.29752 491.296875 306.107422 C 502.559193 308.251585 514.460461 308.378416 526.310547 306.107422 C 545.268292 302.503971 573.271443 300.885331 592.644531 316.654297 C 642.067516 356.852255 606.237671 487.839844 545.738281 487.839844 C 538.464424 487.839844 529.060718 486.193995 517.460938 480.738281 C 511.96787 478.154788 505.635645 478.154788 500.142578 480.738281 C 487.524122 486.673548 473.49544 489.977169 460.154297 486.287109 C 452.462445 484.148471 445.262923 479.790091 438.726563 473.791016 C 429.05821 482.558396 417.906072 487.839844 405.757813 487.839844 Z"/>
                <path id="path94" fill="#000064" stroke="none" d="M 676.965515 443.351044 L 676.965515 477.539795 C 676.965515 486.698212 669.542969 494.11615 660.378845 494.11615 L 641.822632 494.11615 C 609.10553 647.727295 634.949524 526.450439 605.943726 662.63562 C 602.678223 677.948059 589.160095 688.888428 573.496155 688.888428 L 299.620087 688.888428 C 283.966492 688.888428 270.438019 677.948059 267.182892 662.63562 C 247.963165 572.418701 249.829163 581.173157 231.304001 494.11615 L 212.54039 494.11615 C 203.376282 494.11615 195.953781 486.698212 195.953781 477.539795 L 195.953781 443.351044 C 195.953781 434.192566 203.376282 426.774658 212.54039 426.774658 L 660.378845 426.774658 C 669.542969 426.774658 676.965515 434.192566 676.965515 443.351044 Z"/>
                <path id="path95" fill="#0000fa" stroke="none" d="M 676.965515 443.425049 L 676.965515 477.76651 C 676.965515 486.965851 669.542969 494.416931 660.378845 494.416931 L 212.54039 494.416931 C 203.376282 494.416931 195.953781 486.965851 195.953781 477.76651 L 195.953781 443.425049 C 195.953781 434.225708 203.376282 426.774658 212.54039 426.774658 L 660.378845 426.774658 C 669.542969 426.774658 676.965515 434.225708 676.965515 443.425049 Z"/>
                <path id="path96" fill="#000000" stroke="none" opacity="0.396042" d="M 345.645558 341.970503 C 342.541982 338.603448 342.756623 333.357473 346.126684 330.255686 C 349.495671 327.154901 354.744651 327.368432 357.848192 330.736561 C 358.51079 331.454725 362.097567 335.053917 367.635823 335.304731 C 373.84294 335.602201 378.022796 331.504459 378.794307 330.682606 C 381.927902 327.341455 387.177919 327.174651 390.519965 330.304418 C 393.863048 333.436188 394.03207 338.683236 390.89844 342.024387 C 378.353612 355.394287 357.634589 354.978746 345.645558 341.970503 Z M 481.648956 426.774658 L 467.126678 426.774658 C 481.428101 384.20575 479.866486 325.610779 438.797607 308.859314 C 447.675842 305.215515 457.428223 303.764648 467.097656 303.703308 C 469.333252 303.688965 471.496338 304.56781 473.056915 306.167908 C 497.653015 331.397766 500.773132 378.467468 489.663422 420.641571 C 488.709442 424.266693 485.399536 426.774658 481.648956 426.774658 Z M 509.967651 351.898743 C 505.507782 351.898743 501.823578 348.357483 501.681519 343.870117 C 501.536346 339.29364 505.131409 335.466431 509.711517 335.32135 C 515.372192 335.142029 519.114502 331.436096 519.80719 330.694031 C 522.935547 327.347656 528.18457 327.169434 531.531799 330.294006 C 534.880005 333.419617 535.059448 338.665588 531.932068 342.013 C 526.518188 347.802063 517.928223 351.898743 509.967651 351.898743 L 509.967651 351.898743 Z"/>
                <path id="path97" fill="#000064" stroke="none" d="M 368.210938 335.320313 C 368.020968 335.319368 367.83069 335.313982 367.636719 335.304688 C 364.624537 335.168285 362.191372 334.040955 360.490234 332.925781 C 360.083136 325.367159 360.526709 315.417512 363.759766 305.160156 C 366.899404 295.131059 372.300132 286.119765 380.228516 278.697266 C 383.566014 275.571438 388.810068 275.739562 391.941406 279.072266 C 395.071742 282.405971 394.903905 287.640749 391.566406 290.767578 C 385.93037 296.052118 381.948394 302.528344 379.574219 310.113281 C 377.017437 318.226297 376.71993 326.246695 377.056641 332.222656 C 375.233656 333.607305 372.160085 335.339944 368.210938 335.320313 Z M 501.683591 343.359748 C 500.509001 336.997175 498.597897 321.481207 503.742194 305.159951 C 506.881797 295.130854 512.280453 286.120584 520.208729 278.698085 C 523.546192 275.572257 528.790133 275.738632 531.921471 279.071336 C 535.052809 282.40404 534.885647 287.641219 531.54822 290.768048 C 525.912185 296.052588 521.930216 302.528027 519.556113 310.112964 C 516.897046 318.550544 516.680434 326.885485 517.080751 332.92705 C 515.317805 334.071861 512.804502 335.224321 509.711914 335.322265 C 505.303568 335.461898 501.810163 339.012942 501.683591 343.359748 Z"/>
            </g>
        </g>
    </g>
</svg>
